<svg width="206" height="49" viewBox="0 0 206 49" fill="none" xmlns="http://www.w3.org/2000/svg">
<rect x="3.40683" y="3.40683" width="200.16" height="40.683" rx="20.3415" fill="black" stroke="black" stroke-width="0.81366"/>
<path d="M75.6552 27.6548C75.4204 27.7252 75.0742 27.8133 74.6164 27.9189C74.1586 28.0128 73.6833 28.0597 73.1903 28.0597C71.9461 28.0597 71.0541 27.7722 70.5141 27.197C69.9742 26.6219 69.7043 25.8414 69.7043 24.8554V21.8975H72.1867V24.3448C72.1867 25.0139 72.3159 25.4775 72.5741 25.7357C72.8323 25.9939 73.2549 26.1231 73.8417 26.1231C74.2056 26.1231 74.546 26.0937 74.8629 26.035C75.1798 25.9763 75.4439 25.9176 75.6552 25.859V21.8975H78.1553V31H75.6552V27.6548ZM82.772 31.2289C82.3377 31.2289 81.9327 31.1761 81.5571 31.0704C81.1815 30.9648 80.8529 30.8005 80.5712 30.5774C80.2895 30.3544 80.0665 30.0727 79.9022 29.7323C79.7496 29.392 79.6733 28.987 79.6733 28.5175C79.6733 28.0011 79.7613 27.5785 79.9374 27.2499C80.1252 26.9095 80.3599 26.6395 80.6416 26.44C80.9351 26.2404 81.2637 26.0937 81.6276 25.9998C82.0032 25.8942 82.3788 25.812 82.7544 25.7533C83.13 25.6946 83.4997 25.6477 83.8636 25.6125C84.2274 25.5773 84.5502 25.5244 84.8319 25.454C85.1136 25.3836 85.3366 25.2838 85.501 25.1547C85.6653 25.0139 85.7416 24.8143 85.7298 24.5561C85.7298 24.2979 85.6829 24.0866 85.589 23.9223C85.5068 23.7579 85.3894 23.6347 85.2369 23.5525C85.096 23.4586 84.9258 23.3999 84.7263 23.3765C84.5385 23.3413 84.3331 23.3237 84.1101 23.3237C83.6171 23.3237 83.2297 23.4293 82.948 23.6406C82.6663 23.8518 82.502 24.204 82.4551 24.6969H79.955C79.9902 24.1218 80.1369 23.6406 80.3951 23.2532C80.6534 22.8542 80.982 22.5372 81.3811 22.3025C81.7802 22.0677 82.2262 21.9034 82.7192 21.8095C83.2121 21.7039 83.7168 21.6511 84.2333 21.6511C84.6911 21.6511 85.1547 21.6863 85.6242 21.7567C86.0937 21.8154 86.5221 21.9386 86.9095 22.1264C87.2968 22.3142 87.6137 22.5783 87.8602 22.9187C88.1067 23.2591 88.2299 23.6993 88.2299 24.2392V28.9753C88.2299 29.3861 88.2534 29.7793 88.3004 30.1549C88.3473 30.5305 88.4295 30.8122 88.5468 31H86.0115C85.9646 30.8591 85.9235 30.7183 85.8883 30.5774C85.8648 30.4249 85.8472 30.2723 85.8355 30.1197C85.4364 30.5305 84.9669 30.8181 84.427 30.9824C83.887 31.1467 83.3354 31.2289 82.772 31.2289ZM83.7051 29.5739C84.1981 29.5739 84.5796 29.4917 84.8495 29.3274C85.1195 29.1631 85.319 28.9694 85.4481 28.7464C85.5772 28.5116 85.6535 28.2769 85.677 28.0421C85.7122 27.8074 85.7298 27.6196 85.7298 27.4787V26.5456C85.6242 26.6395 85.4951 26.7158 85.3425 26.7745C85.1899 26.8214 85.0197 26.8625 84.8319 26.8977C84.6441 26.9329 84.4504 26.9623 84.2509 26.9858C84.0514 27.0092 83.8518 27.0386 83.6523 27.0738C83.4528 27.109 83.265 27.156 83.0889 27.2146C82.9128 27.2733 82.7544 27.3555 82.6135 27.4611C82.4844 27.555 82.3788 27.6783 82.2966 27.8309C82.2144 27.9835 82.1734 28.1771 82.1734 28.4119C82.1734 28.6466 82.2144 28.8403 82.2966 28.9929C82.3788 29.1337 82.4903 29.2511 82.6311 29.345C82.772 29.4272 82.9363 29.4859 83.1241 29.5211C83.3119 29.5563 83.5056 29.5739 83.7051 29.5739ZM94.484 31.2289C93.7915 31.2289 93.1635 31.1174 92.6001 30.8944C92.0367 30.6596 91.5555 30.3368 91.1564 29.926C90.7574 29.5152 90.4463 29.0281 90.2233 28.4647C90.0003 27.8896 89.8888 27.2616 89.8888 26.5808C89.8888 25.8766 89.9885 25.2251 90.1881 24.6265C90.3994 24.0162 90.7045 23.4938 91.1036 23.0596C91.5027 22.6135 91.9898 22.2673 92.5649 22.0208C93.1401 21.7743 93.7974 21.6511 94.5368 21.6511C95.0768 21.6511 95.5932 21.7215 96.0862 21.8623C96.5909 22.0032 97.0369 22.2203 97.4243 22.5138C97.8233 22.7955 98.1461 23.1535 98.3926 23.5877C98.6391 24.022 98.78 24.5268 98.8152 25.1019H96.3679C96.2036 24.0572 95.5873 23.5349 94.5192 23.5349C94.1202 23.5349 93.7856 23.6288 93.5157 23.8166C93.2457 23.9927 93.0227 24.2274 92.8466 24.5209C92.6823 24.8026 92.5649 25.1195 92.4945 25.4716C92.4241 25.8237 92.3889 26.1641 92.3889 26.4928C92.3889 26.8214 92.4241 27.156 92.4945 27.4963C92.5649 27.8367 92.6764 28.1478 92.829 28.4295C92.9934 28.6994 93.2105 28.9225 93.4805 29.0985C93.7504 29.2746 94.0791 29.3626 94.4664 29.3626C95.065 29.3626 95.5228 29.1983 95.8397 28.8696C96.1684 28.5292 96.3738 28.0774 96.4559 27.514H98.868C98.7037 28.7229 98.2342 29.6443 97.4595 30.2781C96.6848 30.912 95.693 31.2289 94.484 31.2289ZM104.353 29.1161H105.445C105.574 28.8579 105.703 28.5351 105.832 28.1478C105.973 27.7604 106.096 27.3262 106.202 26.8449C106.319 26.3637 106.413 25.8414 106.483 25.278C106.554 24.7146 106.589 24.1218 106.589 23.4997V21.8975H113.86V29.1161H115.04V33.5001H112.698V31H106.695V33.5001H104.353V29.1161ZM111.36 29.1161V23.7638H108.913V23.9927C108.913 24.5561 108.878 25.096 108.807 25.6125C108.749 26.1289 108.667 26.6102 108.561 27.0562C108.455 27.4905 108.344 27.8837 108.226 28.2358C108.109 28.5879 107.998 28.8814 107.892 29.1161H111.36ZM116.167 21.8975H118.667V25.2075H122.206V21.8975H124.706V31H122.206V27.1794H118.667V31H116.167V21.8975ZM128.541 27.5844C127.895 27.4787 127.367 27.1677 126.956 26.6512C126.557 26.1348 126.357 25.501 126.357 24.7498C126.357 24.3507 126.428 23.981 126.569 23.6406C126.721 23.2884 126.932 22.9833 127.202 22.725C127.472 22.4668 127.789 22.2673 128.153 22.1264C128.517 21.9738 128.922 21.8975 129.368 21.8975H134.879V31H132.379V27.7957H131.199L128.717 31H125.653L128.541 27.5844ZM132.379 23.711H130.389C129.814 23.711 129.421 23.8166 129.21 24.0279C128.998 24.2274 128.893 24.4974 128.893 24.8378C128.893 25.1899 128.992 25.4716 129.192 25.6829C129.403 25.8942 129.802 25.9998 130.389 25.9998H132.379V23.711Z" fill="white"/>
</svg>
