<svg width="206" height="49" viewBox="0 0 206 49" fill="none" xmlns="http://www.w3.org/2000/svg">
<rect x="3.40683" y="3.40683" width="200.16" height="40.683" rx="20.3415" fill="black" stroke="black" stroke-width="0.81366"/>
<path d="M44.9507 19.8975H53.3137V29H50.8136V21.7814H47.4508V29H44.9507V19.8975ZM59.6345 29.2289C58.9185 29.2289 58.273 29.1174 57.6978 28.8944C57.1227 28.6713 56.6297 28.3544 56.2189 27.9436C55.8081 27.5211 55.4912 27.0164 55.2682 26.4295C55.0452 25.8426 54.9336 25.1853 54.9336 24.4576C54.9336 23.7298 55.0452 23.0725 55.2682 22.4857C55.4912 21.8871 55.8081 21.3823 56.2189 20.9715C56.6297 20.549 57.1227 20.2262 57.6978 20.0032C58.273 19.7684 58.9185 19.6511 59.6345 19.6511C60.3505 19.6511 60.9961 19.7684 61.5712 20.0032C62.1581 20.2262 62.6569 20.549 63.0678 20.9715C63.4786 21.3823 63.7955 21.8871 64.0185 22.4857C64.2415 23.0725 64.353 23.7298 64.353 24.4576C64.353 25.1853 64.2415 25.8426 64.0185 26.4295C63.7955 27.0164 63.4786 27.5211 63.0678 27.9436C62.6569 28.3544 62.1581 28.6713 61.5712 28.8944C60.9961 29.1174 60.3505 29.2289 59.6345 29.2289ZM59.6345 27.3626C60.0571 27.3626 60.4092 27.2805 60.6909 27.1161C60.9843 26.9518 61.2132 26.7347 61.3776 26.4647C61.5536 26.183 61.6769 25.8719 61.7473 25.5316C61.8177 25.1794 61.8529 24.8214 61.8529 24.4576C61.8529 24.0937 61.8177 23.7357 61.7473 23.3836C61.6769 23.0315 61.5536 22.7204 61.3776 22.4505C61.2132 22.1805 60.9843 21.9633 60.6909 21.799C60.4092 21.623 60.0571 21.5349 59.6345 21.5349C59.212 21.5349 58.8599 21.623 58.5782 21.799C58.2965 21.9633 58.0676 22.1805 57.8915 22.4505C57.7272 22.7204 57.6098 23.0315 57.5394 23.3836C57.469 23.7357 57.4337 24.0937 57.4337 24.4576C57.4337 24.8214 57.469 25.1794 57.5394 25.5316C57.6098 25.8719 57.7272 26.183 57.8915 26.4647C58.0676 26.7347 58.2965 26.9518 58.5782 27.1161C58.8599 27.2805 59.212 27.3626 59.6345 27.3626ZM69.6759 29.2289C69.1008 29.2289 68.555 29.1702 68.0385 29.0528C67.5338 28.9472 67.0878 28.7652 66.7004 28.507C66.3131 28.2488 66.0021 27.9201 65.7673 27.5211C65.5443 27.122 65.4269 26.629 65.4152 26.0421H67.792C67.839 26.5351 68.0268 26.9107 68.3554 27.1689C68.6958 27.4272 69.1536 27.5563 69.7287 27.5563C70.2921 27.5563 70.7029 27.4389 70.9612 27.2042C71.2194 26.9694 71.3485 26.6818 71.3485 26.3414C71.3485 25.9658 71.2253 25.6607 70.9788 25.4259C70.744 25.1912 70.3449 25.0738 69.7815 25.0738H68.8132V23.5068H69.4646C69.9928 23.5068 70.4095 23.4247 70.7147 23.2603C71.0316 23.096 71.19 22.785 71.19 22.3272C71.19 22.0572 71.0727 21.8225 70.8379 21.623C70.6149 21.4117 70.2569 21.306 69.7639 21.306C69.2592 21.306 68.8601 21.3941 68.5667 21.5701C68.285 21.7345 68.1089 22.0631 68.0385 22.5561H65.7145C65.7614 22.0279 65.9023 21.5819 66.137 21.218C66.3835 20.8424 66.6887 20.5431 67.0526 20.3201C67.4282 20.0853 67.8507 19.9151 68.3202 19.8095C68.8015 19.7039 69.3003 19.6511 69.8167 19.6511C71.0257 19.6511 71.9588 19.8506 72.6162 20.2497C73.2852 20.637 73.6197 21.2532 73.6197 22.0983C73.6197 22.3683 73.5669 22.6207 73.4613 22.8554C73.3674 23.0784 73.2441 23.278 73.0915 23.454C72.9389 23.6301 72.7629 23.7768 72.5633 23.8942C72.3638 23.9998 72.1701 24.0702 71.9823 24.1054V24.1407C72.1936 24.1641 72.4107 24.217 72.6338 24.2991C72.8685 24.3695 73.0798 24.4928 73.2676 24.6689C73.4554 24.8332 73.608 25.0503 73.7253 25.3203C73.8545 25.5785 73.919 25.9072 73.919 26.3062C73.919 26.7992 73.8134 27.2276 73.6021 27.5915C73.4026 27.9554 73.115 28.2605 72.7394 28.507C72.3755 28.7535 71.9295 28.9354 71.4013 29.0528C70.8849 29.1702 70.3097 29.2289 69.6759 29.2289ZM74.6936 27.1161H75.7851C75.9143 26.8579 76.0434 26.5351 76.1725 26.1478C76.3133 25.7604 76.4366 25.3262 76.5422 24.8449C76.6596 24.3637 76.7535 23.8414 76.8239 23.278C76.8943 22.7146 76.9296 22.1218 76.9296 21.4997V19.8975H84.201V27.1161H85.3806V31.5001H83.0389V29H77.0352V31.5001H74.6936V27.1161ZM81.7009 27.1161V21.7638H79.2536V21.9927C79.2536 22.5561 79.2184 23.096 79.148 23.6125C79.0893 24.1289 79.0071 24.6102 78.9015 25.0562C78.7958 25.4905 78.6843 25.8837 78.5669 26.2358C78.4496 26.5879 78.3381 26.8814 78.2324 27.1161H81.7009ZM86.5078 19.8975H89.0079V23.2075H92.5468V19.8975H95.0468V29H92.5468V25.1794H89.0079V29H86.5078V19.8975ZM101.364 29.2289C100.648 29.2289 100.002 29.1174 99.4268 28.8944C98.8517 28.6713 98.3587 28.3544 97.9479 27.9436C97.5371 27.5211 97.2202 27.0164 96.9972 26.4295C96.7741 25.8426 96.6626 25.1853 96.6626 24.4576C96.6626 23.7298 96.7741 23.0725 96.9972 22.4857C97.2202 21.8871 97.5371 21.3823 97.9479 20.9715C98.3587 20.549 98.8517 20.2262 99.4268 20.0032C100.002 19.7684 100.648 19.6511 101.364 19.6511C102.08 19.6511 102.725 19.7684 103.3 20.0032C103.887 20.2262 104.386 20.549 104.797 20.9715C105.208 21.3823 105.524 21.8871 105.747 22.4857C105.971 23.0725 106.082 23.7298 106.082 24.4576C106.082 25.1853 105.971 25.8426 105.747 26.4295C105.524 27.0164 105.208 27.5211 104.797 27.9436C104.386 28.3544 103.887 28.6713 103.3 28.8944C102.725 29.1174 102.08 29.2289 101.364 29.2289ZM101.364 27.3626C101.786 27.3626 102.138 27.2805 102.42 27.1161C102.713 26.9518 102.942 26.7347 103.107 26.4647C103.283 26.183 103.406 25.8719 103.476 25.5316C103.547 25.1794 103.582 24.8214 103.582 24.4576C103.582 24.0937 103.547 23.7357 103.476 23.3836C103.406 23.0315 103.283 22.7204 103.107 22.4505C102.942 22.1805 102.713 21.9633 102.42 21.799C102.138 21.623 101.786 21.5349 101.364 21.5349C100.941 21.5349 100.589 21.623 100.307 21.799C100.025 21.9633 99.7966 22.1805 99.6205 22.4505C99.4562 22.7204 99.3388 23.0315 99.2684 23.3836C99.1979 23.7357 99.1627 24.0937 99.1627 24.4576C99.1627 24.8214 99.1979 25.1794 99.2684 25.5316C99.3388 25.8719 99.4562 26.183 99.6205 26.4647C99.7966 26.7347 100.025 26.9518 100.307 27.1161C100.589 27.2805 100.941 27.3626 101.364 27.3626ZM112.608 19.8975H115.108V23.2075H118.647V19.8975H121.147V29H118.647V25.1794H115.108V29H112.608V19.8975ZM127.463 29.2289C126.747 29.2289 126.102 29.1174 125.527 28.8944C124.952 28.6713 124.459 28.3544 124.048 27.9436C123.637 27.5211 123.32 27.0164 123.097 26.4295C122.874 25.8426 122.763 25.1853 122.763 24.4576C122.763 23.7298 122.874 23.0725 123.097 22.4857C123.32 21.8871 123.637 21.3823 124.048 20.9715C124.459 20.549 124.952 20.2262 125.527 20.0032C126.102 19.7684 126.747 19.6511 127.463 19.6511C128.179 19.6511 128.825 19.7684 129.4 20.0032C129.987 20.2262 130.486 20.549 130.897 20.9715C131.308 21.3823 131.624 21.8871 131.847 22.4857C132.07 23.0725 132.182 23.7298 132.182 24.4576C132.182 25.1853 132.07 25.8426 131.847 26.4295C131.624 27.0164 131.308 27.5211 130.897 27.9436C130.486 28.3544 129.987 28.6713 129.4 28.8944C128.825 29.1174 128.179 29.2289 127.463 29.2289ZM127.463 27.3626C127.886 27.3626 128.238 27.2805 128.52 27.1161C128.813 26.9518 129.042 26.7347 129.207 26.4647C129.383 26.183 129.506 25.8719 129.576 25.5316C129.647 25.1794 129.682 24.8214 129.682 24.4576C129.682 24.0937 129.647 23.7357 129.576 23.3836C129.506 23.0315 129.383 22.7204 129.207 22.4505C129.042 22.1805 128.813 21.9633 128.52 21.799C128.238 21.623 127.886 21.5349 127.463 21.5349C127.041 21.5349 126.689 21.623 126.407 21.799C126.125 21.9633 125.897 22.1805 125.72 22.4505C125.556 22.7204 125.439 23.0315 125.368 23.3836C125.298 23.7357 125.263 24.0937 125.263 24.4576C125.263 24.8214 125.298 25.1794 125.368 25.5316C125.439 25.8719 125.556 26.183 125.72 26.4647C125.897 26.7347 126.125 26.9518 126.407 27.1161C126.689 27.2805 127.041 27.3626 127.463 27.3626ZM139.512 25.6548C139.277 25.7252 138.931 25.8133 138.473 25.9189C138.015 26.0128 137.54 26.0597 137.047 26.0597C135.803 26.0597 134.911 25.7722 134.371 25.197C133.831 24.6219 133.561 23.8414 133.561 22.8554V19.8975H136.044V22.3448C136.044 23.0139 136.173 23.4775 136.431 23.7357C136.689 23.9939 137.112 24.1231 137.699 24.1231C138.062 24.1231 138.403 24.0937 138.72 24.035C139.037 23.9763 139.301 23.9176 139.512 23.859V19.8975H142.012V29H139.512V25.6548ZM143.917 19.8975H146.417V23.0315H148.83C149.287 23.0315 149.716 23.096 150.115 23.2251C150.526 23.3425 150.878 23.5303 151.171 23.7885C151.476 24.035 151.717 24.3461 151.893 24.7217C152.069 25.0855 152.157 25.514 152.157 26.0069C152.157 26.5116 152.069 26.9518 151.893 27.3274C151.729 27.703 151.488 28.014 151.171 28.2605C150.866 28.507 150.502 28.6948 150.08 28.8239C149.669 28.9413 149.217 29 148.724 29H143.917V19.8975ZM148.125 27.2746C148.583 27.2746 148.947 27.1748 149.217 26.9753C149.499 26.7757 149.639 26.453 149.639 26.0069C149.639 25.5609 149.493 25.2381 149.199 25.0386C148.906 24.8273 148.542 24.7217 148.108 24.7217H146.417V27.2746H148.125ZM162.225 29.2289C160.922 29.2289 159.89 28.865 159.127 28.1373C158.375 27.4096 157.941 26.406 157.824 25.1266H156.063V29H153.563V19.8975H156.063V23.366H157.877C158.064 22.2274 158.534 21.3237 159.285 20.6546C160.036 19.9856 161.028 19.6511 162.261 19.6511C162.941 19.6511 163.552 19.7684 164.092 20.0032C164.632 20.2262 165.089 20.549 165.465 20.9715C165.84 21.3941 166.128 21.9047 166.328 22.5033C166.539 23.0902 166.645 23.7416 166.645 24.4576C166.645 25.1853 166.539 25.8426 166.328 26.4295C166.128 27.0164 165.84 27.5211 165.465 27.9436C165.089 28.3544 164.626 28.6713 164.074 28.8944C163.522 29.1174 162.906 29.2289 162.225 29.2289ZM162.225 27.3626C162.859 27.3626 163.335 27.1161 163.651 26.6231C163.98 26.1184 164.144 25.3907 164.144 24.44C164.144 23.5244 163.974 22.8143 163.634 22.3096C163.305 21.7932 162.824 21.5349 162.19 21.5349C161.58 21.5349 161.11 21.7932 160.782 22.3096C160.453 22.8261 160.289 23.542 160.289 24.4576C160.289 25.4083 160.453 26.1302 160.782 26.6231C161.11 27.1161 161.592 27.3626 162.225 27.3626Z" fill="white"/>
</svg>
