<svg width="206" height="49" viewBox="0 0 206 49" fill="none" xmlns="http://www.w3.org/2000/svg">
<rect x="4" y="4" width="198.974" height="39.4967" rx="19.7483" fill="white" stroke="black" stroke-width="2"/>
<path d="M53.9507 17.8975H56.3276V19.0596H56.3628C56.668 18.5666 57.0553 18.2086 57.5248 17.9856C57.9943 17.7626 58.5108 17.6511 59.0742 17.6511C59.7902 17.6511 60.4064 17.786 60.9228 18.056C61.4393 18.326 61.8677 18.684 62.2081 19.13C62.5485 19.576 62.8008 20.0983 62.9652 20.6969C63.1295 21.2838 63.2117 21.9 63.2117 22.5456C63.2117 23.156 63.1295 23.7428 62.9652 24.3062C62.8008 24.8696 62.5485 25.3685 62.2081 25.8028C61.8794 26.2371 61.4628 26.5833 60.958 26.8415C60.4651 27.0998 59.8841 27.2289 59.215 27.2289C58.6516 27.2289 58.1293 27.1174 57.6481 26.8944C57.1786 26.6596 56.7912 26.3192 56.486 25.8732H56.4508V30.1867H53.9507V17.8975ZM58.546 25.3626C58.9568 25.3626 59.2972 25.2805 59.5671 25.1161C59.8489 24.9518 60.0719 24.7405 60.2362 24.4823C60.4123 24.2123 60.5355 23.9072 60.6059 23.5668C60.6763 23.2146 60.7116 22.8508 60.7116 22.4752C60.7116 22.1113 60.6705 21.7533 60.5883 21.4012C60.5179 21.0491 60.3946 20.738 60.2186 20.4681C60.0425 20.1864 59.8136 19.9633 59.5319 19.799C59.262 19.623 58.9275 19.5349 58.5284 19.5349C58.1176 19.5349 57.7713 19.623 57.4896 19.799C57.2196 19.9633 56.9966 20.1805 56.8206 20.4505C56.6562 20.7204 56.5389 21.0373 56.4684 21.4012C56.398 21.7533 56.3628 22.1113 56.3628 22.4752C56.3628 22.8508 56.398 23.2146 56.4684 23.5668C56.5506 23.9072 56.6738 24.2123 56.8382 24.4823C57.0142 24.7405 57.2372 24.9518 57.5072 25.1161C57.7889 25.2805 58.1352 25.3626 58.546 25.3626ZM67.4253 27.2289C66.991 27.2289 66.5861 27.1761 66.2105 27.0704C65.8349 26.9648 65.5062 26.8005 65.2245 26.5774C64.9428 26.3544 64.7198 26.0727 64.5555 25.7323C64.4029 25.392 64.3266 24.987 64.3266 24.5175C64.3266 24.0011 64.4147 23.5785 64.5907 23.2499C64.7785 22.9095 65.0133 22.6395 65.295 22.44C65.5884 22.2404 65.9171 22.0937 66.2809 21.9998C66.6565 21.8942 67.0321 21.812 67.4077 21.7533C67.7833 21.6946 68.1531 21.6477 68.5169 21.6125C68.8808 21.5773 69.2036 21.5244 69.4853 21.454C69.767 21.3836 69.99 21.2838 70.1543 21.1547C70.3186 21.0139 70.3949 20.8143 70.3832 20.5561C70.3832 20.2979 70.3362 20.0866 70.2423 19.9223C70.1602 19.7579 70.0428 19.6347 69.8902 19.5525C69.7494 19.4586 69.5792 19.3999 69.3796 19.3765C69.1918 19.3413 68.9864 19.3237 68.7634 19.3237C68.2704 19.3237 67.8831 19.4293 67.6014 19.6406C67.3197 19.8518 67.1554 20.204 67.1084 20.6969H64.6083C64.6435 20.1218 64.7903 19.6406 65.0485 19.2532C65.3067 18.8542 65.6354 18.5372 66.0344 18.3025C66.4335 18.0677 66.8795 17.9034 67.3725 17.8095C67.8655 17.7039 68.3702 17.6511 68.8867 17.6511C69.3444 17.6511 69.8081 17.6863 70.2776 17.7567C70.7471 17.8154 71.1755 17.9386 71.5628 18.1264C71.9502 18.3142 72.2671 18.5783 72.5136 18.9187C72.76 19.2591 72.8833 19.6993 72.8833 20.2392V24.9753C72.8833 25.3861 72.9068 25.7793 72.9537 26.1549C73.0007 26.5305 73.0828 26.8122 73.2002 27H70.6649C70.6179 26.8591 70.5769 26.7183 70.5417 26.5774C70.5182 26.4249 70.5006 26.2723 70.4888 26.1197C70.0898 26.5305 69.6203 26.8181 69.0803 26.9824C68.5404 27.1467 67.9887 27.2289 67.4253 27.2289ZM68.3585 25.5739C68.8514 25.5739 69.2329 25.4917 69.5029 25.3274C69.7728 25.1631 69.9724 24.9694 70.1015 24.7464C70.2306 24.5116 70.3069 24.2769 70.3304 24.0421C70.3656 23.8074 70.3832 23.6196 70.3832 23.4787V22.5456C70.2776 22.6395 70.1484 22.7158 69.9959 22.7745C69.8433 22.8214 69.6731 22.8625 69.4853 22.8977C69.2975 22.9329 69.1038 22.9623 68.9043 22.9858C68.7047 23.0092 68.5052 23.0386 68.3057 23.0738C68.1061 23.109 67.9183 23.156 67.7422 23.2146C67.5662 23.2733 67.4077 23.3555 67.2669 23.4611C67.1378 23.555 67.0321 23.6783 66.95 23.8309C66.8678 23.9835 66.8267 24.1771 66.8267 24.4119C66.8267 24.6466 66.8678 24.8403 66.95 24.9929C67.0321 25.1337 67.1436 25.2511 67.2845 25.345C67.4253 25.4272 67.5897 25.4859 67.7775 25.5211C67.9653 25.5563 68.1589 25.5739 68.3585 25.5739ZM74.8238 17.8975H77.3239V21.2075H80.8628V17.8975H83.3629V27H80.8628V23.1794H77.3239V27H74.8238V17.8975ZM89.6796 27.2289C88.9636 27.2289 88.318 27.1174 87.7429 26.8944C87.1677 26.6713 86.6748 26.3544 86.2639 25.9436C85.8531 25.5211 85.5362 25.0164 85.3132 24.4295C85.0902 23.8426 84.9787 23.1853 84.9787 22.4576C84.9787 21.7298 85.0902 21.0725 85.3132 20.4857C85.5362 19.8871 85.8531 19.3823 86.2639 18.9715C86.6748 18.549 87.1677 18.2262 87.7429 18.0032C88.318 17.7684 88.9636 17.6511 89.6796 17.6511C90.3955 17.6511 91.0411 17.7684 91.6163 18.0032C92.2031 18.2262 92.702 18.549 93.1128 18.9715C93.5236 19.3823 93.8405 19.8871 94.0635 20.4857C94.2865 21.0725 94.398 21.7298 94.398 22.4576C94.398 23.1853 94.2865 23.8426 94.0635 24.4295C93.8405 25.0164 93.5236 25.5211 93.1128 25.9436C92.702 26.3544 92.2031 26.6713 91.6163 26.8944C91.0411 27.1174 90.3955 27.2289 89.6796 27.2289ZM89.6796 25.3626C90.1021 25.3626 90.4542 25.2805 90.7359 25.1161C91.0294 24.9518 91.2583 24.7347 91.4226 24.4647C91.5986 24.183 91.7219 23.8719 91.7923 23.5316C91.8627 23.1794 91.898 22.8214 91.898 22.4576C91.898 22.0937 91.8627 21.7357 91.7923 21.3836C91.7219 21.0315 91.5986 20.7204 91.4226 20.4505C91.2583 20.1805 91.0294 19.9633 90.7359 19.799C90.4542 19.623 90.1021 19.5349 89.6796 19.5349C89.257 19.5349 88.9049 19.623 88.6232 19.799C88.3415 19.9633 88.1126 20.1805 87.9365 20.4505C87.7722 20.7204 87.6548 21.0315 87.5844 21.3836C87.514 21.7357 87.4788 22.0937 87.4788 22.4576C87.4788 22.8214 87.514 23.1794 87.5844 23.5316C87.6548 23.8719 87.7722 24.183 87.9365 24.4647C88.1126 24.7347 88.3415 24.9518 88.6232 25.1161C88.9049 25.2805 89.257 25.3626 89.6796 25.3626ZM102.279 30.1867C102.021 30.1867 101.763 30.175 101.505 30.1515C101.258 30.1398 101.006 30.1222 100.748 30.0987V28.0388C100.947 28.0622 101.153 28.0799 101.364 28.0916C101.587 28.1151 101.804 28.1268 102.015 28.1268C102.391 28.1268 102.679 28.0212 102.878 27.8099C103.078 27.5986 103.177 27.3287 103.177 27C103.177 26.8005 103.142 26.6127 103.072 26.4366L99.885 17.8975H102.544L104.604 24.1302H104.639L106.628 17.8975H109.216L105.413 28.1268C105.143 28.8663 104.768 29.3945 104.287 29.7114C103.805 30.0283 103.136 30.1867 102.279 30.1867ZM112.272 19.7814H109.279V17.8975H117.765V19.7814H114.772V27H112.272V19.7814ZM118.891 17.8975H121.268V19.0596H121.303C121.608 18.5666 121.996 18.2086 122.465 17.9856C122.935 17.7626 123.451 17.6511 124.015 17.6511C124.731 17.6511 125.347 17.786 125.863 18.056C126.38 18.326 126.808 18.684 127.149 19.13C127.489 19.576 127.741 20.0983 127.906 20.6969C128.07 21.2838 128.152 21.9 128.152 22.5456C128.152 23.156 128.07 23.7428 127.906 24.3062C127.741 24.8696 127.489 25.3685 127.149 25.8028C126.82 26.2371 126.403 26.5833 125.898 26.8415C125.405 27.0998 124.824 27.2289 124.155 27.2289C123.592 27.2289 123.07 27.1174 122.588 26.8944C122.119 26.6596 121.732 26.3192 121.426 25.8732H121.391V30.1867H118.891V17.8975ZM123.486 25.3626C123.897 25.3626 124.238 25.2805 124.508 25.1161C124.789 24.9518 125.012 24.7405 125.177 24.4823C125.353 24.2123 125.476 23.9072 125.546 23.5668C125.617 23.2146 125.652 22.8508 125.652 22.4752C125.652 22.1113 125.611 21.7533 125.529 21.4012C125.458 21.0491 125.335 20.738 125.159 20.4681C124.983 20.1864 124.754 19.9633 124.472 19.799C124.202 19.623 123.868 19.5349 123.469 19.5349C123.058 19.5349 122.712 19.623 122.43 19.799C122.16 19.9633 121.937 20.1805 121.761 20.4505C121.597 20.7204 121.479 21.0373 121.409 21.4012C121.338 21.7533 121.303 22.1113 121.303 22.4752C121.303 22.8508 121.338 23.2146 121.409 23.5668C121.491 23.9072 121.614 24.2123 121.779 24.4823C121.955 24.7405 122.178 24.9518 122.448 25.1161C122.729 25.2805 123.076 25.3626 123.486 25.3626ZM134.074 27.2289C133.358 27.2289 132.712 27.1174 132.137 26.8944C131.562 26.6713 131.069 26.3544 130.658 25.9436C130.247 25.5211 129.93 25.0164 129.707 24.4295C129.484 23.8426 129.373 23.1853 129.373 22.4576C129.373 21.7298 129.484 21.0725 129.707 20.4857C129.93 19.8871 130.247 19.3823 130.658 18.9715C131.069 18.549 131.562 18.2262 132.137 18.0032C132.712 17.7684 133.358 17.6511 134.074 17.6511C134.79 17.6511 135.435 17.7684 136.01 18.0032C136.597 18.2262 137.096 18.549 137.507 18.9715C137.918 19.3823 138.235 19.8871 138.458 20.4857C138.681 21.0725 138.792 21.7298 138.792 22.4576C138.792 23.1853 138.681 23.8426 138.458 24.4295C138.235 25.0164 137.918 25.5211 137.507 25.9436C137.096 26.3544 136.597 26.6713 136.01 26.8944C135.435 27.1174 134.79 27.2289 134.074 27.2289ZM134.074 25.3626C134.496 25.3626 134.848 25.2805 135.13 25.1161C135.423 24.9518 135.652 24.7347 135.817 24.4647C135.993 24.183 136.116 23.8719 136.186 23.5316C136.257 23.1794 136.292 22.8214 136.292 22.4576C136.292 22.0937 136.257 21.7357 136.186 21.3836C136.116 21.0315 135.993 20.7204 135.817 20.4505C135.652 20.1805 135.423 19.9633 135.13 19.799C134.848 19.623 134.496 19.5349 134.074 19.5349C133.651 19.5349 133.299 19.623 133.017 19.799C132.735 19.9633 132.507 20.1805 132.331 20.4505C132.166 20.7204 132.049 21.0315 131.978 21.3836C131.908 21.7357 131.873 22.0937 131.873 22.4576C131.873 22.8214 131.908 23.1794 131.978 23.5316C132.049 23.8719 132.166 24.183 132.331 24.4647C132.507 24.7347 132.735 24.9518 133.017 25.1161C133.299 25.2805 133.651 25.3626 134.074 25.3626ZM140.418 17.8975H144.045L145.928 24.5175H145.999L147.883 17.8975H151.51V27H149.15V20.0807H149.098L147.143 27H144.784L142.83 20.0807H142.777V27H140.418V17.8975Z" fill="black"/>
</svg>
