<svg width="60" height="65" viewBox="0 0 60 65" fill="none" xmlns="http://www.w3.org/2000/svg">
<circle cx="30.1021" cy="33.4376" r="27.1021" fill="black"/>
<path d="M27.0695 31.0737V34.6161C27.8567 34.5177 28.6932 34.4685 29.5788 34.4685C30.6284 34.4685 31.596 34.6161 32.4816 34.9113C33.4 35.1737 34.1872 35.6001 34.8433 36.1906C35.4993 36.7482 36.0241 37.4534 36.4177 38.3062C36.8113 39.1262 37.0081 40.0774 37.0081 41.1598C37.0081 42.2095 36.7949 43.1607 36.3685 44.0135C35.9749 44.8335 35.4337 45.5387 34.7449 46.1291C34.056 46.6867 33.2524 47.1295 32.334 47.4575C31.4156 47.7527 30.448 47.9003 29.4312 47.9003C27.0367 47.9003 25.2163 47.1951 23.9699 45.7847C22.7235 44.3415 22.0674 42.4883 22.0018 40.225H17.8198C17.787 42.0291 18.033 43.6363 18.5578 45.0467C19.1154 46.4571 19.9026 47.6543 20.9194 48.6384C21.9362 49.5896 23.1663 50.3112 24.6095 50.8032C26.0527 51.2952 27.6599 51.5412 29.4312 51.5412C31.0712 51.5412 32.6128 51.328 34.056 50.9016C35.5321 50.4424 36.8113 49.77 37.8937 48.8844C38.9761 47.9988 39.8289 46.8999 40.4521 45.5879C41.1082 44.2431 41.4362 42.7015 41.4362 40.963C41.4362 38.8638 40.9114 37.0434 39.8617 35.5017C38.8449 33.9601 37.2705 32.9597 35.1385 32.5005V32.4021C36.5161 31.7789 37.6641 30.8605 38.5825 29.6468C39.5009 28.4332 39.9601 27.0392 39.9601 25.4648C39.9601 23.8576 39.6813 22.4635 39.1237 21.2827C38.5989 20.1019 37.8609 19.1343 36.9097 18.3799C35.9585 17.6254 34.8269 17.0678 33.5148 16.707C32.2356 16.3134 30.8416 16.1166 29.3328 16.1166C27.5943 16.1166 26.0527 16.3954 24.7079 16.953C23.3959 17.5106 22.297 18.2815 21.4114 19.2655C20.5258 20.2495 19.837 21.4303 19.345 22.8079C18.8858 24.1856 18.6234 25.7108 18.5578 27.3836H22.7399C22.7399 26.3668 22.8711 25.3992 23.1335 24.4808C23.3959 23.5623 23.7895 22.7587 24.3143 22.0699C24.8719 21.3811 25.5607 20.8399 26.3807 20.4463C27.2335 20.0199 28.2175 19.8067 29.3328 19.8067C31.104 19.8067 32.58 20.2823 33.7608 21.2335C34.9417 22.1519 35.5321 23.5459 35.5321 25.4156C35.5321 26.334 35.3517 27.154 34.9909 27.8756C34.6301 28.5972 34.138 29.204 33.5148 29.696C32.9244 30.1553 32.2192 30.5161 31.3992 30.7785C30.612 31.0081 29.7756 31.1229 28.89 31.1229H28.0043C27.8403 31.1229 27.6763 31.1229 27.5123 31.1229C27.3811 31.1229 27.2335 31.1065 27.0695 31.0737Z" fill="white"/>
</svg>
