<svg width="60" height="65" viewBox="0 0 60 65" fill="none" xmlns="http://www.w3.org/2000/svg">
<circle cx="30.1021" cy="33.4376" r="27.1021" fill="black"/>
<path d="M39.4681 20.3971V16.707H22.2478L19.0006 34.8129L22.5923 35.0097C23.4123 34.0257 24.3471 33.2385 25.3967 32.6481C26.4791 32.0249 27.7091 31.7133 29.0868 31.7133C30.2676 31.7133 31.3336 31.9101 32.2848 32.3037C33.2688 32.6973 34.1052 33.2549 34.7941 33.9765C35.4829 34.6653 36.0077 35.5017 36.3685 36.4858C36.7621 37.437 36.9589 38.4866 36.9589 39.6346C36.9589 41.0122 36.7621 42.2259 36.3685 43.2755C35.9749 44.2923 35.4337 45.1451 34.7449 45.8339C34.0888 46.5227 33.3016 47.0475 32.3832 47.4083C31.4976 47.7363 30.5628 47.9003 29.5788 47.9003C28.5292 47.9003 27.5615 47.7527 26.6759 47.4575C25.8231 47.1295 25.0687 46.6867 24.4127 46.1291C23.7895 45.5387 23.2811 44.8663 22.8875 44.1119C22.5267 43.3247 22.3134 42.4883 22.2478 41.6026H18.0658C18.0986 43.1771 18.4102 44.5875 19.0006 45.8339C19.591 47.0803 20.3946 48.13 21.4114 48.9828C22.4283 49.8028 23.5927 50.4424 24.9047 50.9016C26.2495 51.328 27.6763 51.5412 29.1852 51.5412C31.2188 51.5412 32.99 51.2296 34.4988 50.6064C36.0405 49.9504 37.3197 49.0812 38.3365 47.9988C39.3533 46.9163 40.1077 45.6863 40.5998 44.3087C41.1246 42.8983 41.387 41.455 41.387 39.979C41.387 37.9782 41.0918 36.2398 40.5013 34.7637C39.9109 33.2549 39.1073 32.0085 38.0905 31.0245C37.0737 30.0077 35.8765 29.2532 34.4988 28.7612C33.1212 28.2692 31.6616 28.0232 30.12 28.0232C28.9392 28.0232 27.7419 28.2364 26.5283 28.6628C25.3475 29.0564 24.3799 29.6796 23.6255 30.5325L23.5271 30.4341L25.3967 20.3971H39.4681Z" fill="white"/>
</svg>
