<svg width="60" height="65" viewBox="0 0 60 65" fill="none" xmlns="http://www.w3.org/2000/svg">
<circle cx="30.1021" cy="33.4376" r="27.1021" fill="black"/>
<path d="M36.7129 25.022H40.895C40.6326 22.1355 39.6485 19.9379 37.9429 18.4291C36.2373 16.8874 33.9412 16.1166 31.0548 16.1166C28.562 16.1166 26.4955 16.6414 24.8555 17.691C23.2155 18.7407 21.9034 20.1347 20.9194 21.8731C19.9354 23.6115 19.2302 25.6124 18.8038 27.8756C18.4102 30.1061 18.2134 32.4185 18.2134 34.8129C18.2134 36.6498 18.3446 38.5522 18.607 40.5202C18.9022 42.4883 19.4762 44.2923 20.329 45.9323C21.1818 47.5723 22.3954 48.9172 23.9699 49.9668C25.5443 51.0164 27.6271 51.5412 30.2184 51.5412C32.416 51.5412 34.2528 51.1804 35.7289 50.4588C37.2377 49.7044 38.4349 48.7696 39.3205 47.6543C40.2389 46.5063 40.895 45.2435 41.2886 43.8659C41.6822 42.4883 41.879 41.1598 41.879 39.8806C41.879 38.2734 41.633 36.781 41.141 35.4033C40.649 34.0257 39.9437 32.8285 39.0253 31.8117C38.1397 30.7949 37.0245 30.0077 35.6797 29.45C34.3676 28.8596 32.8752 28.5644 31.2024 28.5644C29.3 28.5644 27.6107 28.9252 26.1347 29.6468C24.6915 30.3685 23.4779 31.5329 22.4939 33.1401L22.3954 33.0417C22.4283 31.6969 22.5595 30.2537 22.7891 28.712C23.0187 27.1704 23.4287 25.7436 24.0191 24.4316C24.6423 23.0867 25.4951 21.9879 26.5775 21.1351C27.6599 20.2495 29.0868 19.8067 30.858 19.8067C32.5308 19.8067 33.8756 20.2823 34.8925 21.2335C35.9093 22.1847 36.5161 23.4475 36.7129 25.022ZM30.4152 32.2545C31.596 32.2545 32.6292 32.4677 33.5148 32.8941C34.4004 33.3205 35.1385 33.8945 35.7289 34.6161C36.3193 35.3049 36.7457 36.1414 37.0081 37.1254C37.3033 38.0766 37.4509 39.0934 37.4509 40.1758C37.4509 41.1926 37.2869 42.1767 36.9589 43.1279C36.6637 44.0463 36.2209 44.8663 35.6305 45.5879C35.0401 46.3095 34.302 46.8835 33.4164 47.3099C32.5636 47.7035 31.5632 47.9003 30.4152 47.9003C29.2672 47.9003 28.2339 47.7035 27.3155 47.3099C26.4299 46.8835 25.6755 46.3259 25.0523 45.6371C24.4619 44.9483 24.0027 44.1283 23.6747 43.1771C23.3467 42.2259 23.1827 41.209 23.1827 40.1266C23.1827 39.0442 23.3303 38.0274 23.6255 37.0762C23.9535 36.0922 24.4291 35.2557 25.0523 34.5669C25.6755 33.8453 26.4299 33.2877 27.3155 32.8941C28.2011 32.4677 29.2344 32.2545 30.4152 32.2545Z" fill="white"/>
</svg>
