<svg width="334" height="78" viewBox="0 0 334 78" fill="none" xmlns="http://www.w3.org/2000/svg">
<rect width="333.333" height="77.5" fill="white"/>
<rect x="2.08333" y="2.08333" width="329.167" height="73.3333" rx="36.6667" fill="black" stroke="black" stroke-width="4.16667"/>
<path d="M115.95 35.4039H118.448V38.7115H121.985V35.4039H124.483V44.5H121.985V40.6821H118.448V44.5H115.95V35.4039ZM129.089 44.7287C128.655 44.7287 128.25 44.6759 127.875 44.5704C127.5 44.4648 127.171 44.3006 126.89 44.0777C126.608 43.8549 126.385 43.5734 126.221 43.2332C126.069 42.8931 125.992 42.4884 125.992 42.0192C125.992 41.5031 126.08 41.0809 126.256 40.7525C126.444 40.4123 126.678 40.1425 126.96 39.9431C127.253 39.7437 127.582 39.5971 127.945 39.5033C128.321 39.3977 128.696 39.3156 129.071 39.257C129.447 39.1983 129.816 39.1514 130.18 39.1162C130.543 39.081 130.866 39.0282 131.147 38.9579C131.429 38.8875 131.652 38.7878 131.816 38.6588C131.98 38.518 132.056 38.3186 132.045 38.0606C132.045 37.8025 131.998 37.5914 131.904 37.4272C131.822 37.263 131.705 37.1398 131.552 37.0577C131.411 36.9639 131.241 36.9052 131.042 36.8818C130.854 36.8466 130.649 36.829 130.426 36.829C129.933 36.829 129.546 36.9345 129.265 37.1457C128.983 37.3568 128.819 37.7087 128.772 38.2013H126.274C126.309 37.6266 126.456 37.1457 126.714 36.7586C126.972 36.3598 127.3 36.0431 127.699 35.8085C128.098 35.5739 128.543 35.4097 129.036 35.3159C129.529 35.2103 130.033 35.1575 130.549 35.1575C131.007 35.1575 131.47 35.1927 131.939 35.2631C132.408 35.3218 132.836 35.4449 133.223 35.6326C133.611 35.8203 133.927 36.0842 134.174 36.4243C134.42 36.7645 134.543 37.2043 134.543 37.7439V42.4767C134.543 42.8872 134.566 43.2801 134.613 43.6555C134.66 44.0308 134.742 44.3123 134.86 44.5H132.326C132.279 44.3592 132.238 44.2185 132.203 44.0777C132.18 43.9253 132.162 43.7728 132.15 43.6203C131.751 44.0308 131.282 44.3182 130.743 44.4824C130.203 44.6466 129.652 44.7287 129.089 44.7287ZM130.021 43.0749C130.514 43.0749 130.895 42.9928 131.165 42.8286C131.435 42.6644 131.634 42.4708 131.763 42.248C131.892 42.0134 131.968 41.7788 131.992 41.5442C132.027 41.3096 132.045 41.1219 132.045 40.9812V40.0487C131.939 40.1425 131.81 40.2188 131.658 40.2774C131.505 40.3243 131.335 40.3654 131.147 40.4006C130.96 40.4358 130.766 40.4651 130.567 40.4885C130.367 40.512 130.168 40.5413 129.969 40.5765C129.769 40.6117 129.582 40.6586 129.406 40.7173C129.23 40.7759 129.071 40.858 128.931 40.9636C128.802 41.0574 128.696 41.1806 128.614 41.3331C128.532 41.4855 128.491 41.6791 128.491 41.9137C128.491 42.1483 128.532 42.3418 128.614 42.4943C128.696 42.635 128.807 42.7523 128.948 42.8462C129.089 42.9283 129.253 42.9869 129.441 43.0221C129.628 43.0573 129.822 43.0749 130.021 43.0749ZM142.183 41.1571C141.948 41.2275 141.602 41.3155 141.145 41.421C140.687 41.5149 140.212 41.5618 139.72 41.5618C138.476 41.5618 137.585 41.2744 137.045 40.6997C136.506 40.1249 136.236 39.3449 136.236 38.3597V35.4039H138.717V37.8494C138.717 38.518 138.846 38.9813 139.104 39.2394C139.362 39.4974 139.784 39.6264 140.371 39.6264C140.734 39.6264 141.074 39.5971 141.391 39.5385C141.708 39.4798 141.972 39.4212 142.183 39.3625V35.4039H144.681V44.5H142.183V41.1571ZM149.295 44.7287C148.861 44.7287 148.456 44.6759 148.081 44.5704C147.705 44.4648 147.377 44.3006 147.095 44.0777C146.814 43.8549 146.591 43.5734 146.427 43.2332C146.274 42.8931 146.198 42.4884 146.198 42.0192C146.198 41.5031 146.286 41.0809 146.462 40.7525C146.65 40.4123 146.884 40.1425 147.166 39.9431C147.459 39.7437 147.787 39.5971 148.151 39.5033C148.526 39.3977 148.902 39.3156 149.277 39.257C149.652 39.1983 150.022 39.1514 150.385 39.1162C150.749 39.081 151.072 39.0282 151.353 38.9579C151.635 38.8875 151.857 38.7878 152.022 38.6588C152.186 38.518 152.262 38.3186 152.25 38.0606C152.25 37.8025 152.203 37.5914 152.11 37.4272C152.028 37.263 151.91 37.1398 151.758 37.0577C151.617 36.9639 151.447 36.9052 151.248 36.8818C151.06 36.8466 150.855 36.829 150.632 36.829C150.139 36.829 149.752 36.9345 149.471 37.1457C149.189 37.3568 149.025 37.7087 148.978 38.2013H146.48C146.515 37.6266 146.661 37.1457 146.919 36.7586C147.177 36.3598 147.506 36.0431 147.905 35.8085C148.303 35.5739 148.749 35.4097 149.242 35.3159C149.734 35.2103 150.239 35.1575 150.755 35.1575C151.212 35.1575 151.676 35.1927 152.145 35.2631C152.614 35.3218 153.042 35.4449 153.429 35.6326C153.816 35.8203 154.133 36.0842 154.379 36.4243C154.626 36.7645 154.749 37.2043 154.749 37.7439V42.4767C154.749 42.8872 154.772 43.2801 154.819 43.6555C154.866 44.0308 154.948 44.3123 155.065 44.5H152.532C152.485 44.3592 152.444 44.2185 152.409 44.0777C152.385 43.9253 152.368 43.7728 152.356 43.6203C151.957 44.0308 151.488 44.3182 150.948 44.4824C150.409 44.6466 149.858 44.7287 149.295 44.7287ZM150.227 43.0749C150.72 43.0749 151.101 42.9928 151.371 42.8286C151.64 42.6644 151.84 42.4708 151.969 42.248C152.098 42.0134 152.174 41.7788 152.198 41.5442C152.233 41.3096 152.25 41.1219 152.25 40.9812V40.0487C152.145 40.1425 152.016 40.2188 151.863 40.2774C151.711 40.3243 151.541 40.3654 151.353 40.4006C151.165 40.4358 150.972 40.4651 150.772 40.4885C150.573 40.512 150.374 40.5413 150.174 40.5765C149.975 40.6117 149.787 40.6586 149.611 40.7173C149.435 40.7759 149.277 40.858 149.136 40.9636C149.007 41.0574 148.902 41.1806 148.82 41.3331C148.737 41.4855 148.696 41.6791 148.696 41.9137C148.696 42.1483 148.737 42.3418 148.82 42.4943C148.902 42.635 149.013 42.7523 149.154 42.8462C149.295 42.9283 149.459 42.9869 149.646 43.0221C149.834 43.0573 150.028 43.0749 150.227 43.0749ZM158.905 37.2864H155.914V35.4039H164.394V37.2864H161.403V44.5H158.905V37.2864ZM165.519 35.4039H168.018V38.5356H170.428C170.886 38.5356 171.314 38.6001 171.712 38.7291C172.123 38.8464 172.475 39.0341 172.768 39.2922C173.073 39.5385 173.314 39.8493 173.489 40.2246C173.665 40.5882 173.753 41.0164 173.753 41.509C173.753 42.0134 173.665 42.4532 173.489 42.8286C173.325 43.2039 173.085 43.5147 172.768 43.761C172.463 44.0074 172.1 44.195 171.677 44.3241C171.267 44.4414 170.815 44.5 170.323 44.5H165.519V35.4039ZM169.724 42.7758C170.182 42.7758 170.545 42.6761 170.815 42.4767C171.097 42.2773 171.237 41.9547 171.237 41.509C171.237 41.0633 171.091 40.7407 170.798 40.5413C170.504 40.3302 170.141 40.2246 169.707 40.2246H168.018V42.7758H169.724ZM180.055 35.4039H182.448V41.5618L185.879 35.4039H188.711V44.5H186.319V38.3421L182.888 44.5H180.055V35.4039ZM190.693 35.4039H197.554V37.2864H193.191V44.5H190.693V35.4039ZM198.577 35.4039H200.952V36.5651H200.987C201.292 36.0724 201.679 35.7147 202.149 35.4918C202.618 35.269 203.134 35.1575 203.697 35.1575C204.412 35.1575 205.028 35.2924 205.544 35.5622C206.06 35.832 206.488 36.1897 206.829 36.6354C207.169 37.0812 207.421 37.6031 207.585 38.2013C207.749 38.7878 207.831 39.4036 207.831 40.0487C207.831 40.6586 207.749 41.2451 207.585 41.8081C207.421 42.3711 207.169 42.8696 206.829 43.3036C206.5 43.7376 206.084 44.0836 205.579 44.3417C205.087 44.5997 204.506 44.7287 203.838 44.7287C203.275 44.7287 202.753 44.6173 202.272 44.3944C201.803 44.1598 201.415 43.8197 201.111 43.374H201.075V47.6845H198.577V35.4039ZM203.169 42.8638C203.58 42.8638 203.92 42.7816 204.189 42.6174C204.471 42.4532 204.694 42.2421 204.858 41.984C205.034 41.7143 205.157 41.4093 205.228 41.0692C205.298 40.7173 205.333 40.3537 205.333 39.9783C205.333 39.6147 205.292 39.257 205.21 38.9051C205.14 38.5532 205.016 38.2424 204.84 37.9726C204.665 37.6911 204.436 37.4682 204.154 37.304C203.885 37.1281 203.55 37.0401 203.151 37.0401C202.741 37.0401 202.395 37.1281 202.113 37.304C201.844 37.4682 201.621 37.6852 201.445 37.955C201.281 38.2248 201.163 38.5415 201.093 38.9051C201.023 39.257 200.987 39.6147 200.987 39.9783C200.987 40.3537 201.023 40.7173 201.093 41.0692C201.175 41.4093 201.298 41.7143 201.462 41.984C201.638 42.2421 201.861 42.4532 202.131 42.6174C202.412 42.7816 202.758 42.8638 203.169 42.8638ZM210.687 47.6845C210.429 47.6845 210.171 47.6728 209.913 47.6493C209.667 47.6376 209.415 47.62 209.157 47.5966V45.5381C209.356 45.5615 209.561 45.5791 209.773 45.5908C209.995 45.6143 210.212 45.626 210.424 45.626C210.799 45.626 211.086 45.5205 211.286 45.3093C211.485 45.0982 211.585 44.8284 211.585 44.5C211.585 44.3006 211.55 44.1129 211.479 43.937L208.295 35.4039H210.951L213.01 41.6322H213.045L215.033 35.4039H217.62L213.819 45.626C213.549 46.365 213.174 46.8928 212.693 47.2095C212.212 47.5262 211.544 47.6845 210.687 47.6845Z" fill="white"/>
</svg>
