<svg width="1118" height="149" viewBox="0 0 1118 149" fill="none" xmlns="http://www.w3.org/2000/svg">
<path d="M6.68469 138.083V41.7039H58.2474L78.0051 112.542H104.991V138.083H6.68469Z" stroke="black" stroke-width="4.17788"/>
<path d="M148.362 41.7039H121.375V138.565L167.115 138.565L191.732 94.2304V138.565H219.682V41.7039H191.732L149.15 113.221L148.362 41.7039Z" stroke="black" stroke-width="4.17788"/>
<path d="M678.445 39.7764H651.459V136.637H700.612L721.816 92.3029V136.637H749.766V39.7764H721.816L678.445 124.108V39.7764Z" stroke="black" stroke-width="4.17788"/>
<path d="M233.657 137.119V41.2222H322.807V59.5342H259.197V119.289H322.807V137.119H233.657Z" stroke="black" stroke-width="4.17788"/>
<path d="M898.189 67.7263V37.8489H996.978V135.673H898.189V106.76H969.51V92.303H954.089V78.8099H969.51V67.7263H898.189Z" stroke="black" stroke-width="4.17788"/>
<path d="M541.588 69.6538V39.7764H640.376V137.601H541.588V108.687H612.908V94.2304H597.487V80.7374H612.908V69.6538H541.588Z" stroke="black" stroke-width="4.17788"/>
<path d="M335.337 137.119V41.7039H359.913V59.0521L379.189 41.7039H406.175L370.033 82.6649L424.969 137.119H395.574L359.913 103.386V137.119H335.337Z" stroke="black" stroke-width="4.17788"/>
<path d="M435.57 41.2222V137.119H461.593L459.183 75.4367L501.59 137.119H530.986L464.484 41.2222H435.57Z" stroke="black" stroke-width="4.17788"/>
<rect x="676.679" y="12.9512" width="47.8667" height="14.1341" stroke="black" stroke-width="4.17788"/>
<path d="M760.849 38.8127V135.674H788.317V80.7376L814.822 115.916H840.362L862.047 80.7376V135.674H885.66V38.8127H854.337L827.833 93.2668L788.317 38.8127H760.849Z" stroke="black" stroke-width="4.17788"/>
<path d="M1012.4 135.673V37.8489H1112.15V91.8211H1041.31V135.673H1012.4Z" stroke="black" stroke-width="4.17788"/>
</svg>
