<svg width="262" height="187" viewBox="0 0 262 187" fill="none" xmlns="http://www.w3.org/2000/svg">
<path d="M6 141.885L57.1673 125H212.716L255.185 141.885L234.718 181.284H36.7004L6 141.885Z" fill="black"/>
<path d="M6 141.885L57.1673 125H212.716L255.185 141.885M6 141.885L36.7004 181.284H234.718L255.185 141.885M6 141.885H255.185" stroke="white" stroke-width="3.82731"/>
<path d="M64.1948 138.991L56.2524 121.714L94 117.805L101.038 105.672L148.602 103.915L164.627 114.414L195.324 113.941L208.335 128.069L205.951 139.364L64.1948 138.991Z" fill="white"/>
<path d="M125.588 138.044L128.012 129.307L124.065 122.204M124.065 122.204L120.117 115.101L56.2524 121.714L64.1948 138.991L205.951 139.364L208.335 128.069L195.324 113.941L164.627 114.414M124.065 122.204L146.721 114.69L164.627 114.414M94 117.805L101.038 105.672L148.602 103.915L164.627 114.414" stroke="black" stroke-width="3.82731"/>
</svg>
