<svg width="1440" height="931" viewBox="0 0 1440 931" fill="none" xmlns="http://www.w3.org/2000/svg">
<rect width="1440" height="931" fill="black"/>
<rect x="100.018" y="65.8447" width="1240.22" height="799.31" rx="140.025" fill="white"/>
<path d="M84.2062 364.923L312.138 306.459L377.625 360.806L375.046 406.442L204.876 458.695L203.118 489.809L275.998 467.586L305.435 503.953L302.107 562.848L197.121 595.931L195.191 630.081L317.289 593.2L367.416 644.015L363.369 715.627L129.185 782.161L63.8588 724.96L84.2062 364.923Z" fill="black"/>
<path d="M149.256 427.011L84.2062 364.923M149.256 427.011L377.625 360.806M149.256 427.011L129.185 782.161M84.2062 364.923L312.138 306.459L377.625 360.806M84.2062 364.923L63.8588 724.96L129.185 782.161M377.625 360.806L375.046 406.442L204.876 458.695L203.118 489.809M129.185 782.161L363.369 715.627L367.416 644.015M367.416 644.015L191.688 692.053L195.191 630.081M367.416 644.015L317.289 593.2L195.191 630.081M305.435 503.952L302.107 562.848L197.121 595.931L195.191 630.081M305.435 503.952L200.606 534.258L203.118 489.809M305.435 503.952L275.998 467.586L203.118 489.809" stroke="white" stroke-width="5.565"/>
<path d="M870.936 225.547L862.76 370.217L812.923 385.618L874.837 574.445L792.588 596.873L725.81 540.246L733.275 408.17L719.843 616.164L644.318 641.651L591.749 578.609L618.047 225.415L816.79 168.635L870.936 225.547Z" fill="black"/>
<path d="M618.047 225.415L669.371 278.524M618.047 225.415L591.749 578.609L644.318 641.651M618.047 225.415L816.79 168.635L870.936 225.547M669.371 278.524L870.936 225.547M669.371 278.524L660.819 429.853M870.936 225.547L862.76 370.217L812.923 385.618M660.819 429.853L644.318 641.651M660.819 429.853L733.275 408.17M644.318 641.651L719.843 616.164L733.275 408.17M733.275 408.17L792.588 596.873M733.275 408.17L812.923 385.618M733.275 408.17L725.81 540.246L792.588 596.873M792.588 596.873L874.837 574.445L812.923 385.618M829.899 339.212L698.298 379.14L701.514 322.241M829.899 339.212L834.209 262.942L779.98 276.938M829.899 339.212L778.615 301.094M778.615 301.094L779.98 276.938M778.615 301.094L701.514 322.241M779.98 276.938L702.95 296.817L701.514 322.241" stroke="white" stroke-width="6.06283"/>
<path d="M1349.69 92.4559L1341.51 237.127L1291.67 252.528L1355.95 446.242L1273.7 468.669L1207.31 409.038L1202.83 488.283L1123.07 508.56L1070.5 445.519L1096.8 92.3238L1295.54 35.5438L1349.69 92.4559Z" fill="black"/>
<path d="M1096.8 92.3238L1148.12 145.433M1096.8 92.3238L1070.5 445.519L1123.07 508.56M1096.8 92.3238L1295.54 35.5438L1349.69 92.4559M1148.12 145.433L1349.69 92.4559M1148.12 145.433L1139.57 296.762M1349.69 92.4559L1341.51 237.127L1291.67 252.528M1139.57 296.762L1123.07 508.56M1139.57 296.762L1214.9 274.666M1123.07 508.56L1202.83 488.283L1214.9 274.666M1214.9 274.666L1273.7 468.669M1214.9 274.666L1291.67 252.528M1214.9 274.666L1207.31 409.038L1273.7 468.669M1273.7 468.669L1355.95 446.242L1291.67 252.528M1308.65 206.122L1177.05 246.05L1180.26 189.15M1308.65 206.122L1312.96 129.852L1258.73 143.847M1308.65 206.122L1257.37 168.003M1257.37 168.003L1258.73 143.847M1257.37 168.003L1180.26 189.15M1258.73 143.847L1181.7 163.727L1180.26 189.15" stroke="white" stroke-width="6.06283"/>
<path d="M632.668 292.877L624.492 437.548L574.655 452.949L636.569 641.776L554.321 664.203L487.374 609.725L497.307 476.061L481.575 683.495L406.05 708.982L353.481 645.94L379.779 292.745L578.522 235.965L632.668 292.877Z" fill="black"/>
<path d="M379.779 292.745L431.103 345.854M379.779 292.745L353.481 645.94L406.05 708.982M379.779 292.745L578.522 235.965L632.668 292.877M431.103 345.854L632.668 292.877M431.103 345.854L422.551 497.184M632.668 292.877L624.492 437.548L574.655 452.949M422.551 497.184L406.05 708.982M422.551 497.184L497.307 476.061M406.05 708.982L481.575 683.495L497.307 476.061M497.307 476.061L554.321 664.203M497.307 476.061L574.655 452.949M497.307 476.061L487.374 609.725L554.321 664.203M554.321 664.203L636.569 641.776L574.655 452.949M591.631 406.543L460.03 446.471L463.246 389.571M591.631 406.543L595.941 330.273L541.712 344.268M591.631 406.543L540.347 368.424M540.347 368.424L541.712 344.268M540.347 368.424L463.246 389.571M541.712 344.268L464.683 364.148L463.246 389.571" stroke="white" stroke-width="6.06283"/>
<path d="M1046.95 107.905L1105.7 159.039L1085.25 520.811L898.697 570.179L848.791 514.936L869.211 153.611L1046.95 107.905Z" fill="black"/>
<path d="M869.211 153.611L918.85 213.576M869.211 153.611L1046.95 107.905L1105.7 159.039M869.211 153.611L848.791 514.936L898.697 570.179M918.85 213.576L1105.7 159.039M918.85 213.576L898.697 570.179M1105.7 159.039L1085.25 520.811L898.697 570.179M1062.07 502.681L1079.43 195.502L942.439 234.496L928.451 482.015M1062.07 502.681L925.142 540.566L928.451 482.015M1062.07 502.681L1020.08 458.435M1020.08 458.435L1034.24 207.996M1020.08 458.435L928.451 482.015" stroke="white" stroke-width="6.53225"/>
<path d="M589.653 782.075H600.106V794.639H597.343V784.398H592.416V794.639H589.653V782.075ZM608.173 794.921C607.199 794.921 606.331 794.756 605.568 794.428C604.806 794.088 604.16 793.624 603.632 793.038C603.105 792.451 602.7 791.765 602.418 790.979C602.137 790.181 601.996 789.325 601.996 788.41C601.996 787.483 602.137 786.615 602.418 785.805C602.7 784.996 603.105 784.292 603.632 783.694C604.16 783.095 604.806 782.626 605.568 782.286C606.331 781.946 607.199 781.776 608.173 781.776C609.135 781.776 609.997 781.946 610.759 782.286C611.534 782.626 612.185 783.095 612.713 783.694C613.241 784.292 613.645 784.996 613.927 785.805C614.208 786.615 614.349 787.483 614.349 788.41C614.349 789.325 614.208 790.181 613.927 790.979C613.645 791.765 613.241 792.451 612.713 793.038C612.185 793.624 611.534 794.088 610.759 794.428C609.997 794.756 609.135 794.921 608.173 794.921ZM608.173 792.615C608.794 792.615 609.322 792.498 609.756 792.264C610.19 792.017 610.542 791.695 610.812 791.296C611.082 790.897 611.276 790.451 611.393 789.958C611.522 789.454 611.586 788.938 611.586 788.41C611.586 787.858 611.522 787.325 611.393 786.808C611.276 786.292 611.082 785.835 610.812 785.436C610.542 785.025 610.19 784.703 609.756 784.468C609.322 784.222 608.794 784.098 608.173 784.098C607.551 784.098 607.023 784.222 606.589 784.468C606.155 784.703 605.803 785.025 605.533 785.436C605.263 785.835 605.064 786.292 604.935 786.808C604.817 787.325 604.759 787.858 604.759 788.41C604.759 788.938 604.817 789.454 604.935 789.958C605.064 790.451 605.263 790.897 605.533 791.296C605.803 791.695 606.155 792.017 606.589 792.264C607.023 792.498 607.551 792.615 608.173 792.615ZM620.18 787.6L615.375 782.075H618.631L623.03 787.248V782.075H625.687V787.231L630.087 782.075H633.342L628.485 787.53L633.8 794.639H630.386L626.391 789.149L625.687 789.976V794.639H623.03V789.976L622.168 789.166L618.314 794.639H614.918L620.18 787.6ZM638.332 782.075H641.165L645.864 794.639H642.995L642.045 791.841H637.346L636.361 794.639H633.581L638.332 782.075ZM641.323 789.782L639.74 785.172H639.704L638.068 789.782H641.323ZM647.141 794.78C646.706 794.78 646.308 794.71 645.944 794.569V792.316C645.991 792.34 646.055 792.357 646.137 792.369C646.231 792.381 646.308 792.387 646.366 792.387C646.812 792.387 647.176 792.24 647.457 791.947C647.751 791.653 647.973 791.196 648.126 790.574C648.29 789.952 648.402 789.149 648.46 788.163C648.519 787.178 648.548 785.993 648.548 784.609V782.075H657.593V794.639H654.848V784.398H651.17C651.135 785.852 651.082 787.213 651.012 788.48C650.953 789.747 650.801 790.85 650.554 791.788C650.308 792.715 649.921 793.448 649.393 793.988C648.865 794.516 648.114 794.78 647.141 794.78ZM662.453 794.868C662.148 794.868 661.872 794.827 661.626 794.745C661.391 794.663 661.215 794.586 661.098 794.516V792.281C661.227 792.352 661.38 792.416 661.556 792.475C661.743 792.522 661.972 792.545 662.242 792.545C663.075 792.545 663.579 792.199 663.755 791.507L658.722 782.075H661.82L665.233 788.621L667.785 782.075H670.671L666.747 791.296C666.465 791.941 666.178 792.492 665.884 792.95C665.603 793.396 665.286 793.765 664.934 794.058C664.594 794.34 664.219 794.545 663.808 794.674C663.409 794.803 662.957 794.868 662.453 794.868ZM671.418 782.075H674.163V790.785H674.216L679.003 782.075H682.1V794.639H679.354V785.911H679.302L674.515 794.639H671.418V782.075ZM676.926 781.001C674.662 781.001 673.53 780.098 673.53 778.291H675.571C675.583 778.655 675.688 778.954 675.888 779.189C676.087 779.423 676.433 779.541 676.926 779.541C677.419 779.541 677.771 779.429 677.982 779.206C678.193 778.972 678.293 778.667 678.281 778.291H680.322C680.322 780.098 679.19 781.001 676.926 781.001ZM690.161 794.921C689.188 794.921 688.319 794.756 687.557 794.428C686.794 794.088 686.149 793.624 685.621 793.038C685.093 792.451 684.688 791.765 684.407 790.979C684.125 790.181 683.985 789.325 683.985 788.41C683.985 787.483 684.125 786.615 684.407 785.805C684.688 784.996 685.093 784.292 685.621 783.694C686.149 783.095 686.794 782.626 687.557 782.286C688.319 781.946 689.188 781.776 690.161 781.776C690.842 781.776 691.493 781.875 692.115 782.075C692.736 782.274 693.288 782.567 693.769 782.955C694.261 783.33 694.666 783.799 694.983 784.362C695.3 784.925 695.499 785.571 695.581 786.298H692.906C692.859 785.981 692.754 785.694 692.59 785.436C692.425 785.166 692.22 784.931 691.974 784.732C691.727 784.532 691.446 784.38 691.129 784.274C690.824 784.157 690.501 784.098 690.161 784.098C689.539 784.098 689.012 784.222 688.577 784.468C688.143 784.703 687.791 785.025 687.522 785.436C687.252 785.835 687.052 786.292 686.923 786.808C686.806 787.325 686.747 787.858 686.747 788.41C686.747 788.938 686.806 789.454 686.923 789.958C687.052 790.451 687.252 790.897 687.522 791.296C687.791 791.695 688.143 792.017 688.577 792.264C689.012 792.498 689.539 792.615 690.161 792.615C691.006 792.615 691.663 792.357 692.132 791.841C692.613 791.325 692.906 790.645 693.012 789.8H695.687C695.616 790.598 695.435 791.313 695.141 791.947C694.848 792.569 694.461 793.102 693.98 793.548C693.499 793.994 692.936 794.334 692.29 794.569C691.645 794.803 690.936 794.921 690.161 794.921ZM700.354 784.398H696.588V782.075H706.882V784.398H703.116V794.639H700.354V784.398ZM711.763 782.075H714.596L719.294 794.639H716.426L715.476 791.841H710.777L709.792 794.639H707.011L711.763 782.075ZM714.754 789.782L713.17 785.172H713.135L711.499 789.782H714.754ZM720.237 791.929V794.639H721.504C721.516 794.827 721.492 795.009 721.433 795.185C721.375 795.372 721.287 795.537 721.169 795.677C721.052 795.83 720.911 795.959 720.747 796.065C720.595 796.17 720.43 796.241 720.254 796.276V797.543C720.63 797.484 720.982 797.373 721.31 797.208C721.65 797.056 721.944 796.856 722.19 796.61C722.436 796.364 722.63 796.07 722.771 795.73C722.923 795.402 723 795.038 723 794.639V791.929H720.237ZM730.173 782.075H740.626V794.639H737.863V784.398H732.936V794.639H730.173V782.075ZM748.693 794.921C747.719 794.921 746.851 794.756 746.088 794.428C745.326 794.088 744.68 793.624 744.153 793.038C743.625 792.451 743.22 791.765 742.938 790.979C742.657 790.181 742.516 789.325 742.516 788.41C742.516 787.483 742.657 786.615 742.938 785.805C743.22 784.996 743.625 784.292 744.153 783.694C744.68 783.095 745.326 782.626 746.088 782.286C746.851 781.946 747.719 781.776 748.693 781.776C749.655 781.776 750.517 781.946 751.279 782.286C752.054 782.626 752.705 783.095 753.233 783.694C753.761 784.292 754.165 784.996 754.447 785.805C754.728 786.615 754.869 787.483 754.869 788.41C754.869 789.325 754.728 790.181 754.447 790.979C754.165 791.765 753.761 792.451 753.233 793.038C752.705 793.624 752.054 794.088 751.279 794.428C750.517 794.756 749.655 794.921 748.693 794.921ZM748.693 792.615C749.314 792.615 749.842 792.498 750.276 792.264C750.71 792.017 751.062 791.695 751.332 791.296C751.602 790.897 751.796 790.451 751.913 789.958C752.042 789.454 752.107 788.938 752.107 788.41C752.107 787.858 752.042 787.325 751.913 786.808C751.796 786.292 751.602 785.835 751.332 785.436C751.062 785.025 750.71 784.703 750.276 784.468C749.842 784.222 749.314 784.098 748.693 784.098C748.071 784.098 747.543 784.222 747.109 784.468C746.675 784.703 746.323 785.025 746.053 785.436C745.783 785.835 745.584 786.292 745.455 786.808C745.337 787.325 745.279 787.858 745.279 788.41C745.279 788.938 745.337 789.454 745.455 789.958C745.584 790.451 745.783 790.897 746.053 791.296C746.323 791.695 746.675 792.017 747.109 792.264C747.543 792.498 748.071 792.615 748.693 792.615ZM756.758 782.075H767.211V794.639H764.448V784.398H759.521V794.639H756.758V782.075ZM769.646 782.075H775.313C776.099 782.075 776.767 782.192 777.319 782.427C777.87 782.65 778.316 782.949 778.656 783.324C779.008 783.7 779.26 784.134 779.413 784.626C779.577 785.107 779.659 785.6 779.659 786.105C779.659 786.621 779.577 787.119 779.413 787.6C779.26 788.081 779.008 788.509 778.656 788.885C778.316 789.26 777.87 789.565 777.319 789.8C776.767 790.023 776.099 790.134 775.313 790.134H772.409V794.639H769.646V782.075ZM774.556 787.987C774.873 787.987 775.178 787.964 775.471 787.917C775.764 787.87 776.022 787.782 776.245 787.653C776.468 787.512 776.644 787.319 776.773 787.072C776.914 786.826 776.984 786.503 776.984 786.105C776.984 785.706 776.914 785.383 776.773 785.137C776.644 784.89 776.468 784.703 776.245 784.574C776.022 784.433 775.764 784.339 775.471 784.292C775.178 784.245 774.873 784.222 774.556 784.222H772.409V787.987H774.556ZM787.015 794.921C786.041 794.921 785.173 794.756 784.41 794.428C783.648 794.088 783.003 793.624 782.475 793.038C781.947 792.451 781.542 791.765 781.26 790.979C780.979 790.181 780.838 789.325 780.838 788.41C780.838 787.483 780.979 786.615 781.26 785.805C781.542 784.996 781.947 784.292 782.475 783.694C783.003 783.095 783.648 782.626 784.41 782.286C785.173 781.946 786.041 781.776 787.015 781.776C787.977 781.776 788.839 781.946 789.602 782.286C790.376 782.626 791.027 783.095 791.555 783.694C792.083 784.292 792.487 784.996 792.769 785.805C793.051 786.615 793.191 787.483 793.191 788.41C793.191 789.325 793.051 790.181 792.769 790.979C792.487 791.765 792.083 792.451 791.555 793.038C791.027 793.624 790.376 794.088 789.602 794.428C788.839 794.756 787.977 794.921 787.015 794.921ZM787.015 792.615C787.636 792.615 788.164 792.498 788.598 792.264C789.033 792.017 789.384 791.695 789.654 791.296C789.924 790.897 790.118 790.451 790.235 789.958C790.364 789.454 790.429 788.938 790.429 788.41C790.429 787.858 790.364 787.325 790.235 786.808C790.118 786.292 789.924 785.835 789.654 785.436C789.384 785.025 789.033 784.703 788.598 784.468C788.164 784.222 787.636 784.098 787.015 784.098C786.393 784.098 785.865 784.222 785.431 784.468C784.997 784.703 784.645 785.025 784.375 785.436C784.105 785.835 783.906 786.292 783.777 786.808C783.66 787.325 783.601 787.858 783.601 788.41C783.601 788.938 783.66 789.454 783.777 789.958C783.906 790.451 784.105 790.897 784.375 791.296C784.645 791.695 784.997 792.017 785.431 792.264C785.865 792.498 786.393 792.615 787.015 792.615ZM795.08 782.075H804.406V784.345H797.843V786.72H801.116C801.749 786.72 802.336 786.797 802.875 786.949C803.415 787.102 803.884 787.342 804.283 787.671C804.682 787.987 804.993 788.398 805.216 788.902C805.451 789.395 805.568 789.982 805.568 790.662C805.568 791.354 805.456 791.953 805.234 792.457C805.011 792.95 804.694 793.36 804.283 793.689C803.884 794.017 803.403 794.258 802.84 794.41C802.277 794.563 801.655 794.639 800.975 794.639H795.08V782.075ZM800.676 792.387C801.345 792.387 801.867 792.264 802.242 792.017C802.617 791.759 802.805 791.296 802.805 790.627C802.805 790.299 802.752 790.023 802.647 789.8C802.541 789.577 802.389 789.401 802.189 789.272C802.001 789.131 801.773 789.032 801.503 788.973C801.245 788.914 800.963 788.885 800.658 788.885H797.843V792.387H800.676ZM809.864 794.868C809.559 794.868 809.283 794.827 809.037 794.745C808.802 794.663 808.627 794.586 808.509 794.516V792.281C808.638 792.352 808.791 792.416 808.967 792.475C809.154 792.522 809.383 792.545 809.653 792.545C810.486 792.545 810.99 792.199 811.166 791.507L806.134 782.075H809.231L812.645 788.621L815.196 782.075H818.082L814.158 791.296C813.876 791.941 813.589 792.492 813.296 792.95C813.014 793.396 812.697 793.765 812.345 794.058C812.005 794.34 811.63 794.545 811.219 794.674C810.82 794.803 810.369 794.868 809.864 794.868ZM818.829 782.075H821.574V790.785H821.627L826.414 782.075H829.511V794.639H826.766V785.911H826.713L821.926 794.639H818.829V782.075ZM824.337 781.001C822.073 781.001 820.941 780.098 820.941 778.291H822.982C822.994 778.655 823.1 778.954 823.299 779.189C823.498 779.423 823.844 779.541 824.337 779.541C824.83 779.541 825.182 779.429 825.393 779.206C825.604 778.972 825.704 778.667 825.692 778.291H827.733C827.733 780.098 826.601 781.001 824.337 781.001ZM834.722 784.398H830.956V782.075H841.25V784.398H837.484V794.639H834.722V784.398ZM842.699 782.075H852.096V784.398H845.462V787.09H851.55V789.237H845.462V792.316H852.237V794.639H842.699V782.075ZM864.638 794.921C863.665 794.921 862.797 794.756 862.034 794.428C861.272 794.088 860.626 793.624 860.098 793.038C859.57 792.451 859.166 791.765 858.884 790.979C858.603 790.181 858.462 789.325 858.462 788.41C858.462 787.483 858.603 786.615 858.884 785.805C859.166 784.996 859.57 784.292 860.098 783.694C860.626 783.095 861.272 782.626 862.034 782.286C862.797 781.946 863.665 781.776 864.638 781.776C865.319 781.776 865.97 781.875 866.592 782.075C867.214 782.274 867.765 782.567 868.246 782.955C868.739 783.33 869.143 783.799 869.46 784.362C869.777 784.925 869.976 785.571 870.058 786.298H867.384C867.337 785.981 867.231 785.694 867.067 785.436C866.903 785.166 866.697 784.931 866.451 784.732C866.205 784.532 865.923 784.38 865.606 784.274C865.301 784.157 864.979 784.098 864.638 784.098C864.017 784.098 863.489 784.222 863.055 784.468C862.621 784.703 862.269 785.025 861.999 785.436C861.729 785.835 861.53 786.292 861.401 786.808C861.283 787.325 861.225 787.858 861.225 788.41C861.225 788.938 861.283 789.454 861.401 789.958C861.53 790.451 861.729 790.897 861.999 791.296C862.269 791.695 862.621 792.017 863.055 792.264C863.489 792.498 864.017 792.615 864.638 792.615C865.483 792.615 866.14 792.357 866.609 791.841C867.09 791.325 867.384 790.645 867.489 789.8H870.164C870.094 790.598 869.912 791.313 869.618 791.947C869.325 792.569 868.938 793.102 868.457 793.548C867.976 793.994 867.413 794.334 866.768 794.569C866.122 794.803 865.413 794.921 864.638 794.921ZM872.051 782.075H874.813V786.896H879.899V782.075H882.662V794.639H879.899V789.219H874.813V794.639H872.051V782.075ZM890.725 794.921C889.751 794.921 888.883 794.756 888.121 794.428C887.358 794.088 886.713 793.624 886.185 793.038C885.657 792.451 885.252 791.765 884.971 790.979C884.689 790.181 884.548 789.325 884.548 788.41C884.548 787.483 884.689 786.615 884.971 785.805C885.252 784.996 885.657 784.292 886.185 783.694C886.713 783.095 887.358 782.626 888.121 782.286C888.883 781.946 889.751 781.776 890.725 781.776C891.687 781.776 892.549 781.946 893.312 782.286C894.086 782.626 894.737 783.095 895.265 783.694C895.793 784.292 896.198 784.996 896.479 785.805C896.761 786.615 896.902 787.483 896.902 788.41C896.902 789.325 896.761 790.181 896.479 790.979C896.198 791.765 895.793 792.451 895.265 793.038C894.737 793.624 894.086 794.088 893.312 794.428C892.549 794.756 891.687 794.921 890.725 794.921ZM890.725 792.615C891.347 792.615 891.875 792.498 892.309 792.264C892.743 792.017 893.095 791.695 893.365 791.296C893.634 790.897 893.828 790.451 893.945 789.958C894.074 789.454 894.139 788.938 894.139 788.41C894.139 787.858 894.074 787.325 893.945 786.808C893.828 786.292 893.634 785.835 893.365 785.436C893.095 785.025 892.743 784.703 892.309 784.468C891.875 784.222 891.347 784.098 890.725 784.098C890.103 784.098 889.575 784.222 889.141 784.468C888.707 784.703 888.355 785.025 888.085 785.436C887.816 785.835 887.616 786.292 887.487 786.808C887.37 787.325 887.311 787.858 887.311 788.41C887.311 788.938 887.37 789.454 887.487 789.958C887.616 790.451 887.816 790.897 888.085 791.296C888.355 791.695 888.707 792.017 889.141 792.264C889.575 792.498 890.103 792.615 890.725 792.615ZM898.79 782.075H904.703C905.301 782.075 905.847 782.128 906.339 782.233C906.832 782.339 907.254 782.515 907.606 782.761C907.958 782.996 908.228 783.312 908.416 783.711C908.615 784.11 908.715 784.603 908.715 785.189C908.715 785.823 908.568 786.351 908.275 786.773C907.993 787.196 907.571 787.542 907.008 787.811C907.782 788.034 908.357 788.427 908.733 788.99C909.12 789.542 909.313 790.211 909.313 790.997C909.313 791.63 909.19 792.181 908.944 792.651C908.697 793.108 908.363 793.484 907.941 793.777C907.53 794.07 907.055 794.287 906.515 794.428C905.987 794.569 905.442 794.639 904.879 794.639H898.79V782.075ZM904.509 792.492C904.779 792.492 905.037 792.469 905.284 792.422C905.53 792.363 905.747 792.275 905.935 792.158C906.122 792.029 906.269 791.859 906.375 791.648C906.492 791.436 906.551 791.167 906.551 790.838C906.551 790.193 906.369 789.735 906.005 789.466C905.641 789.184 905.16 789.043 904.562 789.043H901.553V792.492H904.509ZM904.351 787.16C904.844 787.16 905.248 787.043 905.565 786.808C905.882 786.574 906.04 786.192 906.04 785.665C906.04 785.371 905.987 785.131 905.882 784.943C905.776 784.755 905.635 784.609 905.459 784.503C905.284 784.398 905.078 784.327 904.844 784.292C904.621 784.245 904.386 784.222 904.14 784.222H901.553V787.16H904.351ZM914.612 782.075H917.445L922.143 794.639H919.275L918.325 791.841H913.626L912.641 794.639H909.861L914.612 782.075ZM917.603 789.782L916.02 785.172H915.984L914.348 789.782H917.603Z" fill="black"/>
</svg>
