<svg width="1440" height="931" viewBox="0 0 1440 931" fill="none" xmlns="http://www.w3.org/2000/svg">
<g clip-path="url(#clip0_36_1011)">
<rect width="1440" height="930" transform="translate(0 0.0830078)" fill="black"/>
<rect x="125" y="82.0293" width="1190" height="766.942" rx="134.355" fill="white"/>
<path d="M550.168 567.314H554.183C554.564 567.314 554.928 567.342 555.275 567.398C555.634 567.454 555.953 567.56 556.233 567.717C556.513 567.863 556.737 568.076 556.905 568.356C557.073 568.636 557.157 568.994 557.157 569.431C557.157 569.901 557.045 570.282 556.821 570.573C556.597 570.864 556.283 571.105 555.88 571.296V571.313C556.384 571.413 556.782 571.649 557.073 572.018C557.375 572.388 557.527 572.864 557.527 573.446C557.527 573.816 557.459 574.157 557.325 574.471C557.202 574.785 557.022 575.054 556.787 575.278C556.552 575.502 556.272 575.681 555.947 575.815C555.622 575.938 555.27 576 554.889 576H550.168V567.314ZM554.62 574.79C555.09 574.79 555.443 574.656 555.678 574.387C555.925 574.107 556.048 573.76 556.048 573.345C556.048 572.953 555.919 572.64 555.662 572.405C555.404 572.169 554.973 572.052 554.368 572.052H551.579V574.79H554.62ZM554.032 570.876C554.648 570.876 555.074 570.764 555.309 570.54C555.555 570.316 555.678 570.019 555.678 569.649C555.678 569.291 555.561 569.016 555.326 568.826C555.09 568.624 554.659 568.524 554.032 568.524H551.579V570.876H554.032ZM559.241 567.314H560.669V570.64H563.357C564.208 570.64 564.892 570.876 565.407 571.346C565.922 571.805 566.18 572.455 566.18 573.295C566.18 574.113 565.933 574.768 565.44 575.261C564.948 575.754 564.276 576 563.424 576H559.241V567.314ZM562.904 574.74C564.102 574.74 564.701 574.258 564.701 573.295C564.701 572.343 564.102 571.867 562.904 571.867H560.669V574.74H562.904ZM567.557 567.314H568.985V576H567.557V567.314ZM576.703 579.461C576.535 579.461 576.367 579.45 576.199 579.427C576.031 579.405 575.868 579.366 575.711 579.31V577.999C575.846 578.044 575.98 578.089 576.115 578.134C576.26 578.179 576.406 578.201 576.551 578.201C576.843 578.201 577.078 578.134 577.257 577.999C577.436 577.865 577.593 577.669 577.728 577.411L578.316 575.95L574.871 567.314H576.484L579.021 574.421H579.055L581.491 567.314H583.003L579.223 577.142C579.055 577.568 578.887 577.927 578.719 578.218C578.562 578.509 578.383 578.744 578.181 578.923C577.991 579.114 577.772 579.248 577.526 579.327C577.291 579.416 577.016 579.461 576.703 579.461ZM584.213 567.314H585.641V571.464L589.623 567.314H591.521L587.674 571.077L591.975 576H590.143L586.514 571.867L585.641 572.724V576H584.213V567.314ZM593.107 567.314H594.535V568.49H594.568C594.803 568.008 595.173 567.661 595.677 567.448C596.181 567.224 596.736 567.112 597.34 567.112C598.012 567.112 598.595 567.235 599.088 567.482C599.592 567.728 600.006 568.064 600.331 568.49C600.667 568.904 600.919 569.386 601.087 569.935C601.255 570.484 601.339 571.066 601.339 571.682C601.339 572.309 601.255 572.897 601.087 573.446C600.93 573.984 600.684 574.46 600.348 574.874C600.023 575.278 599.609 575.597 599.105 575.832C598.612 576.067 598.035 576.185 597.374 576.185C597.15 576.185 596.909 576.162 596.652 576.118C596.394 576.073 596.136 576 595.879 575.899C595.621 575.798 595.375 575.664 595.14 575.496C594.915 575.317 594.725 575.098 594.568 574.841H594.535V579.31H593.107V567.314ZM597.223 574.942C597.704 574.942 598.113 574.846 598.449 574.656C598.785 574.466 599.054 574.213 599.256 573.9C599.457 573.586 599.603 573.228 599.693 572.825C599.782 572.421 599.827 572.007 599.827 571.581C599.827 571.178 599.771 570.786 599.659 570.405C599.558 570.013 599.396 569.666 599.172 569.364C598.959 569.061 598.679 568.82 598.332 568.641C597.996 568.462 597.598 568.372 597.139 568.372C596.657 568.372 596.248 568.468 595.912 568.658C595.576 568.848 595.302 569.1 595.089 569.414C594.876 569.716 594.719 570.064 594.619 570.456C594.529 570.848 594.484 571.245 594.484 571.649C594.484 572.074 594.535 572.489 594.635 572.892C594.736 573.284 594.893 573.631 595.106 573.933C595.33 574.236 595.616 574.482 595.963 574.673C596.31 574.852 596.73 574.942 597.223 574.942ZM605.418 576.185C605.026 576.185 604.656 576.14 604.309 576.05C603.962 575.972 603.654 575.838 603.385 575.647C603.127 575.446 602.92 575.194 602.763 574.891C602.618 574.578 602.545 574.202 602.545 573.765C602.545 573.273 602.629 572.869 602.797 572.556C602.965 572.242 603.183 571.99 603.452 571.8C603.732 571.598 604.046 571.447 604.393 571.346C604.751 571.245 605.115 571.161 605.485 571.094C605.877 571.016 606.247 570.96 606.594 570.926C606.952 570.881 607.266 570.825 607.535 570.758C607.804 570.68 608.016 570.573 608.173 570.439C608.33 570.293 608.408 570.086 608.408 569.817C608.408 569.504 608.347 569.252 608.224 569.061C608.112 568.871 607.96 568.725 607.77 568.624C607.591 568.524 607.384 568.456 607.148 568.423C606.924 568.389 606.7 568.372 606.476 568.372C605.872 568.372 605.368 568.49 604.964 568.725C604.561 568.949 604.343 569.38 604.309 570.019H602.881C602.903 569.481 603.015 569.028 603.217 568.658C603.419 568.288 603.687 567.992 604.023 567.768C604.359 567.532 604.74 567.364 605.166 567.263C605.603 567.163 606.068 567.112 606.56 567.112C606.952 567.112 607.339 567.14 607.72 567.196C608.112 567.252 608.464 567.37 608.778 567.549C609.092 567.717 609.344 567.958 609.534 568.272C609.725 568.585 609.82 568.994 609.82 569.498V573.967C609.82 574.303 609.837 574.55 609.87 574.706C609.915 574.863 610.049 574.942 610.273 574.942C610.374 574.942 610.52 574.914 610.71 574.858V575.966C610.464 576.112 610.122 576.185 609.685 576.185C609.316 576.185 609.019 576.084 608.795 575.882C608.582 575.67 608.476 575.328 608.476 574.858C608.084 575.328 607.624 575.67 607.098 575.882C606.583 576.084 606.023 576.185 605.418 576.185ZM605.737 574.942C606.208 574.942 606.611 574.88 606.947 574.757C607.283 574.622 607.557 574.46 607.77 574.269C607.983 574.068 608.14 573.855 608.24 573.631C608.341 573.396 608.392 573.177 608.392 572.976V571.514C608.212 571.66 607.977 571.761 607.686 571.817C607.395 571.873 607.087 571.923 606.762 571.968C606.448 572.013 606.129 572.057 605.804 572.102C605.48 572.147 605.188 572.225 604.931 572.337C604.673 572.449 604.46 572.612 604.292 572.825C604.135 573.026 604.057 573.306 604.057 573.665C604.057 573.9 604.102 574.101 604.191 574.269C604.292 574.426 604.415 574.555 604.561 574.656C604.718 574.757 604.897 574.83 605.099 574.874C605.3 574.919 605.513 574.942 605.737 574.942ZM611.972 576.101C611.827 576.101 611.675 576.084 611.519 576.05C611.362 576.028 611.233 576.006 611.132 575.983V574.723C611.244 574.757 611.345 574.779 611.435 574.79C611.535 574.802 611.631 574.807 611.72 574.807C612.09 574.807 612.37 574.662 612.56 574.37C612.762 574.079 612.907 573.631 612.997 573.026C613.098 572.421 613.159 571.649 613.182 570.708C613.204 569.756 613.227 568.624 613.249 567.314H619.348V576H617.92V568.574H614.627C614.593 569.593 614.554 570.562 614.509 571.481C614.475 572.388 614.38 573.183 614.223 573.866C614.067 574.55 613.815 575.093 613.467 575.496C613.12 575.899 612.622 576.101 611.972 576.101ZM621.506 567.314H622.934V574.404L627.034 567.314H628.865V576H627.437V568.91L623.338 576H621.506V567.314ZM637.227 567.179C637.227 566.877 637.283 566.614 637.395 566.39C637.507 566.166 637.653 565.975 637.832 565.819C638.023 565.662 638.247 565.544 638.504 565.466C638.762 565.387 639.031 565.348 639.311 565.348C639.893 565.348 640.369 565.505 640.739 565.819C641.12 566.121 641.31 566.575 641.31 567.179C641.31 567.784 641.125 568.255 640.756 568.591C640.386 568.927 639.916 569.095 639.344 569.095C639.053 569.095 638.779 569.056 638.521 568.977C638.264 568.899 638.04 568.781 637.849 568.624C637.659 568.468 637.507 568.272 637.395 568.036C637.283 567.79 637.227 567.504 637.227 567.179ZM635.715 567.129C635.715 567.667 635.867 568.165 636.169 568.624C636.471 569.072 636.875 569.397 637.379 569.599C636.707 569.834 636.191 570.215 635.833 570.741C635.475 571.257 635.295 571.867 635.295 572.573C635.295 573.177 635.396 573.709 635.598 574.169C635.811 574.617 636.096 574.992 636.455 575.294C636.824 575.597 637.255 575.821 637.748 575.966C638.241 576.112 638.773 576.185 639.344 576.185C639.893 576.185 640.408 576.106 640.89 575.95C641.372 575.793 641.786 575.563 642.133 575.261C642.492 574.947 642.772 574.566 642.973 574.118C643.186 573.67 643.293 573.155 643.293 572.573C643.293 571.833 643.119 571.212 642.772 570.708C642.425 570.192 641.893 569.823 641.176 569.599C641.68 569.375 642.077 569.044 642.369 568.608C642.671 568.16 642.822 567.667 642.822 567.129C642.822 566.748 642.755 566.379 642.621 566.02C642.486 565.651 642.273 565.326 641.982 565.046C641.702 564.755 641.333 564.525 640.873 564.357C640.414 564.178 639.86 564.088 639.21 564.088C638.751 564.088 638.308 564.155 637.883 564.29C637.468 564.424 637.099 564.62 636.774 564.878C636.449 565.135 636.191 565.455 636.001 565.835C635.811 566.205 635.715 566.636 635.715 567.129ZM636.807 572.64C636.807 572.293 636.869 571.979 636.992 571.699C637.127 571.419 637.306 571.178 637.53 570.976C637.765 570.775 638.034 570.624 638.336 570.523C638.65 570.411 638.98 570.355 639.328 570.355C639.664 570.355 639.977 570.416 640.268 570.54C640.571 570.652 640.834 570.808 641.058 571.01C641.282 571.212 641.456 571.453 641.579 571.733C641.713 572.001 641.781 572.298 641.781 572.623C641.781 572.959 641.719 573.267 641.596 573.547C641.484 573.827 641.316 574.073 641.092 574.286C640.879 574.488 640.621 574.65 640.319 574.774C640.028 574.886 639.703 574.942 639.344 574.942C638.605 574.942 637.995 574.74 637.513 574.337C637.043 573.922 636.807 573.357 636.807 572.64ZM648.685 574.74H649.71C649.834 574.505 649.957 574.185 650.08 573.782C650.214 573.368 650.332 572.914 650.433 572.421C650.545 571.917 650.634 571.385 650.702 570.825C650.769 570.265 650.802 569.716 650.802 569.179V567.314H657.086V574.74H658.262V578.638H656.901V576H650.046V578.638H648.685V574.74ZM655.658 574.74V568.574H652.197V569.313C652.197 569.862 652.163 570.411 652.096 570.96C652.04 571.497 651.962 572.007 651.861 572.489C651.76 572.97 651.648 573.407 651.525 573.799C651.413 574.191 651.301 574.505 651.189 574.74H655.658ZM662.006 576.185C661.614 576.185 661.245 576.14 660.898 576.05C660.55 575.972 660.242 575.838 659.974 575.647C659.716 575.446 659.509 575.194 659.352 574.891C659.206 574.578 659.133 574.202 659.133 573.765C659.133 573.273 659.217 572.869 659.385 572.556C659.554 572.242 659.772 571.99 660.041 571.8C660.321 571.598 660.634 571.447 660.982 571.346C661.34 571.245 661.704 571.161 662.074 571.094C662.466 571.016 662.835 570.96 663.183 570.926C663.541 570.881 663.855 570.825 664.123 570.758C664.392 570.68 664.605 570.573 664.762 570.439C664.919 570.293 664.997 570.086 664.997 569.817C664.997 569.504 664.935 569.252 664.812 569.061C664.7 568.871 664.549 568.725 664.359 568.624C664.179 568.524 663.972 568.456 663.737 568.423C663.513 568.389 663.289 568.372 663.065 568.372C662.46 568.372 661.956 568.49 661.553 568.725C661.15 568.949 660.931 569.38 660.898 570.019H659.469C659.492 569.481 659.604 569.028 659.806 568.658C660.007 568.288 660.276 567.992 660.612 567.768C660.948 567.532 661.329 567.364 661.754 567.263C662.191 567.163 662.656 567.112 663.149 567.112C663.541 567.112 663.927 567.14 664.308 567.196C664.7 567.252 665.053 567.37 665.367 567.549C665.68 567.717 665.932 567.958 666.123 568.272C666.313 568.585 666.408 568.994 666.408 569.498V573.967C666.408 574.303 666.425 574.55 666.459 574.706C666.504 574.863 666.638 574.942 666.862 574.942C666.963 574.942 667.108 574.914 667.299 574.858V575.966C667.052 576.112 666.711 576.185 666.274 576.185C665.904 576.185 665.607 576.084 665.383 575.882C665.171 575.67 665.064 575.328 665.064 574.858C664.672 575.328 664.213 575.67 663.687 575.882C663.171 576.084 662.611 576.185 662.006 576.185ZM662.326 574.942C662.796 574.942 663.199 574.88 663.535 574.757C663.871 574.622 664.146 574.46 664.359 574.269C664.571 574.068 664.728 573.855 664.829 573.631C664.93 573.396 664.98 573.177 664.98 572.976V571.514C664.801 571.66 664.566 571.761 664.275 571.817C663.983 571.873 663.675 571.923 663.351 571.968C663.037 572.013 662.718 572.057 662.393 572.102C662.068 572.147 661.777 572.225 661.519 572.337C661.262 572.449 661.049 572.612 660.881 572.825C660.724 573.026 660.646 573.306 660.646 573.665C660.646 573.9 660.69 574.101 660.78 574.269C660.881 574.426 661.004 574.555 661.15 574.656C661.306 574.757 661.486 574.83 661.687 574.874C661.889 574.919 662.102 574.942 662.326 574.942ZM668.678 567.314H670.106V568.49H670.14C670.375 568.008 670.745 567.661 671.249 567.448C671.753 567.224 672.307 567.112 672.912 567.112C673.584 567.112 674.167 567.235 674.659 567.482C675.163 567.728 675.578 568.064 675.903 568.49C676.239 568.904 676.491 569.386 676.659 569.935C676.827 570.484 676.911 571.066 676.911 571.682C676.911 572.309 676.827 572.897 676.659 573.446C676.502 573.984 676.256 574.46 675.92 574.874C675.595 575.278 675.18 575.597 674.676 575.832C674.183 576.067 673.607 576.185 672.946 576.185C672.722 576.185 672.481 576.162 672.223 576.118C671.966 576.073 671.708 576 671.45 575.899C671.193 575.798 670.946 575.664 670.711 575.496C670.487 575.317 670.297 575.098 670.14 574.841H670.106V579.31H668.678V567.314ZM672.795 574.942C673.276 574.942 673.685 574.846 674.021 574.656C674.357 574.466 674.626 574.213 674.827 573.9C675.029 573.586 675.175 573.228 675.264 572.825C675.354 572.421 675.399 572.007 675.399 571.581C675.399 571.178 675.343 570.786 675.231 570.405C675.13 570.013 674.967 569.666 674.743 569.364C674.531 569.061 674.251 568.82 673.903 568.641C673.567 568.462 673.17 568.372 672.711 568.372C672.229 568.372 671.82 568.468 671.484 568.658C671.148 568.848 670.874 569.1 670.661 569.414C670.448 569.716 670.291 570.064 670.19 570.456C670.101 570.848 670.056 571.245 670.056 571.649C670.056 572.074 670.106 572.489 670.207 572.892C670.308 573.284 670.465 573.631 670.678 573.933C670.902 574.236 671.187 574.482 671.534 574.673C671.882 574.852 672.302 574.942 672.795 574.942ZM678.587 567.314H680.015V570.775H684.417V567.314H685.845V576H684.417V572.001H680.015V576H678.587V567.314ZM687.988 567.314H689.416V574.404L693.516 567.314H695.347V576H693.919V568.91L689.82 576H687.988V567.314ZM697.505 567.314H698.933V571.464L702.915 567.314H704.813L700.966 571.077L705.267 576H703.435L699.806 571.867L698.933 572.724V576H697.505V567.314ZM710.095 576.185C709.4 576.185 708.79 576.073 708.263 575.849C707.748 575.614 707.311 575.294 706.953 574.891C706.595 574.477 706.326 573.995 706.146 573.446C705.967 572.897 705.878 572.304 705.878 571.665C705.878 571.027 705.967 570.433 706.146 569.884C706.326 569.324 706.595 568.843 706.953 568.44C707.311 568.025 707.748 567.7 708.263 567.465C708.79 567.23 709.4 567.112 710.095 567.112C710.778 567.112 711.383 567.23 711.909 567.465C712.436 567.7 712.878 568.025 713.237 568.44C713.595 568.843 713.864 569.324 714.043 569.884C714.222 570.433 714.312 571.027 714.312 571.665C714.312 572.304 714.222 572.897 714.043 573.446C713.864 573.995 713.595 574.477 713.237 574.891C712.878 575.294 712.436 575.614 711.909 575.849C711.383 576.073 710.778 576.185 710.095 576.185ZM710.095 574.942C710.464 574.942 710.812 574.869 711.136 574.723C711.472 574.578 711.764 574.37 712.01 574.101C712.256 573.821 712.447 573.48 712.581 573.077C712.727 572.662 712.8 572.192 712.8 571.665C712.8 571.139 712.727 570.674 712.581 570.271C712.447 569.856 712.256 569.509 712.01 569.229C711.764 568.949 711.472 568.736 711.136 568.591C710.812 568.445 710.464 568.372 710.095 568.372C709.725 568.372 709.372 568.445 709.036 568.591C708.711 568.736 708.426 568.949 708.179 569.229C707.933 569.509 707.737 569.856 707.591 570.271C707.457 570.674 707.39 571.139 707.39 571.665C707.39 572.192 707.457 572.662 707.591 573.077C707.737 573.48 707.933 573.821 708.179 574.101C708.426 574.37 708.711 574.578 709.036 574.723C709.372 574.869 709.725 574.942 710.095 574.942ZM715.996 567.314H720.011C720.392 567.314 720.756 567.342 721.103 567.398C721.461 567.454 721.781 567.56 722.061 567.717C722.341 567.863 722.565 568.076 722.733 568.356C722.901 568.636 722.985 568.994 722.985 569.431C722.985 569.901 722.873 570.282 722.649 570.573C722.425 570.864 722.111 571.105 721.708 571.296V571.313C722.212 571.413 722.61 571.649 722.901 572.018C723.203 572.388 723.354 572.864 723.354 573.446C723.354 573.816 723.287 574.157 723.153 574.471C723.03 574.785 722.85 575.054 722.615 575.278C722.38 575.502 722.1 575.681 721.775 575.815C721.45 575.938 721.097 576 720.717 576H715.996V567.314ZM720.448 574.79C720.918 574.79 721.271 574.656 721.506 574.387C721.753 574.107 721.876 573.76 721.876 573.345C721.876 572.953 721.747 572.64 721.489 572.405C721.232 572.169 720.801 572.052 720.196 572.052H717.407V574.79H720.448ZM719.86 570.876C720.476 570.876 720.901 570.764 721.137 570.54C721.383 570.316 721.506 570.019 721.506 569.649C721.506 569.291 721.389 569.016 721.153 568.826C720.918 568.624 720.487 568.524 719.86 568.524H717.407V570.876H719.86ZM733.34 576.185C732.679 576.185 732.091 576.078 731.576 575.866C731.072 575.653 730.646 575.35 730.299 574.958C729.963 574.566 729.706 574.101 729.526 573.564C729.358 573.026 729.274 572.427 729.274 571.766C729.274 571.117 729.358 570.512 729.526 569.952C729.694 569.38 729.946 568.888 730.282 568.473C730.63 568.048 731.055 567.717 731.559 567.482C732.075 567.235 732.679 567.112 733.374 567.112C733.867 567.112 734.326 567.174 734.752 567.297C735.188 567.409 735.569 567.588 735.894 567.835C736.23 568.081 736.504 568.395 736.717 568.776C736.93 569.145 737.064 569.588 737.12 570.103H735.642C735.53 569.554 735.295 569.128 734.936 568.826C734.578 568.524 734.096 568.372 733.491 568.372C732.976 568.372 732.545 568.468 732.198 568.658C731.851 568.848 731.571 569.1 731.358 569.414C731.156 569.728 731.01 570.092 730.921 570.506C730.831 570.909 730.786 571.329 730.786 571.766C730.786 572.169 730.831 572.561 730.921 572.942C731.022 573.323 731.173 573.665 731.375 573.967C731.576 574.258 731.834 574.494 732.147 574.673C732.472 574.852 732.864 574.942 733.323 574.942C734.029 574.942 734.578 574.757 734.97 574.387C735.373 574.017 735.62 573.497 735.709 572.825H737.171C737.014 573.911 736.616 574.746 735.978 575.328C735.34 575.899 734.46 576.185 733.34 576.185ZM742.515 576.185C741.821 576.185 741.211 576.073 740.684 575.849C740.169 575.614 739.732 575.294 739.374 574.891C739.015 574.477 738.746 573.995 738.567 573.446C738.388 572.897 738.298 572.304 738.298 571.665C738.298 571.027 738.388 570.433 738.567 569.884C738.746 569.324 739.015 568.843 739.374 568.44C739.732 568.025 740.169 567.7 740.684 567.465C741.211 567.23 741.821 567.112 742.515 567.112C743.199 567.112 743.803 567.23 744.33 567.465C744.856 567.7 745.299 568.025 745.657 568.44C746.016 568.843 746.284 569.324 746.464 569.884C746.643 570.433 746.732 571.027 746.732 571.665C746.732 572.304 746.643 572.897 746.464 573.446C746.284 573.995 746.016 574.477 745.657 574.891C745.299 575.294 744.856 575.614 744.33 575.849C743.803 576.073 743.199 576.185 742.515 576.185ZM742.515 574.942C742.885 574.942 743.232 574.869 743.557 574.723C743.893 574.578 744.184 574.37 744.431 574.101C744.677 573.821 744.868 573.48 745.002 573.077C745.148 572.662 745.22 572.192 745.22 571.665C745.22 571.139 745.148 570.674 745.002 570.271C744.868 569.856 744.677 569.509 744.431 569.229C744.184 568.949 743.893 568.736 743.557 568.591C743.232 568.445 742.885 568.372 742.515 568.372C742.146 568.372 741.793 568.445 741.457 568.591C741.132 568.736 740.847 568.949 740.6 569.229C740.354 569.509 740.158 569.856 740.012 570.271C739.878 570.674 739.81 571.139 739.81 571.665C739.81 572.192 739.878 572.662 740.012 573.077C740.158 573.48 740.354 573.821 740.6 574.101C740.847 574.37 741.132 574.578 741.457 574.723C741.793 574.869 742.146 574.942 742.515 574.942ZM756.688 576.185C756.027 576.185 755.439 576.078 754.924 575.866C754.42 575.653 753.994 575.35 753.647 574.958C753.311 574.566 753.053 574.101 752.874 573.564C752.706 573.026 752.622 572.427 752.622 571.766C752.622 571.117 752.706 570.512 752.874 569.952C753.042 569.38 753.294 568.888 753.63 568.473C753.977 568.048 754.403 567.717 754.907 567.482C755.422 567.235 756.027 567.112 756.721 567.112C757.214 567.112 757.673 567.174 758.099 567.297C758.536 567.409 758.917 567.588 759.241 567.835C759.577 568.081 759.852 568.395 760.065 568.776C760.278 569.145 760.412 569.588 760.468 570.103H758.989C758.877 569.554 758.642 569.128 758.284 568.826C757.925 568.524 757.444 568.372 756.839 568.372C756.324 568.372 755.892 568.468 755.545 568.658C755.198 568.848 754.918 569.1 754.705 569.414C754.504 569.728 754.358 570.092 754.268 570.506C754.179 570.909 754.134 571.329 754.134 571.766C754.134 572.169 754.179 572.561 754.268 572.942C754.369 573.323 754.52 573.665 754.722 573.967C754.924 574.258 755.181 574.494 755.495 574.673C755.82 574.852 756.212 574.942 756.671 574.942C757.377 574.942 757.925 574.757 758.317 574.387C758.721 574.017 758.967 573.497 759.057 572.825H760.518C760.362 573.911 759.964 574.746 759.325 575.328C758.687 575.899 757.808 576.185 756.688 576.185ZM762.116 567.314H764.166L766.804 574.354H766.837L769.475 567.314H771.525V576H770.097V569.112L767.476 576H766.165L763.544 569.112V576H762.116V567.314ZM777.38 576.185C776.685 576.185 776.075 576.073 775.548 575.849C775.033 575.625 774.602 575.311 774.255 574.908C773.907 574.505 773.644 574.023 773.465 573.463C773.297 572.903 773.213 572.293 773.213 571.632C773.213 570.982 773.314 570.383 773.515 569.834C773.717 569.274 773.997 568.792 774.355 568.389C774.725 567.986 775.156 567.672 775.649 567.448C776.153 567.224 776.702 567.112 777.296 567.112C778.068 567.112 778.707 567.275 779.211 567.599C779.726 567.913 780.135 568.316 780.437 568.809C780.751 569.302 780.964 569.84 781.076 570.422C781.199 571.005 781.249 571.559 781.227 572.085H774.725C774.714 572.466 774.759 572.83 774.859 573.177C774.96 573.513 775.123 573.816 775.347 574.085C775.571 574.342 775.856 574.55 776.204 574.706C776.551 574.863 776.96 574.942 777.43 574.942C778.035 574.942 778.528 574.802 778.908 574.522C779.301 574.241 779.558 573.816 779.681 573.245H781.093C780.902 574.23 780.482 574.97 779.833 575.462C779.183 575.944 778.365 576.185 777.38 576.185ZM779.715 570.825C779.693 570.489 779.614 570.17 779.48 569.868C779.357 569.565 779.183 569.308 778.959 569.095C778.746 568.871 778.488 568.697 778.186 568.574C777.895 568.44 777.57 568.372 777.212 568.372C776.842 568.372 776.506 568.44 776.204 568.574C775.912 568.697 775.66 568.871 775.447 569.095C775.235 569.319 775.067 569.582 774.943 569.884C774.82 570.176 774.747 570.489 774.725 570.825H779.715ZM784.807 568.574H781.699V567.314H789.344V568.574H786.236V576H784.807V568.574ZM792.887 576.185C792.495 576.185 792.125 576.14 791.778 576.05C791.431 575.972 791.123 575.838 790.854 575.647C790.596 575.446 790.389 575.194 790.232 574.891C790.087 574.578 790.014 574.202 790.014 573.765C790.014 573.273 790.098 572.869 790.266 572.556C790.434 572.242 790.652 571.99 790.921 571.8C791.201 571.598 791.515 571.447 791.862 571.346C792.22 571.245 792.584 571.161 792.954 571.094C793.346 571.016 793.716 570.96 794.063 570.926C794.421 570.881 794.735 570.825 795.004 570.758C795.273 570.68 795.485 570.573 795.642 570.439C795.799 570.293 795.877 570.086 795.877 569.817C795.877 569.504 795.816 569.252 795.693 569.061C795.581 568.871 795.429 568.725 795.239 568.624C795.06 568.524 794.853 568.456 794.617 568.423C794.393 568.389 794.169 568.372 793.945 568.372C793.341 568.372 792.837 568.49 792.433 568.725C792.03 568.949 791.812 569.38 791.778 570.019H790.35C790.372 569.481 790.484 569.028 790.686 568.658C790.888 568.288 791.156 567.992 791.492 567.768C791.828 567.532 792.209 567.364 792.635 567.263C793.072 567.163 793.537 567.112 794.029 567.112C794.421 567.112 794.808 567.14 795.189 567.196C795.581 567.252 795.933 567.37 796.247 567.549C796.561 567.717 796.813 567.958 797.003 568.272C797.194 568.585 797.289 568.994 797.289 569.498V573.967C797.289 574.303 797.306 574.55 797.339 574.706C797.384 574.863 797.518 574.942 797.742 574.942C797.843 574.942 797.989 574.914 798.179 574.858V575.966C797.933 576.112 797.591 576.185 797.154 576.185C796.785 576.185 796.488 576.084 796.264 575.882C796.051 575.67 795.945 575.328 795.945 574.858C795.553 575.328 795.093 575.67 794.567 575.882C794.052 576.084 793.492 576.185 792.887 576.185ZM793.206 574.942C793.677 574.942 794.08 574.88 794.416 574.757C794.752 574.622 795.026 574.46 795.239 574.269C795.452 574.068 795.609 573.855 795.709 573.631C795.81 573.396 795.861 573.177 795.861 572.976V571.514C795.681 571.66 795.446 571.761 795.155 571.817C794.864 571.873 794.556 571.923 794.231 571.968C793.917 572.013 793.598 572.057 793.273 572.102C792.949 572.147 792.657 572.225 792.4 572.337C792.142 572.449 791.929 572.612 791.761 572.825C791.604 573.026 791.526 573.306 791.526 573.665C791.526 573.9 791.571 574.101 791.66 574.269C791.761 574.426 791.884 574.555 792.03 574.656C792.187 574.757 792.366 574.83 792.568 574.874C792.769 574.919 792.982 574.942 793.206 574.942ZM799.508 567.314H800.936V570.775H805.338V567.314H806.766V576H805.338V572.001H800.936V576H799.508V567.314ZM812.656 576.185C811.962 576.185 811.351 576.073 810.825 575.849C810.31 575.614 809.873 575.294 809.515 574.891C809.156 574.477 808.887 573.995 808.708 573.446C808.529 572.897 808.439 572.304 808.439 571.665C808.439 571.027 808.529 570.433 808.708 569.884C808.887 569.324 809.156 568.843 809.515 568.44C809.873 568.025 810.31 567.7 810.825 567.465C811.351 567.23 811.962 567.112 812.656 567.112C813.34 567.112 813.944 567.23 814.471 567.465C814.997 567.7 815.44 568.025 815.798 568.44C816.157 568.843 816.425 569.324 816.605 569.884C816.784 570.433 816.873 571.027 816.873 571.665C816.873 572.304 816.784 572.897 816.605 573.446C816.425 573.995 816.157 574.477 815.798 574.891C815.44 575.294 814.997 575.614 814.471 575.849C813.944 576.073 813.34 576.185 812.656 576.185ZM812.656 574.942C813.026 574.942 813.373 574.869 813.698 574.723C814.034 574.578 814.325 574.37 814.572 574.101C814.818 573.821 815.008 573.48 815.143 573.077C815.288 572.662 815.361 572.192 815.361 571.665C815.361 571.139 815.288 570.674 815.143 570.271C815.008 569.856 814.818 569.509 814.572 569.229C814.325 568.949 814.034 568.736 813.698 568.591C813.373 568.445 813.026 568.372 812.656 568.372C812.287 568.372 811.934 568.445 811.598 568.591C811.273 568.736 810.987 568.949 810.741 569.229C810.495 569.509 810.299 569.856 810.153 570.271C810.019 570.674 809.951 571.139 809.951 571.665C809.951 572.192 810.019 572.662 810.153 573.077C810.299 573.48 810.495 573.821 810.741 574.101C810.987 574.37 811.273 574.578 811.598 574.723C811.934 574.869 812.287 574.942 812.656 574.942ZM818.557 567.314H819.985V574.404L824.085 567.314H825.916V576H824.488V568.91L820.388 576H818.557V567.314ZM822.237 566.037C821.901 566.037 821.587 565.987 821.296 565.886C821.004 565.785 820.747 565.639 820.523 565.449C820.31 565.259 820.136 565.029 820.002 564.76C819.879 564.48 819.817 564.161 819.817 563.802H821.01C821.032 564.631 821.436 565.046 822.22 565.046C822.612 565.046 822.909 564.939 823.11 564.727C823.323 564.503 823.429 564.194 823.429 563.802H824.622C824.622 564.138 824.561 564.447 824.437 564.727C824.314 565.007 824.146 565.242 823.933 565.432C823.721 565.623 823.469 565.774 823.177 565.886C822.886 565.987 822.573 566.037 822.237 566.037ZM836.345 576.185C835.684 576.185 835.096 576.078 834.581 575.866C834.077 575.653 833.651 575.35 833.304 574.958C832.968 574.566 832.71 574.101 832.531 573.564C832.363 573.026 832.279 572.427 832.279 571.766C832.279 571.117 832.363 570.512 832.531 569.952C832.699 569.38 832.951 568.888 833.287 568.473C833.634 568.048 834.06 567.717 834.564 567.482C835.079 567.235 835.684 567.112 836.378 567.112C836.871 567.112 837.33 567.174 837.756 567.297C838.193 567.409 838.574 567.588 838.899 567.835C839.235 568.081 839.509 568.395 839.722 568.776C839.935 569.145 840.069 569.588 840.125 570.103H838.647C838.535 569.554 838.299 569.128 837.941 568.826C837.582 568.524 837.101 568.372 836.496 568.372C835.981 568.372 835.55 568.468 835.202 568.658C834.855 568.848 834.575 569.1 834.362 569.414C834.161 569.728 834.015 570.092 833.925 570.506C833.836 570.909 833.791 571.329 833.791 571.766C833.791 572.169 833.836 572.561 833.925 572.942C834.026 573.323 834.177 573.665 834.379 573.967C834.581 574.258 834.838 574.494 835.152 574.673C835.477 574.852 835.869 574.942 836.328 574.942C837.034 574.942 837.582 574.757 837.975 574.387C838.378 574.017 838.624 573.497 838.714 572.825H840.175C840.019 573.911 839.621 574.746 838.983 575.328C838.344 575.899 837.465 576.185 836.345 576.185ZM846.449 567.314H847.877V571.464L851.859 567.314H853.758L849.91 571.077L854.211 576H852.38L848.751 571.867L847.877 572.724V576H846.449V567.314ZM856.183 579.461C856.015 579.461 855.847 579.45 855.679 579.427C855.511 579.405 855.349 579.366 855.192 579.31V577.999C855.327 578.044 855.461 578.089 855.595 578.134C855.741 578.179 855.887 578.201 856.032 578.201C856.323 578.201 856.559 578.134 856.738 577.999C856.917 577.865 857.074 577.669 857.208 577.411L857.796 575.95L854.352 567.314H855.965L858.502 574.421H858.536L860.972 567.314H862.484L858.704 577.142C858.536 577.568 858.367 577.927 858.199 578.218C858.043 578.509 857.863 578.744 857.662 578.923C857.471 579.114 857.253 579.248 857.007 579.327C856.771 579.416 856.497 579.461 856.183 579.461ZM866.029 571.43L863.005 567.314H864.836L866.919 570.355L869.087 567.314H870.8L867.81 571.313L871.17 576H869.339L866.919 572.405L864.5 576H862.769L866.029 571.43ZM872.389 567.314H873.817V570.775H878.219V567.314H879.647V576H878.219V572.001H873.817V576H872.389V567.314ZM881.791 567.314H883.219V574.404L887.318 567.314H889.149V576H887.721V568.91L883.622 576H881.791V567.314ZM539.446 587.314H543.461C543.842 587.314 544.206 587.342 544.553 587.398C544.911 587.454 545.231 587.56 545.511 587.717C545.791 587.863 546.015 588.076 546.183 588.356C546.351 588.636 546.435 588.994 546.435 589.431C546.435 589.901 546.323 590.282 546.099 590.573C545.875 590.864 545.561 591.105 545.158 591.296V591.313C545.662 591.413 546.06 591.649 546.351 592.018C546.653 592.388 546.804 592.864 546.804 593.446C546.804 593.816 546.737 594.157 546.603 594.471C546.48 594.785 546.3 595.054 546.065 595.278C545.83 595.502 545.55 595.681 545.225 595.815C544.9 595.938 544.547 596 544.167 596H539.446V587.314ZM543.898 594.79C544.368 594.79 544.721 594.656 544.956 594.387C545.203 594.107 545.326 593.76 545.326 593.345C545.326 592.953 545.197 592.64 544.939 592.405C544.682 592.169 544.251 592.052 543.646 592.052H540.857V594.79H543.898ZM543.31 590.876C543.926 590.876 544.351 590.764 544.587 590.54C544.833 590.316 544.956 590.019 544.956 589.649C544.956 589.291 544.839 589.016 544.603 588.826C544.368 588.624 543.937 588.524 543.31 588.524H540.857V590.876H543.31ZM558.101 596V584.088H557.009C556.93 584.536 556.785 584.906 556.572 585.197C556.359 585.488 556.096 585.718 555.782 585.886C555.48 586.054 555.138 586.171 554.757 586.239C554.376 586.295 553.984 586.323 553.581 586.323V587.465H556.673V596H558.101ZM565.118 589.196V590.405C565.387 590.372 565.672 590.355 565.975 590.355C566.333 590.355 566.664 590.405 566.966 590.506C567.28 590.596 567.548 590.741 567.772 590.943C567.996 591.133 568.176 591.374 568.31 591.665C568.444 591.945 568.512 592.27 568.512 592.64C568.512 592.998 568.439 593.323 568.293 593.614C568.159 593.894 567.974 594.135 567.739 594.337C567.504 594.527 567.229 594.678 566.916 594.79C566.602 594.891 566.272 594.942 565.924 594.942C565.107 594.942 564.485 594.701 564.059 594.219C563.634 593.726 563.41 593.093 563.387 592.321H561.959C561.948 592.937 562.032 593.485 562.211 593.967C562.402 594.449 562.671 594.858 563.018 595.194C563.365 595.518 563.785 595.765 564.278 595.933C564.771 596.101 565.319 596.185 565.924 596.185C566.484 596.185 567.011 596.112 567.504 595.966C568.008 595.81 568.444 595.58 568.814 595.278C569.184 594.975 569.475 594.6 569.688 594.152C569.912 593.693 570.024 593.166 570.024 592.573C570.024 591.856 569.845 591.234 569.486 590.708C569.139 590.181 568.601 589.84 567.873 589.683V589.649C568.344 589.436 568.736 589.123 569.049 588.708C569.363 588.294 569.52 587.818 569.52 587.28C569.52 586.731 569.425 586.255 569.234 585.852C569.055 585.449 568.803 585.119 568.478 584.861C568.153 584.603 567.767 584.413 567.319 584.29C566.882 584.155 566.406 584.088 565.891 584.088C565.297 584.088 564.771 584.183 564.311 584.374C563.863 584.564 563.488 584.827 563.186 585.163C562.883 585.499 562.648 585.903 562.48 586.373C562.323 586.843 562.234 587.364 562.211 587.936H563.639C563.639 587.588 563.684 587.258 563.774 586.944C563.863 586.631 563.998 586.356 564.177 586.121C564.367 585.886 564.603 585.701 564.883 585.567C565.174 585.421 565.51 585.348 565.891 585.348C566.496 585.348 567 585.511 567.403 585.835C567.806 586.149 568.008 586.625 568.008 587.263C568.008 587.577 567.946 587.857 567.823 588.104C567.7 588.35 567.532 588.557 567.319 588.725C567.117 588.882 566.876 589.005 566.596 589.095C566.328 589.173 566.042 589.212 565.74 589.212H565.437C565.381 589.212 565.325 589.212 565.269 589.212C565.224 589.212 565.174 589.207 565.118 589.196ZM574.05 589.179V587.314H572.185V589.179H574.05ZM572.185 594.135V596H574.05V594.135H572.185ZM577.685 590.136C577.685 589.845 577.685 589.526 577.685 589.179C577.696 588.82 577.724 588.468 577.769 588.12C577.825 587.762 577.898 587.415 577.987 587.079C578.088 586.743 578.228 586.451 578.407 586.205C578.598 585.947 578.833 585.74 579.113 585.583C579.393 585.427 579.734 585.348 580.138 585.348C580.541 585.348 580.883 585.427 581.163 585.583C581.443 585.74 581.672 585.947 581.851 586.205C582.042 586.451 582.182 586.743 582.271 587.079C582.372 587.415 582.445 587.762 582.49 588.12C582.546 588.468 582.574 588.82 582.574 589.179C582.585 589.526 582.591 589.845 582.591 590.136C582.591 590.584 582.574 591.089 582.54 591.649C582.518 592.197 582.428 592.718 582.271 593.211C582.126 593.693 581.885 594.101 581.549 594.438C581.213 594.774 580.743 594.942 580.138 594.942C579.533 594.942 579.062 594.774 578.726 594.438C578.39 594.101 578.144 593.693 577.987 593.211C577.842 592.718 577.752 592.197 577.718 591.649C577.696 591.089 577.685 590.584 577.685 590.136ZM576.173 590.153C576.173 590.59 576.184 591.044 576.206 591.514C576.229 591.985 576.285 592.444 576.374 592.892C576.464 593.34 576.593 593.765 576.761 594.169C576.929 594.561 577.158 594.908 577.45 595.21C577.741 595.513 578.105 595.754 578.542 595.933C578.99 596.101 579.522 596.185 580.138 596.185C580.765 596.185 581.297 596.101 581.734 595.933C582.171 595.754 582.535 595.513 582.826 595.21C583.117 594.908 583.347 594.561 583.515 594.169C583.683 593.765 583.812 593.34 583.901 592.892C583.991 592.444 584.047 591.985 584.069 591.514C584.092 591.044 584.103 590.59 584.103 590.153C584.103 589.716 584.092 589.263 584.069 588.792C584.047 588.322 583.991 587.863 583.901 587.415C583.812 586.967 583.683 586.541 583.515 586.138C583.347 585.735 583.117 585.382 582.826 585.079C582.535 584.777 582.165 584.536 581.717 584.357C581.28 584.178 580.754 584.088 580.138 584.088C579.522 584.088 578.99 584.178 578.542 584.357C578.105 584.536 577.741 584.777 577.45 585.079C577.158 585.382 576.929 585.735 576.761 586.138C576.593 586.541 576.464 586.967 576.374 587.415C576.285 587.863 576.229 588.322 576.206 588.792C576.184 589.263 576.173 589.716 576.173 590.153ZM587.02 590.136C587.02 589.845 587.02 589.526 587.02 589.179C587.032 588.82 587.06 588.468 587.104 588.12C587.16 587.762 587.233 587.415 587.323 587.079C587.424 586.743 587.564 586.451 587.743 586.205C587.933 585.947 588.169 585.74 588.449 585.583C588.729 585.427 589.07 585.348 589.473 585.348C589.877 585.348 590.218 585.427 590.498 585.583C590.778 585.74 591.008 585.947 591.187 586.205C591.378 586.451 591.518 586.743 591.607 587.079C591.708 587.415 591.781 587.762 591.826 588.12C591.882 588.468 591.91 588.82 591.91 589.179C591.921 589.526 591.926 589.845 591.926 590.136C591.926 590.584 591.91 591.089 591.876 591.649C591.854 592.197 591.764 592.718 591.607 593.211C591.462 593.693 591.221 594.101 590.885 594.438C590.549 594.774 590.078 594.942 589.473 594.942C588.869 594.942 588.398 594.774 588.062 594.438C587.726 594.101 587.48 593.693 587.323 593.211C587.177 592.718 587.088 592.197 587.054 591.649C587.032 591.089 587.02 590.584 587.02 590.136ZM585.508 590.153C585.508 590.59 585.52 591.044 585.542 591.514C585.564 591.985 585.62 592.444 585.71 592.892C585.8 593.34 585.928 593.765 586.096 594.169C586.264 594.561 586.494 594.908 586.785 595.21C587.076 595.513 587.44 595.754 587.877 595.933C588.325 596.101 588.857 596.185 589.473 596.185C590.101 596.185 590.633 596.101 591.07 595.933C591.506 595.754 591.87 595.513 592.162 595.21C592.453 594.908 592.682 594.561 592.85 594.169C593.018 593.765 593.147 593.34 593.237 592.892C593.326 592.444 593.382 591.985 593.405 591.514C593.427 591.044 593.438 590.59 593.438 590.153C593.438 589.716 593.427 589.263 593.405 588.792C593.382 588.322 593.326 587.863 593.237 587.415C593.147 586.967 593.018 586.541 592.85 586.138C592.682 585.735 592.453 585.382 592.162 585.079C591.87 584.777 591.501 584.536 591.053 584.357C590.616 584.178 590.089 584.088 589.473 584.088C588.857 584.088 588.325 584.178 587.877 584.357C587.44 584.536 587.076 584.777 586.785 585.079C586.494 585.382 586.264 585.735 586.096 586.138C585.928 586.541 585.8 586.967 585.71 587.415C585.62 587.863 585.564 588.322 585.542 588.792C585.52 589.263 585.508 589.716 585.508 590.153ZM595.533 594.135V596H597.398V594.135H595.533ZM609.774 592.472C609.517 592.584 609.158 592.69 608.699 592.791C608.24 592.892 607.758 592.942 607.254 592.942C606.179 592.942 605.411 592.713 604.952 592.253C604.493 591.783 604.263 591.128 604.263 590.288V587.314H605.692V590.052C605.692 590.624 605.82 591.049 606.078 591.329C606.347 591.598 606.828 591.733 607.523 591.733C607.948 591.733 608.368 591.688 608.783 591.598C609.197 591.509 609.528 591.408 609.774 591.296V587.314H611.202V596H609.774V592.472ZM617.056 596.185C616.362 596.185 615.751 596.073 615.225 595.849C614.71 595.625 614.279 595.311 613.931 594.908C613.584 594.505 613.321 594.023 613.142 593.463C612.974 592.903 612.89 592.293 612.89 591.632C612.89 590.982 612.99 590.383 613.192 589.834C613.394 589.274 613.674 588.792 614.032 588.389C614.402 587.986 614.833 587.672 615.326 587.448C615.83 587.224 616.379 587.112 616.972 587.112C617.745 587.112 618.384 587.275 618.888 587.599C619.403 587.913 619.812 588.316 620.114 588.809C620.428 589.302 620.641 589.84 620.753 590.422C620.876 591.005 620.926 591.559 620.904 592.085H614.402C614.391 592.466 614.435 592.83 614.536 593.177C614.637 593.513 614.799 593.816 615.023 594.085C615.247 594.342 615.533 594.55 615.88 594.706C616.227 594.863 616.636 594.942 617.107 594.942C617.712 594.942 618.204 594.802 618.585 594.522C618.977 594.241 619.235 593.816 619.358 593.245H620.769C620.579 594.23 620.159 594.97 619.509 595.462C618.86 595.944 618.042 596.185 617.056 596.185ZM619.392 590.825C619.369 590.489 619.291 590.17 619.156 589.868C619.033 589.565 618.86 589.308 618.636 589.095C618.423 588.871 618.165 588.697 617.863 588.574C617.572 588.44 617.247 588.372 616.888 588.372C616.519 588.372 616.183 588.44 615.88 588.574C615.589 588.697 615.337 588.871 615.124 589.095C614.911 589.319 614.743 589.582 614.62 589.884C614.497 590.176 614.424 590.489 614.402 590.825H619.392ZM625.98 596.185C625.319 596.185 624.731 596.078 624.215 595.866C623.711 595.653 623.286 595.35 622.939 594.958C622.603 594.566 622.345 594.101 622.166 593.564C621.998 593.026 621.914 592.427 621.914 591.766C621.914 591.117 621.998 590.512 622.166 589.952C622.334 589.38 622.586 588.888 622.922 588.473C623.269 588.048 623.695 587.717 624.199 587.482C624.714 587.235 625.319 587.112 626.013 587.112C626.506 587.112 626.965 587.174 627.391 587.297C627.828 587.409 628.208 587.588 628.533 587.835C628.869 588.081 629.144 588.395 629.357 588.776C629.569 589.145 629.704 589.588 629.76 590.103H628.281C628.169 589.554 627.934 589.128 627.576 588.826C627.217 588.524 626.736 588.372 626.131 588.372C625.615 588.372 625.184 588.468 624.837 588.658C624.49 588.848 624.21 589.1 623.997 589.414C623.795 589.728 623.65 590.092 623.56 590.506C623.471 590.909 623.426 591.329 623.426 591.766C623.426 592.169 623.471 592.561 623.56 592.942C623.661 593.323 623.812 593.665 624.014 593.967C624.215 594.258 624.473 594.494 624.787 594.673C625.111 594.852 625.503 594.942 625.963 594.942C626.668 594.942 627.217 594.757 627.609 594.387C628.012 594.017 628.259 593.497 628.348 592.825H629.81C629.653 593.911 629.256 594.746 628.617 595.328C627.979 595.899 627.1 596.185 625.98 596.185ZM633.508 588.574H630.4V587.314H638.044V588.574H634.936V596H633.508V588.574ZM639.185 587.314H640.613V590.775H645.015V587.314H646.443V596H645.015V592.001H640.613V596H639.185V587.314ZM652.333 596.185C651.639 596.185 651.028 596.073 650.502 595.849C649.987 595.614 649.55 595.294 649.191 594.891C648.833 594.477 648.564 593.995 648.385 593.446C648.206 592.897 648.116 592.304 648.116 591.665C648.116 591.027 648.206 590.433 648.385 589.884C648.564 589.324 648.833 588.843 649.191 588.44C649.55 588.025 649.987 587.7 650.502 587.465C651.028 587.23 651.639 587.112 652.333 587.112C653.016 587.112 653.621 587.23 654.148 587.465C654.674 587.7 655.116 588.025 655.475 588.44C655.833 588.843 656.102 589.324 656.281 589.884C656.461 590.433 656.55 591.027 656.55 591.665C656.55 592.304 656.461 592.897 656.281 593.446C656.102 593.995 655.833 594.477 655.475 594.891C655.116 595.294 654.674 595.614 654.148 595.849C653.621 596.073 653.016 596.185 652.333 596.185ZM652.333 594.942C652.703 594.942 653.05 594.869 653.375 594.723C653.711 594.578 654.002 594.37 654.248 594.101C654.495 593.821 654.685 593.48 654.82 593.077C654.965 592.662 655.038 592.192 655.038 591.665C655.038 591.139 654.965 590.674 654.82 590.271C654.685 589.856 654.495 589.509 654.248 589.229C654.002 588.949 653.711 588.736 653.375 588.591C653.05 588.445 652.703 588.372 652.333 588.372C651.963 588.372 651.611 588.445 651.275 588.591C650.95 588.736 650.664 588.949 650.418 589.229C650.171 589.509 649.975 589.856 649.83 590.271C649.695 590.674 649.628 591.139 649.628 591.665C649.628 592.192 649.695 592.662 649.83 593.077C649.975 593.48 650.171 593.821 650.418 594.101C650.664 594.37 650.95 594.578 651.275 594.723C651.611 594.869 651.963 594.942 652.333 594.942ZM666.657 596.185C665.962 596.185 665.352 596.073 664.825 595.849C664.31 595.614 663.873 595.294 663.515 594.891C663.156 594.477 662.888 593.995 662.708 593.446C662.529 592.897 662.44 592.304 662.44 591.665C662.44 591.027 662.529 590.433 662.708 589.884C662.888 589.324 663.156 588.843 663.515 588.44C663.873 588.025 664.31 587.7 664.825 587.465C665.352 587.23 665.962 587.112 666.657 587.112C667.34 587.112 667.945 587.23 668.471 587.465C668.998 587.7 669.44 588.025 669.798 588.44C670.157 588.843 670.426 589.324 670.605 589.884C670.784 590.433 670.874 591.027 670.874 591.665C670.874 592.304 670.784 592.897 670.605 593.446C670.426 593.995 670.157 594.477 669.798 594.891C669.44 595.294 668.998 595.614 668.471 595.849C667.945 596.073 667.34 596.185 666.657 596.185ZM666.657 594.942C667.026 594.942 667.373 594.869 667.698 594.723C668.034 594.578 668.325 594.37 668.572 594.101C668.818 593.821 669.009 593.48 669.143 593.077C669.289 592.662 669.362 592.192 669.362 591.665C669.362 591.139 669.289 590.674 669.143 590.271C669.009 589.856 668.818 589.509 668.572 589.229C668.325 588.949 668.034 588.736 667.698 588.591C667.373 588.445 667.026 588.372 666.657 588.372C666.287 588.372 665.934 588.445 665.598 588.591C665.273 588.736 664.988 588.949 664.741 589.229C664.495 589.509 664.299 589.856 664.153 590.271C664.019 590.674 663.952 591.139 663.952 591.665C663.952 592.192 664.019 592.662 664.153 593.077C664.299 593.48 664.495 593.821 664.741 594.101C664.988 594.37 665.273 594.578 665.598 594.723C665.934 594.869 666.287 594.942 666.657 594.942ZM674.658 588.574H671.549V587.314H679.194V588.574H676.086V596H674.658V588.574ZM680.334 587.314H684.35C684.731 587.314 685.095 587.342 685.442 587.398C685.8 587.454 686.12 587.56 686.4 587.717C686.68 587.863 686.904 588.076 687.072 588.356C687.24 588.636 687.324 588.994 687.324 589.431C687.324 589.901 687.212 590.282 686.988 590.573C686.764 590.864 686.45 591.105 686.047 591.296V591.313C686.551 591.413 686.948 591.649 687.24 592.018C687.542 592.388 687.693 592.864 687.693 593.446C687.693 593.816 687.626 594.157 687.492 594.471C687.368 594.785 687.189 595.054 686.954 595.278C686.719 595.502 686.439 595.681 686.114 595.815C685.789 595.938 685.436 596 685.056 596H680.334V587.314ZM684.787 594.79C685.257 594.79 685.61 594.656 685.845 594.387C686.092 594.107 686.215 593.76 686.215 593.345C686.215 592.953 686.086 592.64 685.828 592.405C685.571 592.169 685.14 592.052 684.535 592.052H681.746V594.79H684.787ZM684.199 590.876C684.815 590.876 685.24 590.764 685.476 590.54C685.722 590.316 685.845 590.019 685.845 589.649C685.845 589.291 685.728 589.016 685.492 588.826C685.257 588.624 684.826 588.524 684.199 588.524H681.746V590.876H684.199ZM693.104 596.185C692.409 596.185 691.799 596.073 691.273 595.849C690.757 595.625 690.326 595.311 689.979 594.908C689.632 594.505 689.368 594.023 689.189 593.463C689.021 592.903 688.937 592.293 688.937 591.632C688.937 590.982 689.038 590.383 689.24 589.834C689.441 589.274 689.721 588.792 690.08 588.389C690.449 587.986 690.881 587.672 691.373 587.448C691.877 587.224 692.426 587.112 693.02 587.112C693.793 587.112 694.431 587.275 694.935 587.599C695.45 587.913 695.859 588.316 696.162 588.809C696.475 589.302 696.688 589.84 696.8 590.422C696.923 591.005 696.974 591.559 696.951 592.085H690.449C690.438 592.466 690.483 592.83 690.584 593.177C690.684 593.513 690.847 593.816 691.071 594.085C691.295 594.342 691.581 594.55 691.928 594.706C692.275 594.863 692.684 594.942 693.154 594.942C693.759 594.942 694.252 594.802 694.633 594.522C695.025 594.241 695.282 593.816 695.406 593.245H696.817C696.626 594.23 696.206 594.97 695.557 595.462C694.907 595.944 694.089 596.185 693.104 596.185ZM695.439 590.825C695.417 590.489 695.338 590.17 695.204 589.868C695.081 589.565 694.907 589.308 694.683 589.095C694.47 588.871 694.213 588.697 693.91 588.574C693.619 588.44 693.294 588.372 692.936 588.372C692.566 588.372 692.23 588.44 691.928 588.574C691.637 588.697 691.385 588.871 691.172 589.095C690.959 589.319 690.791 589.582 690.668 589.884C690.544 590.176 690.472 590.489 690.449 590.825H695.439ZM700.532 588.574H697.424V587.314H705.068V588.574H701.96V596H700.532V588.574ZM706.293 587.314H707.721V590.64H710.812C711.663 590.64 712.347 590.876 712.862 591.346C713.377 591.805 713.635 592.455 713.635 593.295C713.635 594.113 713.388 594.768 712.895 595.261C712.403 595.754 711.731 596 710.879 596H706.293V587.314ZM710.358 594.74C711.557 594.74 712.156 594.258 712.156 593.295C712.156 592.343 711.557 591.867 710.358 591.867H707.721V594.74H710.358ZM717.283 588.574H714.175V587.314H721.82V588.574H718.712V596H717.283V588.574ZM726.657 596.185C725.962 596.185 725.352 596.073 724.825 595.849C724.31 595.625 723.879 595.311 723.532 594.908C723.184 594.505 722.921 594.023 722.742 593.463C722.574 592.903 722.49 592.293 722.49 591.632C722.49 590.982 722.591 590.383 722.792 589.834C722.994 589.274 723.274 588.792 723.632 588.389C724.002 587.986 724.433 587.672 724.926 587.448C725.43 587.224 725.979 587.112 726.573 587.112C727.345 587.112 727.984 587.275 728.488 587.599C729.003 587.913 729.412 588.316 729.714 588.809C730.028 589.302 730.241 589.84 730.353 590.422C730.476 591.005 730.526 591.559 730.504 592.085H724.002C723.991 592.466 724.036 592.83 724.136 593.177C724.237 593.513 724.4 593.816 724.624 594.085C724.848 594.342 725.133 594.55 725.481 594.706C725.828 594.863 726.237 594.942 726.707 594.942C727.312 594.942 727.805 594.802 728.186 594.522C728.578 594.241 728.835 593.816 728.958 593.245H730.37C730.179 594.23 729.759 594.97 729.11 595.462C728.46 595.944 727.642 596.185 726.657 596.185ZM728.992 590.825C728.97 590.489 728.891 590.17 728.757 589.868C728.634 589.565 728.46 589.308 728.236 589.095C728.023 588.871 727.765 588.697 727.463 588.574C727.172 588.44 726.847 588.372 726.489 588.372C726.119 588.372 725.783 588.44 725.481 588.574C725.189 588.697 724.937 588.871 724.725 589.095C724.512 589.319 724.344 589.582 724.22 589.884C724.097 590.176 724.024 590.489 724.002 590.825H728.992ZM736.66 587.314H738.089V590.775H742.49V587.314H743.918V596H742.49V592.001H738.089V596H736.66V587.314ZM748.464 596.185C748.072 596.185 747.703 596.14 747.355 596.05C747.008 595.972 746.7 595.838 746.431 595.647C746.174 595.446 745.967 595.194 745.81 594.891C745.664 594.578 745.591 594.202 745.591 593.765C745.591 593.273 745.675 592.869 745.843 592.556C746.011 592.242 746.23 591.99 746.499 591.8C746.779 591.598 747.092 591.447 747.439 591.346C747.798 591.245 748.162 591.161 748.532 591.094C748.924 591.016 749.293 590.96 749.64 590.926C749.999 590.881 750.312 590.825 750.581 590.758C750.85 590.68 751.063 590.573 751.22 590.439C751.377 590.293 751.455 590.086 751.455 589.817C751.455 589.504 751.393 589.252 751.27 589.061C751.158 588.871 751.007 588.725 750.816 588.624C750.637 588.524 750.43 588.456 750.195 588.423C749.971 588.389 749.747 588.372 749.523 588.372C748.918 588.372 748.414 588.49 748.011 588.725C747.607 588.949 747.389 589.38 747.355 590.019H745.927C745.95 589.481 746.062 589.028 746.263 588.658C746.465 588.288 746.734 587.992 747.07 587.768C747.406 587.532 747.787 587.364 748.212 587.263C748.649 587.163 749.114 587.112 749.607 587.112C749.999 587.112 750.385 587.14 750.766 587.196C751.158 587.252 751.511 587.37 751.825 587.549C752.138 587.717 752.39 587.958 752.581 588.272C752.771 588.585 752.866 588.994 752.866 589.498V593.967C752.866 594.303 752.883 594.55 752.917 594.706C752.961 594.863 753.096 594.942 753.32 594.942C753.421 594.942 753.566 594.914 753.757 594.858V595.966C753.51 596.112 753.169 596.185 752.732 596.185C752.362 596.185 752.065 596.084 751.841 595.882C751.629 595.67 751.522 595.328 751.522 594.858C751.13 595.328 750.671 595.67 750.144 595.882C749.629 596.084 749.069 596.185 748.464 596.185ZM748.784 594.942C749.254 594.942 749.657 594.88 749.993 594.757C750.329 594.622 750.604 594.46 750.816 594.269C751.029 594.068 751.186 593.855 751.287 593.631C751.388 593.396 751.438 593.177 751.438 592.976V591.514C751.259 591.66 751.024 591.761 750.732 591.817C750.441 591.873 750.133 591.923 749.808 591.968C749.495 592.013 749.176 592.057 748.851 592.102C748.526 592.147 748.235 592.225 747.977 592.337C747.719 592.449 747.507 592.612 747.339 592.825C747.182 593.026 747.103 593.306 747.103 593.665C747.103 593.9 747.148 594.101 747.238 594.269C747.339 594.426 747.462 594.555 747.607 594.656C747.764 594.757 747.944 594.83 748.145 594.874C748.347 594.919 748.56 594.942 748.784 594.942ZM759.762 587.314H763.777C764.158 587.314 764.522 587.342 764.869 587.398C765.228 587.454 765.547 587.56 765.827 587.717C766.107 587.863 766.331 588.076 766.499 588.356C766.667 588.636 766.751 588.994 766.751 589.431C766.751 589.901 766.639 590.282 766.415 590.573C766.191 590.864 765.877 591.105 765.474 591.296V591.313C765.978 591.413 766.376 591.649 766.667 592.018C766.969 592.388 767.121 592.864 767.121 593.446C767.121 593.816 767.053 594.157 766.919 594.471C766.796 594.785 766.617 595.054 766.381 595.278C766.146 595.502 765.866 595.681 765.541 595.815C765.217 595.938 764.864 596 764.483 596H759.762V587.314ZM764.214 594.79C764.685 594.79 765.037 594.656 765.273 594.387C765.519 594.107 765.642 593.76 765.642 593.345C765.642 592.953 765.513 592.64 765.256 592.405C764.998 592.169 764.567 592.052 763.962 592.052H761.173V594.79H764.214ZM763.626 590.876C764.242 590.876 764.668 590.764 764.903 590.54C765.149 590.316 765.273 590.019 765.273 589.649C765.273 589.291 765.155 589.016 764.92 588.826C764.685 588.624 764.253 588.524 763.626 588.524H761.173V590.876H763.626ZM772.582 596.185C771.887 596.185 771.277 596.073 770.75 595.849C770.235 595.614 769.798 595.294 769.44 594.891C769.081 594.477 768.813 593.995 768.633 593.446C768.454 592.897 768.365 592.304 768.365 591.665C768.365 591.027 768.454 590.433 768.633 589.884C768.813 589.324 769.081 588.843 769.44 588.44C769.798 588.025 770.235 587.7 770.75 587.465C771.277 587.23 771.887 587.112 772.582 587.112C773.265 587.112 773.87 587.23 774.396 587.465C774.923 587.7 775.365 588.025 775.723 588.44C776.082 588.843 776.351 589.324 776.53 589.884C776.709 590.433 776.799 591.027 776.799 591.665C776.799 592.304 776.709 592.897 776.53 593.446C776.351 593.995 776.082 594.477 775.723 594.891C775.365 595.294 774.923 595.614 774.396 595.849C773.87 596.073 773.265 596.185 772.582 596.185ZM772.582 594.942C772.951 594.942 773.298 594.869 773.623 594.723C773.959 594.578 774.251 594.37 774.497 594.101C774.743 593.821 774.934 593.48 775.068 593.077C775.214 592.662 775.287 592.192 775.287 591.665C775.287 591.139 775.214 590.674 775.068 590.271C774.934 589.856 774.743 589.509 774.497 589.229C774.251 588.949 773.959 588.736 773.623 588.591C773.298 588.445 772.951 588.372 772.582 588.372C772.212 588.372 771.859 588.445 771.523 588.591C771.198 588.736 770.913 588.949 770.666 589.229C770.42 589.509 770.224 589.856 770.078 590.271C769.944 590.674 769.877 591.139 769.877 591.665C769.877 592.192 769.944 592.662 770.078 593.077C770.224 593.48 770.42 593.821 770.666 594.101C770.913 594.37 771.198 594.578 771.523 594.723C771.859 594.869 772.212 594.942 772.582 594.942ZM778.482 587.314H785.572V596H784.144V588.574H779.911V596H778.482V587.314ZM787.77 587.314H789.198V588.49H789.232C789.467 588.008 789.837 587.661 790.341 587.448C790.845 587.224 791.399 587.112 792.004 587.112C792.676 587.112 793.258 587.235 793.751 587.482C794.255 587.728 794.67 588.064 794.995 588.49C795.331 588.904 795.583 589.386 795.751 589.935C795.919 590.484 796.003 591.066 796.003 591.682C796.003 592.309 795.919 592.897 795.751 593.446C795.594 593.984 795.347 594.46 795.011 594.874C794.687 595.278 794.272 595.597 793.768 595.832C793.275 596.067 792.698 596.185 792.038 596.185C791.814 596.185 791.573 596.162 791.315 596.118C791.058 596.073 790.8 596 790.542 595.899C790.285 595.798 790.038 595.664 789.803 595.496C789.579 595.317 789.389 595.098 789.232 594.841H789.198V599.31H787.77V587.314ZM791.886 594.942C792.368 594.942 792.777 594.846 793.113 594.656C793.449 594.466 793.718 594.213 793.919 593.9C794.121 593.586 794.267 593.228 794.356 592.825C794.446 592.421 794.491 592.007 794.491 591.581C794.491 591.178 794.435 590.786 794.323 590.405C794.222 590.013 794.059 589.666 793.835 589.364C793.622 589.061 793.342 588.82 792.995 588.641C792.659 588.462 792.262 588.372 791.802 588.372C791.321 588.372 790.912 588.468 790.576 588.658C790.24 588.848 789.965 589.1 789.753 589.414C789.54 589.716 789.383 590.064 789.282 590.456C789.193 590.848 789.148 591.245 789.148 591.649C789.148 592.074 789.198 592.489 789.299 592.892C789.4 593.284 789.557 593.631 789.769 593.933C789.993 594.236 790.279 594.482 790.626 594.673C790.974 594.852 791.394 594.942 791.886 594.942ZM801.426 596.185C800.731 596.185 800.121 596.073 799.594 595.849C799.079 595.614 798.642 595.294 798.284 594.891C797.925 594.477 797.657 593.995 797.477 593.446C797.298 592.897 797.208 592.304 797.208 591.665C797.208 591.027 797.298 590.433 797.477 589.884C797.657 589.324 797.925 588.843 798.284 588.44C798.642 588.025 799.079 587.7 799.594 587.465C800.121 587.23 800.731 587.112 801.426 587.112C802.109 587.112 802.714 587.23 803.24 587.465C803.766 587.7 804.209 588.025 804.567 588.44C804.926 588.843 805.195 589.324 805.374 589.884C805.553 590.433 805.643 591.027 805.643 591.665C805.643 592.304 805.553 592.897 805.374 593.446C805.195 593.995 804.926 594.477 804.567 594.891C804.209 595.294 803.766 595.614 803.24 595.849C802.714 596.073 802.109 596.185 801.426 596.185ZM801.426 594.942C801.795 594.942 802.142 594.869 802.467 594.723C802.803 594.578 803.094 594.37 803.341 594.101C803.587 593.821 803.778 593.48 803.912 593.077C804.058 592.662 804.13 592.192 804.13 591.665C804.13 591.139 804.058 590.674 803.912 590.271C803.778 589.856 803.587 589.509 803.341 589.229C803.094 588.949 802.803 588.736 802.467 588.591C802.142 588.445 801.795 588.372 801.426 588.372C801.056 588.372 800.703 588.445 800.367 588.591C800.042 588.736 799.757 588.949 799.51 589.229C799.264 589.509 799.068 589.856 798.922 590.271C798.788 590.674 798.721 591.139 798.721 591.665C798.721 592.192 798.788 592.662 798.922 593.077C799.068 593.48 799.264 593.821 799.51 594.101C799.757 594.37 800.042 594.578 800.367 594.723C800.703 594.869 801.056 594.942 801.426 594.942ZM810.922 596.185C810.261 596.185 809.673 596.078 809.158 595.866C808.654 595.653 808.228 595.35 807.881 594.958C807.545 594.566 807.287 594.101 807.108 593.564C806.94 593.026 806.856 592.427 806.856 591.766C806.856 591.117 806.94 590.512 807.108 589.952C807.276 589.38 807.528 588.888 807.864 588.473C808.211 588.048 808.637 587.717 809.141 587.482C809.656 587.235 810.261 587.112 810.955 587.112C811.448 587.112 811.907 587.174 812.333 587.297C812.77 587.409 813.151 587.588 813.476 587.835C813.812 588.081 814.086 588.395 814.299 588.776C814.512 589.145 814.646 589.588 814.702 590.103H813.224C813.112 589.554 812.876 589.128 812.518 588.826C812.159 588.524 811.678 588.372 811.073 588.372C810.558 588.372 810.127 588.468 809.779 588.658C809.432 588.848 809.152 589.1 808.939 589.414C808.738 589.728 808.592 590.092 808.502 590.506C808.413 590.909 808.368 591.329 808.368 591.766C808.368 592.169 808.413 592.561 808.502 592.942C808.603 593.323 808.754 593.665 808.956 593.967C809.158 594.258 809.415 594.494 809.729 594.673C810.054 594.852 810.446 594.942 810.905 594.942C811.611 594.942 812.159 594.757 812.551 594.387C812.955 594.017 813.201 593.497 813.291 592.825H814.752C814.596 593.911 814.198 594.746 813.56 595.328C812.921 595.899 812.042 596.185 810.922 596.185ZM816.35 587.314H817.778V590.64H820.467C821.318 590.64 822.001 590.876 822.516 591.346C823.032 591.805 823.289 592.455 823.289 593.295C823.289 594.113 823.043 594.768 822.55 595.261C822.057 595.754 821.385 596 820.534 596H816.35V587.314ZM820.013 594.74C821.211 594.74 821.811 594.258 821.811 593.295C821.811 592.343 821.211 591.867 820.013 591.867H817.778V594.74H820.013ZM824.667 587.314H826.095V596H824.667V587.314ZM836.517 596.185C835.856 596.185 835.268 596.078 834.753 595.866C834.249 595.653 833.823 595.35 833.476 594.958C833.14 594.566 832.882 594.101 832.703 593.564C832.535 593.026 832.451 592.427 832.451 591.766C832.451 591.117 832.535 590.512 832.703 589.952C832.871 589.38 833.123 588.888 833.459 588.473C833.806 588.048 834.232 587.717 834.736 587.482C835.251 587.235 835.856 587.112 836.551 587.112C837.043 587.112 837.503 587.174 837.928 587.297C838.365 587.409 838.746 587.588 839.071 587.835C839.407 588.081 839.681 588.395 839.894 588.776C840.107 589.145 840.241 589.588 840.297 590.103H838.819C838.707 589.554 838.472 589.128 838.113 588.826C837.755 588.524 837.273 588.372 836.668 588.372C836.153 588.372 835.722 588.468 835.375 588.658C835.027 588.848 834.747 589.1 834.535 589.414C834.333 589.728 834.187 590.092 834.098 590.506C834.008 590.909 833.963 591.329 833.963 591.766C833.963 592.169 834.008 592.561 834.098 592.942C834.199 593.323 834.35 593.665 834.551 593.967C834.753 594.258 835.011 594.494 835.324 594.673C835.649 594.852 836.041 594.942 836.5 594.942C837.206 594.942 837.755 594.757 838.147 594.387C838.55 594.017 838.796 593.497 838.886 592.825H840.348C840.191 593.911 839.793 594.746 839.155 595.328C838.516 595.899 837.637 596.185 836.517 596.185ZM843.424 588.574H840.921V587.314H844.852V590.64H847.944C848.795 590.64 849.478 590.876 849.993 591.346C850.509 591.805 850.766 592.455 850.766 593.295C850.766 594.113 850.52 594.768 850.027 595.261C849.534 595.754 848.862 596 848.011 596H843.424V588.574ZM847.49 594.74C848.688 594.74 849.288 594.258 849.288 593.295C849.288 592.343 848.688 591.867 847.49 591.867H844.852V594.74H847.49ZM856.011 596.185C855.317 596.185 854.706 596.073 854.18 595.849C853.665 595.625 853.233 595.311 852.886 594.908C852.539 594.505 852.276 594.023 852.097 593.463C851.929 592.903 851.845 592.293 851.845 591.632C851.845 590.982 851.945 590.383 852.147 589.834C852.349 589.274 852.629 588.792 852.987 588.389C853.357 587.986 853.788 587.672 854.281 587.448C854.785 587.224 855.334 587.112 855.927 587.112C856.7 587.112 857.339 587.275 857.843 587.599C858.358 587.913 858.767 588.316 859.069 588.809C859.383 589.302 859.595 589.84 859.707 590.422C859.831 591.005 859.881 591.559 859.859 592.085H853.357C853.345 592.466 853.39 592.83 853.491 593.177C853.592 593.513 853.754 593.816 853.978 594.085C854.202 594.342 854.488 594.55 854.835 594.706C855.182 594.863 855.591 594.942 856.062 594.942C856.666 594.942 857.159 594.802 857.54 594.522C857.932 594.241 858.19 593.816 858.313 593.245H859.724C859.534 594.23 859.114 594.97 858.464 595.462C857.815 595.944 856.997 596.185 856.011 596.185ZM858.347 590.825C858.324 590.489 858.246 590.17 858.111 589.868C857.988 589.565 857.815 589.308 857.591 589.095C857.378 588.871 857.12 588.697 856.818 588.574C856.526 588.44 856.202 588.372 855.843 588.372C855.474 588.372 855.138 588.44 854.835 588.574C854.544 588.697 854.292 588.871 854.079 589.095C853.866 589.319 853.698 589.582 853.575 589.884C853.452 590.176 853.379 590.489 853.357 590.825H858.347ZM864.934 596.185C864.274 596.185 863.686 596.078 863.17 595.866C862.666 595.653 862.241 595.35 861.893 594.958C861.557 594.566 861.3 594.101 861.121 593.564C860.953 593.026 860.869 592.427 860.869 591.766C860.869 591.117 860.953 590.512 861.121 589.952C861.289 589.38 861.541 588.888 861.877 588.473C862.224 588.048 862.649 587.717 863.154 587.482C863.669 587.235 864.274 587.112 864.968 587.112C865.461 587.112 865.92 587.174 866.346 587.297C866.783 587.409 867.163 587.588 867.488 587.835C867.824 588.081 868.099 588.395 868.311 588.776C868.524 589.145 868.659 589.588 868.715 590.103H867.236C867.124 589.554 866.889 589.128 866.531 588.826C866.172 588.524 865.69 588.372 865.086 588.372C864.57 588.372 864.139 588.468 863.792 588.658C863.445 588.848 863.165 589.1 862.952 589.414C862.75 589.728 862.605 590.092 862.515 590.506C862.425 590.909 862.381 591.329 862.381 591.766C862.381 592.169 862.425 592.561 862.515 592.942C862.616 593.323 862.767 593.665 862.969 593.967C863.17 594.258 863.428 594.494 863.742 594.673C864.066 594.852 864.458 594.942 864.918 594.942C865.623 594.942 866.172 594.757 866.564 594.387C866.967 594.017 867.214 593.497 867.303 592.825H868.765C868.608 593.911 868.211 594.746 867.572 595.328C866.934 595.899 866.054 596.185 864.934 596.185ZM872.463 588.574H869.355V587.314H876.999V588.574H873.891V596H872.463V588.574ZM878.14 587.314H879.568V590.775H883.97V587.314H885.398V596H883.97V592.001H879.568V596H878.14V587.314ZM891.288 596.185C890.594 596.185 889.983 596.073 889.457 595.849C888.941 595.614 888.505 595.294 888.146 594.891C887.788 594.477 887.519 593.995 887.34 593.446C887.161 592.897 887.071 592.304 887.071 591.665C887.071 591.027 887.161 590.433 887.34 589.884C887.519 589.324 887.788 588.843 888.146 588.44C888.505 588.025 888.941 587.7 889.457 587.465C889.983 587.23 890.594 587.112 891.288 587.112C891.971 587.112 892.576 587.23 893.102 587.465C893.629 587.7 894.071 588.025 894.43 588.44C894.788 588.843 895.057 589.324 895.236 589.884C895.415 590.433 895.505 591.027 895.505 591.665C895.505 592.304 895.415 592.897 895.236 593.446C895.057 593.995 894.788 594.477 894.43 594.891C894.071 595.294 893.629 595.614 893.102 595.849C892.576 596.073 891.971 596.185 891.288 596.185ZM891.288 594.942C891.658 594.942 892.005 594.869 892.33 594.723C892.666 594.578 892.957 594.37 893.203 594.101C893.45 593.821 893.64 593.48 893.775 593.077C893.92 592.662 893.993 592.192 893.993 591.665C893.993 591.139 893.92 590.674 893.775 590.271C893.64 589.856 893.45 589.509 893.203 589.229C892.957 588.949 892.666 588.736 892.33 588.591C892.005 588.445 891.658 588.372 891.288 588.372C890.918 588.372 890.566 588.445 890.229 588.591C889.905 588.736 889.619 588.949 889.373 589.229C889.126 589.509 888.93 589.856 888.785 590.271C888.65 590.674 888.583 591.139 888.583 591.665C888.583 592.192 888.65 592.662 888.785 593.077C888.93 593.48 889.126 593.821 889.373 594.101C889.619 594.37 889.905 594.578 890.229 594.723C890.566 594.869 890.918 594.942 891.288 594.942ZM897.189 587.314H898.617V594.404L902.716 587.314H904.548V596H903.12V588.91L899.02 596H897.189V587.314ZM900.868 586.037C900.532 586.037 900.219 585.987 899.927 585.886C899.636 585.785 899.379 585.639 899.155 585.449C898.942 585.259 898.768 585.029 898.634 584.76C898.51 584.48 898.449 584.161 898.449 583.802H899.642C899.664 584.631 900.067 585.046 900.851 585.046C901.243 585.046 901.54 584.939 901.742 584.727C901.955 584.503 902.061 584.194 902.061 583.802H903.254C903.254 584.138 903.192 584.447 903.069 584.727C902.946 585.007 902.778 585.242 902.565 585.432C902.352 585.623 902.1 585.774 901.809 585.886C901.518 585.987 901.204 586.037 900.868 586.037ZM562.793 607.314H569.883V616H568.455V608.574H564.221V616H562.793V607.314ZM575.777 616.185C575.082 616.185 574.472 616.073 573.946 615.849C573.43 615.614 572.994 615.294 572.635 614.891C572.277 614.477 572.008 613.995 571.829 613.446C571.649 612.897 571.56 612.304 571.56 611.665C571.56 611.027 571.649 610.433 571.829 609.884C572.008 609.324 572.277 608.843 572.635 608.44C572.994 608.025 573.43 607.7 573.946 607.465C574.472 607.23 575.082 607.112 575.777 607.112C576.46 607.112 577.065 607.23 577.591 607.465C578.118 607.7 578.56 608.025 578.919 608.44C579.277 608.843 579.546 609.324 579.725 609.884C579.904 610.433 579.994 611.027 579.994 611.665C579.994 612.304 579.904 612.897 579.725 613.446C579.546 613.995 579.277 614.477 578.919 614.891C578.56 615.294 578.118 615.614 577.591 615.849C577.065 616.073 576.46 616.185 575.777 616.185ZM575.777 614.942C576.147 614.942 576.494 614.869 576.819 614.723C577.155 614.578 577.446 614.37 577.692 614.101C577.939 613.821 578.129 613.48 578.263 613.077C578.409 612.662 578.482 612.192 578.482 611.665C578.482 611.139 578.409 610.674 578.263 610.271C578.129 609.856 577.939 609.509 577.692 609.229C577.446 608.949 577.155 608.736 576.819 608.591C576.494 608.445 576.147 608.372 575.777 608.372C575.407 608.372 575.054 608.445 574.718 608.591C574.394 608.736 574.108 608.949 573.862 609.229C573.615 609.509 573.419 609.856 573.274 610.271C573.139 610.674 573.072 611.139 573.072 611.665C573.072 612.192 573.139 612.662 573.274 613.077C573.419 613.48 573.615 613.821 573.862 614.101C574.108 614.37 574.394 614.578 574.718 614.723C575.054 614.869 575.407 614.942 575.777 614.942ZM581.611 616.101C581.465 616.101 581.314 616.084 581.157 616.05C581 616.028 580.871 616.006 580.771 615.983V614.723C580.883 614.757 580.983 614.779 581.073 614.79C581.174 614.802 581.269 614.807 581.359 614.807C581.728 614.807 582.008 614.662 582.199 614.37C582.4 614.079 582.546 613.631 582.635 613.026C582.736 612.421 582.798 611.649 582.82 610.708C582.843 609.756 582.865 608.624 582.887 607.314H588.986V616H587.558V608.574H584.265C584.232 609.593 584.192 610.562 584.148 611.481C584.114 612.388 584.019 613.183 583.862 613.866C583.705 614.55 583.453 615.093 583.106 615.496C582.759 615.899 582.26 616.101 581.611 616.101ZM591.145 607.314H592.573V614.404L596.672 607.314H598.504V616H597.075V608.91L592.976 616H591.145V607.314ZM607.432 616H600.661V607.314H602.089V614.74H606.188V607.314H607.617V614.74H608.793V618.638H607.432V616ZM610.144 607.314H611.572V614.404L615.672 607.314H617.503V616H616.075V608.91L611.976 616H610.144V607.314ZM619.66 607.314H621.089V614.404L625.188 607.314H627.019V616H625.591V608.91L621.492 616H619.66V607.314ZM633.853 607.314H635.281V614.404L639.38 607.314H641.212V616H639.783V608.91L635.684 616H633.853V607.314ZM648.045 607.314H655.135V616H653.707V608.574H649.473V616H648.045V607.314ZM657.333 607.314H658.761V608.49H658.794C659.03 608.008 659.399 607.661 659.903 607.448C660.407 607.224 660.962 607.112 661.567 607.112C662.239 607.112 662.821 607.235 663.314 607.482C663.818 607.728 664.232 608.064 664.557 608.49C664.893 608.904 665.145 609.386 665.313 609.935C665.481 610.484 665.565 611.066 665.565 611.682C665.565 612.309 665.481 612.897 665.313 613.446C665.156 613.984 664.91 614.46 664.574 614.874C664.249 615.278 663.835 615.597 663.331 615.832C662.838 616.067 662.261 616.185 661.6 616.185C661.376 616.185 661.135 616.162 660.878 616.118C660.62 616.073 660.362 616 660.105 615.899C659.847 615.798 659.601 615.664 659.366 615.496C659.142 615.317 658.951 615.098 658.794 614.841H658.761V619.31H657.333V607.314ZM661.449 614.942C661.931 614.942 662.339 614.846 662.675 614.656C663.011 614.466 663.28 614.213 663.482 613.9C663.683 613.586 663.829 613.228 663.919 612.825C664.008 612.421 664.053 612.007 664.053 611.581C664.053 611.178 663.997 610.786 663.885 610.405C663.784 610.013 663.622 609.666 663.398 609.364C663.185 609.061 662.905 608.82 662.558 608.641C662.222 608.462 661.824 608.372 661.365 608.372C660.883 608.372 660.474 608.468 660.138 608.658C659.802 608.848 659.528 609.1 659.315 609.414C659.102 609.716 658.946 610.064 658.845 610.456C658.755 610.848 658.71 611.245 658.71 611.649C658.71 612.074 658.761 612.489 658.862 612.892C658.962 613.284 659.119 613.631 659.332 613.933C659.556 614.236 659.842 614.482 660.189 614.673C660.536 614.852 660.956 614.942 661.449 614.942ZM670.988 616.185C670.294 616.185 669.683 616.073 669.157 615.849C668.642 615.614 668.205 615.294 667.846 614.891C667.488 614.477 667.219 613.995 667.04 613.446C666.861 612.897 666.771 612.304 666.771 611.665C666.771 611.027 666.861 610.433 667.04 609.884C667.219 609.324 667.488 608.843 667.846 608.44C668.205 608.025 668.642 607.7 669.157 607.465C669.683 607.23 670.294 607.112 670.988 607.112C671.671 607.112 672.276 607.23 672.803 607.465C673.329 607.7 673.771 608.025 674.13 608.44C674.488 608.843 674.757 609.324 674.936 609.884C675.116 610.433 675.205 611.027 675.205 611.665C675.205 612.304 675.116 612.897 674.936 613.446C674.757 613.995 674.488 614.477 674.13 614.891C673.771 615.294 673.329 615.614 672.803 615.849C672.276 616.073 671.671 616.185 670.988 616.185ZM670.988 614.942C671.358 614.942 671.705 614.869 672.03 614.723C672.366 614.578 672.657 614.37 672.903 614.101C673.15 613.821 673.34 613.48 673.475 613.077C673.62 612.662 673.693 612.192 673.693 611.665C673.693 611.139 673.62 610.674 673.475 610.271C673.34 609.856 673.15 609.509 672.903 609.229C672.657 608.949 672.366 608.736 672.03 608.591C671.705 608.445 671.358 608.372 670.988 608.372C670.618 608.372 670.266 608.445 669.93 608.591C669.605 608.736 669.319 608.949 669.073 609.229C668.826 609.509 668.63 609.856 668.485 610.271C668.35 610.674 668.283 611.139 668.283 611.665C668.283 612.192 668.35 612.662 668.485 613.077C668.63 613.48 668.826 613.821 669.073 614.101C669.319 614.37 669.605 614.578 669.93 614.723C670.266 614.869 670.618 614.942 670.988 614.942ZM676.889 607.314H678.317V614.404L682.416 607.314H684.248V616H682.82V608.91L678.72 616H676.889V607.314ZM680.568 606.037C680.232 606.037 679.919 605.987 679.627 605.886C679.336 605.785 679.079 605.639 678.855 605.449C678.642 605.259 678.468 605.029 678.334 604.76C678.211 604.48 678.149 604.161 678.149 603.802H679.342C679.364 604.631 679.767 605.046 680.552 605.046C680.944 605.046 681.24 604.939 681.442 604.727C681.655 604.503 681.761 604.194 681.761 603.802H682.954C682.954 604.138 682.892 604.447 682.769 604.727C682.646 605.007 682.478 605.242 682.265 605.432C682.052 605.623 681.8 605.774 681.509 605.886C681.218 605.987 680.904 606.037 680.568 606.037ZM685.38 614.74H686.405C686.528 614.505 686.652 614.185 686.775 613.782C686.909 613.368 687.027 612.914 687.128 612.421C687.24 611.917 687.329 611.385 687.396 610.825C687.464 610.265 687.497 609.716 687.497 609.179V607.314H693.781V614.74H694.957V618.638H693.596V616H686.741V618.638H685.38V614.74ZM692.353 614.74V608.574H688.892V609.313C688.892 609.862 688.858 610.411 688.791 610.96C688.735 611.497 688.656 612.007 688.556 612.489C688.455 612.97 688.343 613.407 688.22 613.799C688.108 614.191 687.996 614.505 687.884 614.74H692.353ZM696.299 607.314H697.727V614.404L701.826 607.314H703.657V616H702.229V608.91L698.13 616H696.299V607.314ZM707.915 608.574H704.807V607.314H712.451V608.574H709.343V616H707.915V608.574ZM717.288 616.185C716.594 616.185 715.983 616.073 715.457 615.849C714.942 615.625 714.51 615.311 714.163 614.908C713.816 614.505 713.553 614.023 713.373 613.463C713.205 612.903 713.121 612.293 713.121 611.632C713.121 610.982 713.222 610.383 713.424 609.834C713.625 609.274 713.905 608.792 714.264 608.389C714.634 607.986 715.065 607.672 715.558 607.448C716.062 607.224 716.61 607.112 717.204 607.112C717.977 607.112 718.615 607.275 719.119 607.599C719.635 607.913 720.043 608.316 720.346 608.809C720.66 609.302 720.872 609.84 720.984 610.422C721.108 611.005 721.158 611.559 721.136 612.085H714.634C714.622 612.466 714.667 612.83 714.768 613.177C714.869 613.513 715.031 613.816 715.255 614.085C715.479 614.342 715.765 614.55 716.112 614.706C716.459 614.863 716.868 614.942 717.339 614.942C717.943 614.942 718.436 614.802 718.817 614.522C719.209 614.241 719.467 613.816 719.59 613.245H721.001C720.811 614.23 720.391 614.97 719.741 615.462C719.091 615.944 718.274 616.185 717.288 616.185ZM719.623 610.825C719.601 610.489 719.523 610.17 719.388 609.868C719.265 609.565 719.091 609.308 718.867 609.095C718.655 608.871 718.397 608.697 718.095 608.574C717.803 608.44 717.479 608.372 717.12 608.372C716.75 608.372 716.414 608.44 716.112 608.574C715.821 608.697 715.569 608.871 715.356 609.095C715.143 609.319 714.975 609.582 714.852 609.884C714.729 610.176 714.656 610.489 714.634 610.825H719.623ZM729.392 608.574H726.284V607.314H733.928V608.574H730.82V616H729.392V608.574ZM738.765 616.185C738.071 616.185 737.46 616.073 736.934 615.849C736.419 615.625 735.987 615.311 735.64 614.908C735.293 614.505 735.03 614.023 734.851 613.463C734.683 612.903 734.599 612.293 734.599 611.632C734.599 610.982 734.699 610.383 734.901 609.834C735.103 609.274 735.383 608.792 735.741 608.389C736.111 607.986 736.542 607.672 737.035 607.448C737.539 607.224 738.088 607.112 738.681 607.112C739.454 607.112 740.092 607.275 740.596 607.599C741.112 607.913 741.521 608.316 741.823 608.809C742.137 609.302 742.349 609.84 742.461 610.422C742.585 611.005 742.635 611.559 742.613 612.085H736.111C736.099 612.466 736.144 612.83 736.245 613.177C736.346 613.513 736.508 613.816 736.732 614.085C736.956 614.342 737.242 614.55 737.589 614.706C737.936 614.863 738.345 614.942 738.816 614.942C739.42 614.942 739.913 614.802 740.294 614.522C740.686 614.241 740.944 613.816 741.067 613.245H742.478C742.288 614.23 741.868 614.97 741.218 615.462C740.568 615.944 739.751 616.185 738.765 616.185ZM741.101 610.825C741.078 610.489 741 610.17 740.865 609.868C740.742 609.565 740.568 609.308 740.344 609.095C740.132 608.871 739.874 608.697 739.572 608.574C739.28 608.44 738.956 608.372 738.597 608.372C738.228 608.372 737.892 608.44 737.589 608.574C737.298 608.697 737.046 608.871 736.833 609.095C736.62 609.319 736.452 609.582 736.329 609.884C736.206 610.176 736.133 610.489 736.111 610.825H741.101ZM747.688 616.185C747.027 616.185 746.439 616.078 745.924 615.866C745.42 615.653 744.995 615.35 744.647 614.958C744.311 614.566 744.054 614.101 743.875 613.564C743.706 613.026 743.622 612.427 743.622 611.766C743.622 611.117 743.706 610.512 743.875 609.952C744.043 609.38 744.295 608.888 744.631 608.473C744.978 608.048 745.403 607.717 745.907 607.482C746.423 607.235 747.027 607.112 747.722 607.112C748.215 607.112 748.674 607.174 749.1 607.297C749.536 607.409 749.917 607.588 750.242 607.835C750.578 608.081 750.853 608.395 751.065 608.776C751.278 609.145 751.413 609.588 751.469 610.103H749.99C749.878 609.554 749.643 609.128 749.284 608.826C748.926 608.524 748.444 608.372 747.84 608.372C747.324 608.372 746.893 608.468 746.546 608.658C746.199 608.848 745.919 609.1 745.706 609.414C745.504 609.728 745.359 610.092 745.269 610.506C745.179 610.909 745.135 611.329 745.135 611.766C745.135 612.169 745.179 612.561 745.269 612.942C745.37 613.323 745.521 613.665 745.723 613.967C745.924 614.258 746.182 614.494 746.495 614.673C746.82 614.852 747.212 614.942 747.672 614.942C748.377 614.942 748.926 614.757 749.318 614.387C749.721 614.017 749.968 613.497 750.057 612.825H751.519C751.362 613.911 750.965 614.746 750.326 615.328C749.688 615.899 748.808 616.185 747.688 616.185ZM755.217 608.574H752.109V607.314H759.753V608.574H756.645V616H755.217V608.574ZM764.545 614.74H765.57C765.693 614.505 765.816 614.185 765.94 613.782C766.074 613.368 766.192 612.914 766.292 612.421C766.404 611.917 766.494 611.385 766.561 610.825C766.628 610.265 766.662 609.716 766.662 609.179V607.314H772.946V614.74H774.122V618.638H772.761V616H765.906V618.638H764.545V614.74ZM771.518 614.74V608.574H768.057V609.313C768.057 609.862 768.023 610.411 767.956 610.96C767.9 611.497 767.821 612.007 767.721 612.489C767.62 612.97 767.508 613.407 767.384 613.799C767.272 614.191 767.16 614.505 767.048 614.74H771.518ZM779.16 616.185C778.465 616.185 777.855 616.073 777.328 615.849C776.813 615.625 776.382 615.311 776.035 614.908C775.688 614.505 775.424 614.023 775.245 613.463C775.077 612.903 774.993 612.293 774.993 611.632C774.993 610.982 775.094 610.383 775.296 609.834C775.497 609.274 775.777 608.792 776.136 608.389C776.505 607.986 776.936 607.672 777.429 607.448C777.933 607.224 778.482 607.112 779.076 607.112C779.849 607.112 780.487 607.275 780.991 607.599C781.506 607.913 781.915 608.316 782.218 608.809C782.531 609.302 782.744 609.84 782.856 610.422C782.979 611.005 783.03 611.559 783.007 612.085H776.505C776.494 612.466 776.539 612.83 776.64 613.177C776.74 613.513 776.903 613.816 777.127 614.085C777.351 614.342 777.636 614.55 777.984 614.706C778.331 614.863 778.74 614.942 779.21 614.942C779.815 614.942 780.308 614.802 780.689 614.522C781.081 614.241 781.338 613.816 781.461 613.245H782.873C782.682 614.23 782.262 614.97 781.613 615.462C780.963 615.944 780.145 616.185 779.16 616.185ZM781.495 610.825C781.473 610.489 781.394 610.17 781.26 609.868C781.137 609.565 780.963 609.308 780.739 609.095C780.526 608.871 780.269 608.697 779.966 608.574C779.675 608.44 779.35 608.372 778.992 608.372C778.622 608.372 778.286 608.44 777.984 608.574C777.692 608.697 777.44 608.871 777.228 609.095C777.015 609.319 776.847 609.582 776.724 609.884C776.6 610.176 776.528 610.489 776.505 610.825H781.495ZM786.588 608.574H783.479V607.314H791.124V608.574H788.016V616H786.588V608.574ZM795.961 616.185C795.266 616.185 794.656 616.073 794.129 615.849C793.614 615.625 793.183 615.311 792.836 614.908C792.489 614.505 792.225 614.023 792.046 613.463C791.878 612.903 791.794 612.293 791.794 611.632C791.794 610.982 791.895 610.383 792.097 609.834C792.298 609.274 792.578 608.792 792.937 608.389C793.306 607.986 793.737 607.672 794.23 607.448C794.734 607.224 795.283 607.112 795.877 607.112C796.65 607.112 797.288 607.275 797.792 607.599C798.307 607.913 798.716 608.316 799.019 608.809C799.332 609.302 799.545 609.84 799.657 610.422C799.78 611.005 799.831 611.559 799.808 612.085H793.306C793.295 612.466 793.34 612.83 793.441 613.177C793.541 613.513 793.704 613.816 793.928 614.085C794.152 614.342 794.437 614.55 794.785 614.706C795.132 614.863 795.541 614.942 796.011 614.942C796.616 614.942 797.109 614.802 797.49 614.522C797.882 614.241 798.139 613.816 798.263 613.245H799.674C799.483 614.23 799.063 614.97 798.414 615.462C797.764 615.944 796.946 616.185 795.961 616.185ZM798.296 610.825C798.274 610.489 798.195 610.17 798.061 609.868C797.938 609.565 797.764 609.308 797.54 609.095C797.327 608.871 797.07 608.697 796.767 608.574C796.476 608.44 796.151 608.372 795.793 608.372C795.423 608.372 795.087 608.44 794.785 608.574C794.493 608.697 794.241 608.871 794.029 609.095C793.816 609.319 793.648 609.582 793.525 609.884C793.401 610.176 793.329 610.489 793.306 610.825H798.296ZM801.289 607.314H802.717V611.464L806.698 607.314H808.597L804.75 611.077L809.051 616H807.219L803.59 611.867L802.717 612.724V616H801.289V607.314ZM812.232 608.574H809.124V607.314H816.768V608.574H813.66V616H812.232V608.574ZM821.656 616.185C820.961 616.185 820.351 616.073 819.824 615.849C819.309 615.614 818.872 615.294 818.514 614.891C818.155 614.477 817.887 613.995 817.707 613.446C817.528 612.897 817.439 612.304 817.439 611.665C817.439 611.027 817.528 610.433 817.707 609.884C817.887 609.324 818.155 608.843 818.514 608.44C818.872 608.025 819.309 607.7 819.824 607.465C820.351 607.23 820.961 607.112 821.656 607.112C822.339 607.112 822.944 607.23 823.47 607.465C823.997 607.7 824.439 608.025 824.797 608.44C825.156 608.843 825.425 609.324 825.604 609.884C825.783 610.433 825.873 611.027 825.873 611.665C825.873 612.304 825.783 612.897 825.604 613.446C825.425 613.995 825.156 614.477 824.797 614.891C824.439 615.294 823.997 615.614 823.47 615.849C822.944 616.073 822.339 616.185 821.656 616.185ZM821.656 614.942C822.025 614.942 822.373 614.869 822.697 614.723C823.033 614.578 823.325 614.37 823.571 614.101C823.817 613.821 824.008 613.48 824.142 613.077C824.288 612.662 824.361 612.192 824.361 611.665C824.361 611.139 824.288 610.674 824.142 610.271C824.008 609.856 823.817 609.509 823.571 609.229C823.325 608.949 823.033 608.736 822.697 608.591C822.373 608.445 822.025 608.372 821.656 608.372C821.286 608.372 820.933 608.445 820.597 608.591C820.272 608.736 819.987 608.949 819.74 609.229C819.494 609.509 819.298 609.856 819.152 610.271C819.018 610.674 818.951 611.139 818.951 611.665C818.951 612.192 819.018 612.662 819.152 613.077C819.298 613.48 819.494 613.821 819.74 614.101C819.987 614.37 820.272 614.578 820.597 614.723C820.933 614.869 821.286 614.942 821.656 614.942ZM827.607 607.314H829.035V608.49H829.069C829.304 608.008 829.673 607.661 830.177 607.448C830.681 607.224 831.236 607.112 831.841 607.112C832.513 607.112 833.095 607.235 833.588 607.482C834.092 607.728 834.507 608.064 834.831 608.49C835.167 608.904 835.419 609.386 835.587 609.935C835.755 610.484 835.839 611.066 835.839 611.682C835.839 612.309 835.755 612.897 835.587 613.446C835.431 613.984 835.184 614.46 834.848 614.874C834.523 615.278 834.109 615.597 833.605 615.832C833.112 616.067 832.535 616.185 831.874 616.185C831.65 616.185 831.41 616.162 831.152 616.118C830.894 616.073 830.637 616 830.379 615.899C830.121 615.798 829.875 615.664 829.64 615.496C829.416 615.317 829.225 615.098 829.069 614.841H829.035V619.31H827.607V607.314ZM831.723 614.942C832.205 614.942 832.614 614.846 832.95 614.656C833.286 614.466 833.554 614.213 833.756 613.9C833.958 613.586 834.103 613.228 834.193 612.825C834.282 612.421 834.327 612.007 834.327 611.581C834.327 611.178 834.271 610.786 834.159 610.405C834.058 610.013 833.896 609.666 833.672 609.364C833.459 609.061 833.179 608.82 832.832 608.641C832.496 608.462 832.098 608.372 831.639 608.372C831.158 608.372 830.749 608.468 830.413 608.658C830.077 608.848 829.802 609.1 829.589 609.414C829.377 609.716 829.22 610.064 829.119 610.456C829.029 610.848 828.985 611.245 828.985 611.649C828.985 612.074 829.035 612.489 829.136 612.892C829.237 613.284 829.393 613.631 829.606 613.933C829.83 614.236 830.116 614.482 830.463 614.673C830.81 614.852 831.23 614.942 831.723 614.942ZM839.918 616.185C839.526 616.185 839.157 616.14 838.809 616.05C838.462 615.972 838.154 615.838 837.885 615.647C837.628 615.446 837.42 615.194 837.264 614.891C837.118 614.578 837.045 614.202 837.045 613.765C837.045 613.273 837.129 612.869 837.297 612.556C837.465 612.242 837.684 611.99 837.953 611.8C838.233 611.598 838.546 611.447 838.893 611.346C839.252 611.245 839.616 611.161 839.985 611.094C840.377 611.016 840.747 610.96 841.094 610.926C841.453 610.881 841.766 610.825 842.035 610.758C842.304 610.68 842.517 610.573 842.674 610.439C842.83 610.293 842.909 610.086 842.909 609.817C842.909 609.504 842.847 609.252 842.724 609.061C842.612 608.871 842.461 608.725 842.27 608.624C842.091 608.524 841.884 608.456 841.649 608.423C841.425 608.389 841.201 608.372 840.977 608.372C840.372 608.372 839.868 608.49 839.465 608.725C839.061 608.949 838.843 609.38 838.809 610.019H837.381C837.404 609.481 837.516 609.028 837.717 608.658C837.919 608.288 838.188 607.992 838.524 607.768C838.86 607.532 839.241 607.364 839.666 607.263C840.103 607.163 840.568 607.112 841.061 607.112C841.453 607.112 841.839 607.14 842.22 607.196C842.612 607.252 842.965 607.37 843.278 607.549C843.592 607.717 843.844 607.958 844.034 608.272C844.225 608.585 844.32 608.994 844.32 609.498V613.967C844.32 614.303 844.337 614.55 844.371 614.706C844.415 614.863 844.55 614.942 844.774 614.942C844.875 614.942 845.02 614.914 845.211 614.858V615.966C844.964 616.112 844.623 616.185 844.186 616.185C843.816 616.185 843.519 616.084 843.295 615.882C843.082 615.67 842.976 615.328 842.976 614.858C842.584 615.328 842.125 615.67 841.598 615.882C841.083 616.084 840.523 616.185 839.918 616.185ZM840.237 614.942C840.708 614.942 841.111 614.88 841.447 614.757C841.783 614.622 842.058 614.46 842.27 614.269C842.483 614.068 842.64 613.855 842.741 613.631C842.842 613.396 842.892 613.177 842.892 612.976V611.514C842.713 611.66 842.478 611.761 842.186 611.817C841.895 611.873 841.587 611.923 841.262 611.968C840.949 612.013 840.629 612.057 840.305 612.102C839.98 612.147 839.689 612.225 839.431 612.337C839.173 612.449 838.961 612.612 838.793 612.825C838.636 613.026 838.557 613.306 838.557 613.665C838.557 613.9 838.602 614.101 838.692 614.269C838.793 614.426 838.916 614.555 839.061 614.656C839.218 614.757 839.397 614.83 839.599 614.874C839.801 614.919 840.013 614.942 840.237 614.942ZM851.149 616.101C851.003 616.101 850.852 616.084 850.695 616.05C850.538 616.028 850.409 616.006 850.308 615.983V614.723C850.42 614.757 850.521 614.779 850.611 614.79C850.712 614.802 850.807 614.807 850.896 614.807C851.266 614.807 851.546 614.662 851.737 614.37C851.938 614.079 852.084 613.631 852.173 613.026C852.274 612.421 852.336 611.649 852.358 610.708C852.381 609.756 852.403 608.624 852.425 607.314H858.524V616H857.096V608.574H853.803C853.769 609.593 853.73 610.562 853.685 611.481C853.652 612.388 853.557 613.183 853.4 613.866C853.243 614.55 852.991 615.093 852.644 615.496C852.297 615.899 851.798 616.101 851.149 616.101ZM863.808 611.346L860.095 607.314H861.859L865.471 611.346V607.314H866.899V611.346L870.511 607.314H872.275L868.546 611.346L872.763 616H870.999L867.386 612.119L866.899 612.556V616H865.471V612.556L864.917 612.052L861.372 616H859.607L863.808 611.346ZM873.841 607.314H875.269V614.404L879.369 607.314H881.2V616H879.772V608.91L875.673 616H873.841V607.314Z" fill="black"/>
<path d="M7.15185 229.502L10.5994 66.5484L22 -19.9998L210.971 1.10053L327.944 134.115L287.794 169.166L199.864 66.8354L283.559 194.227L234.647 226.107L159.737 121.751L222.844 265.947L171.49 287.273L102.954 120.185L140.428 271.037L98.1987 285.875L60.6371 113.035L57.5114 224.066L7.15185 229.502Z" fill="white" stroke="black" stroke-width="3.11667"/>
<path d="M119.652 191.041L80.718 196.763L86.2554 226.81L125.533 216.636L119.652 191.041Z" fill="black" stroke="black" stroke-width="3.11667"/>
<path d="M143.845 218.793L131.808 189.501L180.259 170.011L193.435 199.914L143.845 218.793Z" fill="black" stroke="black" stroke-width="3.11667"/>
<path d="M209.995 190.248L192.406 165.991L239.756 127.665L258.282 156.254L209.995 190.248Z" fill="black" stroke="black" stroke-width="3.11667"/>
<path d="M266.411 143.156L250.849 125.219L284.347 87.0259L305.254 108.348L266.411 143.156Z" fill="black" stroke="black" stroke-width="3.11667"/>
<path d="M262 116L403.806 188.929L451.975 237.098H509.597L543.361 172.272L558.667 300.122L571.272 237.098H627.544L654.555 188.929L678.414 393.309L689.668 237.098L743.239 227.194L757.195 149.763L769.8 341.089L785.106 259.607H857.134L875.141 188.929L897.65 300.122L910.255 246.551L989.036 227.194L1020.1 188.929L1042.61 315.879L1058.36 211.438L1129.94 259.607L1163.7 237.098L1239.78 246.551L1405 172.272" stroke="black" stroke-width="4.50177"/>
</g>
<defs>
<clipPath id="clip0_36_1011">
<rect width="1440" height="930" fill="white" transform="translate(0 0.0830078)"/>
</clipPath>
</defs>
</svg>
