<svg width="295" height="218" viewBox="0 0 295 218" fill="none" xmlns="http://www.w3.org/2000/svg">
<g clip-path="url(#clip0_191_147)">
<rect x="2.88759" y="171.138" width="306.046" height="52.5365" transform="rotate(-33.3502 2.88759 171.138)" fill="black" stroke="black" stroke-width="4.16956"/>
<path d="M21.6022 180.544L29.588 175.371L30.4799 176.748L24.1291 180.862L31.1969 191.774L29.5619 192.833L21.6022 180.544ZM44.2973 183.679C43.322 184.311 42.3557 184.692 41.3984 184.824C40.4337 184.944 39.5114 184.865 38.6316 184.588C37.7517 184.311 36.9366 183.87 36.1862 183.265C35.4473 182.652 34.8029 181.921 34.2529 181.072C33.7104 180.234 33.3106 179.353 33.0536 178.428C32.8007 177.485 32.7277 176.555 32.8346 175.638C32.9415 174.722 33.2469 173.848 33.7508 173.017C34.2548 172.186 34.9944 171.454 35.9697 170.822C36.9449 170.191 37.9149 169.815 38.8797 169.695C39.8444 169.575 40.7667 169.654 41.6465 169.931C42.5264 170.208 43.3394 170.658 44.0858 171.282C44.8362 171.888 45.4826 172.609 46.0251 173.447C46.5751 174.296 46.9729 175.186 47.2184 176.119C47.4754 177.044 47.5504 177.964 47.4435 178.88C47.3366 179.796 47.0312 180.67 46.5272 181.502C46.0159 182.321 45.2726 183.047 44.2973 183.679ZM43.4166 182.319C44.1624 181.836 44.712 181.277 45.0655 180.64C45.4115 179.993 45.6006 179.317 45.6327 178.612C45.6647 177.907 45.5678 177.204 45.342 176.503C45.1087 175.791 44.7914 175.125 44.3901 174.506C43.9888 173.886 43.5146 173.33 42.9675 172.837C42.4129 172.333 41.8075 171.952 41.1511 171.693C40.4948 171.434 39.804 171.336 39.079 171.398C38.3465 171.449 37.6073 171.716 36.8615 172.199C36.1157 172.682 35.5698 173.248 35.2237 173.895C34.8703 174.532 34.6775 175.202 34.6454 175.907C34.6134 176.612 34.714 177.32 34.9472 178.032C35.1731 178.733 35.4866 179.393 35.888 180.013C36.2893 180.632 36.7672 181.194 37.3218 181.698C37.8689 182.191 38.4706 182.567 39.127 182.826C39.7833 183.085 40.4778 183.189 41.2103 183.138C41.9353 183.075 42.6708 182.802 43.4166 182.319ZM44.0377 166.012L48.4953 163.125C48.7592 162.954 49.044 162.777 49.3498 162.595C49.6596 162.395 49.9748 162.215 50.2954 162.056C50.6086 161.886 50.9157 161.744 51.2168 161.63C51.5178 161.517 51.7916 161.462 52.038 161.465C52.5957 161.446 53.1497 161.559 53.7 161.806C54.2619 162.044 54.7434 162.473 55.1448 163.093C55.5684 163.747 55.7757 164.419 55.7665 165.109C55.7614 165.78 55.5406 166.42 55.1041 167.028L55.1264 167.063C55.9877 166.733 56.7901 166.702 57.5336 166.97C58.2771 167.237 58.894 167.75 59.3846 168.507C59.6744 168.954 59.8765 169.442 59.9909 169.971C60.1052 170.5 60.1095 171.034 60.0038 171.575C59.9021 172.097 59.6829 172.614 59.3463 173.125C59.0136 173.617 58.5433 174.06 57.9352 174.454L51.9974 178.3L44.0377 166.012ZM56.8368 173.211C57.5596 172.743 57.9955 172.184 58.1444 171.534C58.3048 170.876 58.162 170.203 57.7161 169.514C57.456 169.113 57.1659 168.828 56.8458 168.661C56.5257 168.494 56.1911 168.417 55.842 168.432C55.497 168.427 55.1453 168.5 54.7869 168.651C54.421 168.79 54.066 168.971 53.7218 169.194L49.987 171.613L52.7406 175.864L56.8368 173.211ZM52.3652 168.118C53.2946 167.516 53.8561 166.925 54.0496 166.343C54.2471 165.743 54.134 165.116 53.7104 164.462C53.4354 164.037 53.1473 163.743 52.8461 163.58C52.5375 163.405 52.2181 163.327 51.888 163.346C51.5579 163.364 51.221 163.46 50.8775 163.634C50.5379 163.789 50.1903 163.981 49.8346 164.212L46.5646 166.33L49.0952 170.237L52.3652 168.118ZM69.1555 167.577C68.1802 168.209 67.2139 168.591 66.2566 168.722C65.2919 168.842 64.3696 168.764 63.4898 168.486C62.6099 168.209 61.7948 167.768 61.0445 167.163C60.3056 166.55 59.6611 165.819 59.1112 164.97C58.5686 164.133 58.1688 163.252 57.9118 162.327C57.6589 161.383 57.5859 160.453 57.6928 159.537C57.7997 158.621 58.1051 157.747 58.6091 156.916C59.113 156.084 59.8526 155.353 60.8279 154.721C61.8032 154.089 62.7732 153.713 63.7379 153.593C64.7026 153.473 65.6249 153.552 66.5047 153.829C67.3846 154.106 68.1977 154.557 68.944 155.181C69.6944 155.786 70.3408 156.508 70.8834 157.345C71.4333 158.194 71.8311 159.085 72.0766 160.017C72.3336 160.942 72.4086 161.862 72.3017 162.779C72.1948 163.695 71.8894 164.569 71.3855 165.4C70.8741 166.22 70.1308 166.946 69.1555 167.577ZM68.2748 166.218C69.0206 165.735 69.5702 165.175 69.9237 164.539C70.2697 163.891 70.4588 163.215 70.4909 162.51C70.5229 161.805 70.4261 161.103 70.2002 160.402C69.967 159.69 69.6497 159.024 69.2483 158.404C68.847 157.785 68.3728 157.229 67.8257 156.736C67.2711 156.232 66.6657 155.85 66.0093 155.591C65.353 155.332 64.6623 155.234 63.9372 155.297C63.2047 155.348 62.4655 155.615 61.7197 156.098C60.9739 156.581 60.428 157.146 60.082 157.794C59.7285 158.43 59.5357 159.101 59.5036 159.805C59.4716 160.51 59.5722 161.219 59.8054 161.931C60.0313 162.632 60.3448 163.292 60.7462 163.911C61.1475 164.531 61.6254 165.093 62.18 165.597C62.7271 166.089 63.3288 166.465 63.9852 166.724C64.6415 166.983 65.336 167.087 66.0685 167.036C66.7935 166.974 67.529 166.701 68.2748 166.218ZM68.8959 149.91L74.2829 146.421C75.5336 145.611 76.6825 145.323 77.7298 145.556C78.7696 145.779 79.6611 146.464 80.4043 147.611C81.1475 148.758 81.4117 149.858 81.1968 150.909C80.9745 151.949 80.238 152.874 78.9874 153.684L75.2354 156.114L78.4907 161.14L76.8556 162.199L68.8959 149.91ZM77.5448 152.664C78.4742 152.062 79.0285 151.434 79.2078 150.78C79.3911 150.108 79.2449 149.404 78.7693 148.67C78.2936 147.936 77.7152 147.52 77.0339 147.424C76.3567 147.309 75.5534 147.553 74.624 148.155L71.4228 150.228L74.3436 154.737L77.5448 152.664ZM80.0561 142.681L81.6911 141.622L88.4357 152.035L87.8698 137.62L89.9351 136.282L97.8948 148.571L96.2598 149.63L89.4929 139.183L90.0639 153.643L88.0158 154.97L80.0561 142.681ZM101.098 131.006L97.002 133.66L96.1101 132.283L105.938 125.917L106.829 127.294L102.733 129.947L109.801 140.859L108.166 141.918L101.098 131.006ZM120.637 134.231C119.661 134.863 118.695 135.244 117.738 135.376C116.773 135.496 115.851 135.417 114.971 135.14C114.091 134.863 113.276 134.422 112.526 133.817C111.787 133.204 111.142 132.473 110.592 131.624C110.05 130.787 109.65 129.905 109.393 128.981C109.14 128.037 109.067 127.107 109.174 126.191C109.281 125.274 109.586 124.401 110.09 123.569C110.594 122.738 111.334 122.006 112.309 121.375C113.284 120.743 114.254 120.367 115.219 120.247C116.184 120.127 117.106 120.206 117.986 120.483C118.866 120.76 119.679 121.21 120.425 121.835C121.176 122.44 121.822 123.161 122.365 123.999C122.915 124.848 123.312 125.739 123.558 126.671C123.815 127.596 123.89 128.516 123.783 129.432C123.676 130.349 123.371 131.222 122.867 132.054C122.355 132.874 121.612 133.599 120.637 134.231ZM119.756 132.872C120.502 132.388 121.051 131.829 121.405 131.193C121.751 130.545 121.94 129.869 121.972 129.164C122.004 128.459 121.907 127.756 121.681 127.056C121.448 126.343 121.131 125.678 120.73 125.058C120.328 124.438 119.854 123.882 119.307 123.39C118.752 122.886 118.147 122.504 117.491 122.245C116.834 121.986 116.143 121.888 115.418 121.95C114.686 122.001 113.947 122.268 113.201 122.752C112.455 123.235 111.909 123.8 111.563 124.448C111.21 125.084 111.017 125.754 110.985 126.459C110.953 127.164 111.053 127.873 111.287 128.585C111.512 129.285 111.826 129.946 112.227 130.565C112.629 131.185 113.107 131.747 113.661 132.251C114.208 132.743 114.81 133.119 115.466 133.378C116.123 133.637 116.817 133.741 117.55 133.69C118.275 133.627 119.01 133.355 119.756 132.872ZM128.276 129.136C128.104 129.248 127.909 129.349 127.692 129.441C127.494 129.537 127.318 129.594 127.166 129.611L126.208 128.131C126.47 128.058 126.728 127.94 126.98 127.777C127.497 127.442 127.727 126.918 127.672 126.205C127.621 125.472 127.352 124.579 126.866 123.526C126.379 122.473 125.722 121.27 124.894 119.917C124.059 118.552 123.121 117.067 122.081 115.46L129.791 110.466L137.751 122.755L136.116 123.814L129.048 112.902L124.573 115.801C125.194 116.783 125.788 117.75 126.355 118.702C126.927 119.635 127.44 120.54 127.895 121.418C128.354 122.278 128.731 123.1 129.028 123.885C129.325 124.67 129.511 125.397 129.585 126.065C129.652 126.722 129.586 127.311 129.386 127.831C129.185 128.352 128.815 128.787 128.276 129.136ZM132.478 108.726L134.113 107.667L137.358 112.675L141.196 110.189C142.412 109.401 143.546 109.115 144.597 109.329C145.652 109.525 146.563 110.214 147.328 111.396C148.086 112.566 148.343 113.679 148.097 114.734C147.856 115.769 147.127 116.681 145.911 117.469L140.438 121.014L132.478 108.726ZM144.469 116.449C146.259 115.29 146.667 113.958 145.693 112.455C144.705 110.929 143.315 110.746 141.526 111.905L138.238 114.035L141.181 118.578L144.469 116.449ZM143.723 101.442L145.358 100.383L149.215 106.338L151.588 96.3477L153.705 94.9764L151.398 104.24L161.871 107.131L159.806 108.469L150.806 106.041L150.307 108.025L153.317 112.672L151.682 113.731L143.723 101.442ZM168.538 103.204C167.563 103.836 166.596 104.217 165.639 104.349C164.674 104.469 163.752 104.39 162.872 104.113C161.992 103.836 161.177 103.395 160.427 102.789C159.688 102.177 159.044 101.446 158.494 100.597C157.951 99.7592 157.551 98.878 157.294 97.9532C157.041 97.0095 156.968 96.0795 157.075 95.1633C157.182 94.2471 157.488 93.3733 157.991 92.542C158.495 91.7106 159.235 90.9791 160.21 90.3474C161.186 89.7156 162.156 89.3398 163.12 89.2198C164.085 89.0999 165.007 89.1784 165.887 89.4555C166.767 89.7325 167.58 90.1832 168.326 90.8073C169.077 91.4125 169.723 92.134 170.266 92.9716C170.816 93.8206 171.213 94.7113 171.459 95.6435C171.716 96.5684 171.791 97.4889 171.684 98.4051C171.577 99.3213 171.272 100.195 170.768 101.026C170.256 101.846 169.513 102.572 168.538 103.204ZM167.657 101.844C168.403 101.361 168.953 100.801 169.306 100.165C169.652 99.5177 169.841 98.8415 169.873 98.1366C169.905 97.4317 169.808 96.7289 169.583 96.0283C169.349 95.3161 169.032 94.6502 168.631 94.0306C168.229 93.411 167.755 92.8549 167.208 92.3624C166.654 91.8583 166.048 91.4768 165.392 91.2178C164.735 90.9589 164.045 90.8607 163.32 90.9231C162.587 90.9741 161.848 91.2411 161.102 91.7242C160.356 92.2073 159.81 92.7727 159.464 93.4203C159.111 94.0564 158.918 94.7269 158.886 95.4318C158.854 96.1367 158.955 96.8452 159.188 97.5574C159.414 98.258 159.727 98.9182 160.129 99.5378C160.53 100.157 161.008 100.719 161.562 101.223C162.109 101.716 162.711 102.092 163.368 102.351C164.024 102.61 164.718 102.713 165.451 102.662C166.176 102.6 166.911 102.327 167.657 101.844ZM173.068 82.434L182.638 76.2357L190.597 88.5242L188.962 89.5833L181.894 78.6716L175.595 82.7518L182.663 93.6635L181.028 94.7225L173.068 82.434ZM185.321 74.4975L190.708 71.0082C191.959 70.1981 193.108 69.9099 194.155 70.1437C195.195 70.366 196.086 71.0508 196.829 72.1982C197.573 73.3456 197.837 74.445 197.622 75.4963C197.4 76.5361 196.663 77.4611 195.413 78.2711L191.661 80.7014L194.916 85.727L193.281 86.7861L185.321 74.4975ZM193.97 77.251C194.899 76.649 195.454 76.0212 195.633 75.3676C195.816 74.6951 195.67 73.9916 195.194 73.2573C194.719 72.523 194.14 72.1077 193.459 72.0115C192.782 71.8964 191.979 72.1398 191.049 72.7418L187.848 74.8153L190.769 79.3246L193.97 77.251ZM199.82 65.106L201.627 63.9354L214.389 73.1136L212.582 74.2842L208.842 71.4534L203.645 74.8201L204.665 79.4123L202.995 80.4937L199.82 65.106ZM207.434 70.411L201.674 66.0064L201.639 66.0287L203.269 73.1088L207.434 70.411ZM207.641 60.0399L212.099 57.1525C212.363 56.9816 212.648 56.8052 212.953 56.6235C213.263 56.4228 213.578 56.2431 213.899 56.0843C214.212 55.914 214.519 55.7721 214.82 55.6585C215.121 55.5449 215.395 55.4898 215.642 55.493C216.199 55.4738 216.753 55.5873 217.304 55.8335C217.866 56.0722 218.347 56.5014 218.748 57.121C219.172 57.775 219.379 58.447 219.37 59.137C219.365 59.8081 219.144 60.4479 218.708 61.0564L218.73 61.0908C219.591 60.761 220.394 60.7299 221.137 60.9975C221.881 61.2652 222.498 61.7777 222.988 62.535C223.278 62.9824 223.48 63.4705 223.595 63.9991C223.709 64.5276 223.713 65.0624 223.607 65.6032C223.506 66.1251 223.287 66.6417 222.95 67.153C222.617 67.6453 222.147 68.0884 221.539 68.4823L215.601 72.3284L207.641 60.0399ZM220.44 67.2392C221.163 66.771 221.599 66.2118 221.748 65.5615C221.908 64.9039 221.766 64.2308 221.32 63.5424C221.06 63.1408 220.77 62.8564 220.449 62.6891C220.129 62.5218 219.795 62.4453 219.446 62.4597C219.101 62.4551 218.749 62.5282 218.391 62.6789C218.025 62.8182 217.67 62.9993 217.325 63.2223L213.591 65.6414L216.344 69.8925L220.44 67.2392ZM215.969 62.1464C216.898 61.5444 217.46 60.9527 217.653 60.3713C217.851 59.771 217.738 59.1439 217.314 58.4899C217.039 58.0653 216.751 57.7714 216.45 57.6082C216.141 57.4335 215.822 57.3553 215.492 57.3737C215.162 57.3921 214.825 57.4881 214.481 57.6618C214.142 57.8166 213.794 58.0091 213.438 58.2395L210.168 60.3577L212.699 64.2645L215.969 62.1464ZM225.304 64.0891L226.508 63.3087C226.47 62.747 226.348 62.0932 226.142 61.3473C225.936 60.6014 225.664 59.8166 225.326 58.9931C224.992 58.1507 224.597 57.2904 224.143 56.4123C223.68 55.5227 223.174 54.6533 222.624 53.8043L221.041 51.3603L228.958 46.2322L236.026 57.1439L237.386 56.2632L240.251 60.6863L238.685 61.7008L236.711 58.6545L227.762 64.4515L229.735 67.4978L228.169 68.5123L225.304 64.0891ZM234.391 58.2029L228.215 48.6681L223.516 51.7116L224.665 53.4843C225.155 54.2415 225.609 55.0306 226.027 55.8513C226.449 56.6532 226.814 57.443 227.122 58.2206C227.434 58.9793 227.69 59.7012 227.889 60.3864C228.1 61.0641 228.237 61.6518 228.298 62.1493L234.391 58.2029ZM241.834 55.6051C241.639 55.7315 241.429 55.8349 241.204 55.9153C240.998 55.9998 240.814 56.0543 240.65 56.0786L239.703 54.6157C239.897 54.5879 240.083 54.5487 240.262 54.498C240.445 54.4284 240.634 54.3304 240.829 54.204C241.139 54.0034 241.36 53.7048 241.495 53.3085C241.629 52.9121 241.658 52.429 241.582 51.8592L241.51 51.2952L230.636 45.1451L232.409 43.9968L241.334 49.1372L239.414 39.4596L241.152 38.3336L243.175 50.5095C243.306 51.2393 243.368 51.8753 243.361 52.4174C243.353 52.9595 243.292 53.4308 243.177 53.8312C243.062 54.2317 242.885 54.5744 242.646 54.8594C242.426 55.1485 242.155 55.397 241.834 55.6051Z" fill="white"/>
</g>
<defs>
<clipPath id="clip0_191_147">
<rect width="295" height="218" fill="white"/>
</clipPath>
</defs>
</svg>
