<svg width="113" height="802" viewBox="0 0 113 802" fill="none" xmlns="http://www.w3.org/2000/svg">
<path d="M37.3495 23H14V106.808H56.5295L74.8756 68.4482V106.808H99.059V23H74.8756L37.3495 95.9673V23Z" stroke="black" stroke-width="3.12251"/>
<path d="M38.1835 419.108H14.834V502.916H57.3635L75.7096 464.556V502.916H99.893V419.108H75.7096L38.1835 492.075V419.108Z" stroke="black" stroke-width="3.12251"/>
<path d="M14 236.481V210.63H99.476V295.272H14V270.255H75.7095V257.746H62.3669V246.071H75.7095V236.481H14Z" stroke="black" stroke-width="3.12251"/>
<path d="M14 320.29V304.862H99.8929V320.29H75.2925V389.087H61.116V320.29H14Z" stroke="black" stroke-width="3.12251"/>
<path d="M100.31 515.008H15.668V597.983H35.2649V535.439H100.31V515.008Z" stroke="black" stroke-width="3.12251"/>
<path d="M15.668 691.38V607.572H104.063V645.932H35.2649V691.38H15.668Z" stroke="black" stroke-width="3.12251"/>
<path d="M15.668 787.28V703.472H104.063V741.832V787.28H85.7166V741.832H35.2649V787.28H15.668Z" stroke="black" stroke-width="3.12251"/>
<path d="M99.059 200.623H14V178.524H23.7602L25.3111 117.232H69.9254L87.0206 178.524L99.059 178.524V200.623Z" stroke="black" stroke-width="3.11883"/>
</svg>
