<svg width="303" height="330" viewBox="0 0 303 330" fill="none" xmlns="http://www.w3.org/2000/svg">
<g clip-path="url(#clip0_191_149)">
<path d="M41.7733 23.1871L204.209 -0.803529L302.875 -1L303.245 185.015L190.998 322.26L149.365 288.71L236.069 185.149L123.754 288.761L83.7828 246.074L174.71 154.961L42.2074 241.174L12.3044 194.314L166.621 98.9228L23.1544 161.075L1.24434 122.089L166.536 56.1559L55.7252 71.7394L41.7733 23.1871Z" fill="white"/>
<path d="M204.209 -0.803529L41.7733 23.1871L55.7252 71.7394L166.536 56.1559L1.24434 122.089L23.1544 161.075L166.621 98.9228L12.3044 194.314L42.2074 241.174L174.71 154.961L83.7828 246.074L123.754 288.761L236.069 185.149L149.365 288.71L190.998 322.26L303.245 185.015L302.875 -1L190.354 -0.775939" stroke="black" stroke-width="3.11883"/>
<path d="M204 4.05312e-06L300.5 -2V185" stroke="white" stroke-width="6"/>
</g>
<defs>
<clipPath id="clip0_191_149">
<rect width="303" height="330" fill="white"/>
</clipPath>
</defs>
</svg>
