<svg width="165" height="179" viewBox="0 0 165 179" fill="none" xmlns="http://www.w3.org/2000/svg">
<path d="M33.8573 21.6416L110.205 2.55486L151.911 41.7513L150.431 50.7208L163.168 61.7309L158.507 88.2857L144.757 85.1159L134.676 146.221L99.9464 176.317L63.9564 158.308L28.5484 95.4627L10.0165 98.2466L2.31517 63.342L20.1733 64.4587L33.8573 21.6416Z" fill="black"/>
<path d="M20.1733 64.4587L16.8822 74.7565L28.5484 95.4627M20.1733 64.4587L33.8573 21.6416L110.205 2.55486L151.911 41.7513L150.431 50.7208M20.1733 64.4587L2.31518 63.342L10.0165 98.2466L28.5484 95.4627M28.5484 95.4627L63.9564 158.308L99.9464 176.317L134.676 146.221L144.757 85.1159M150.431 50.7208L163.168 61.7309L158.507 88.2857L144.757 85.1159M150.431 50.7208L144.757 85.1159" stroke="white" stroke-width="3.11883"/>
</svg>
