<svg width="1596" height="425" viewBox="0 0 1596 425" fill="none" xmlns="http://www.w3.org/2000/svg">
<g clip-path="url(#clip0_137_2)">
<path d="M28.7294 311.14L0 117.553V0H225.803L392.131 134.06L351.305 183.583L225.803 80.036L351.305 214.096L299.391 261.618L189.009 153.069L293.343 311.14L236.388 346.656L120.966 162.573L196.066 333.65L148.687 359.662L69.0514 162.573L87.7003 294.633L28.7294 311.14Z" fill="white"/>
<path d="M0 117.553L28.7294 311.14L87.7003 294.633L69.0514 162.573L148.687 359.662L196.066 333.65L120.966 162.573L236.388 346.656L293.343 311.14L189.009 153.069L299.391 261.618L351.305 214.096L225.803 80.036L351.305 183.583L392.131 134.06L225.803 0H0V134.06" stroke="black" stroke-width="3.74652"/>
<path d="M156.687 243.399L111.685 257.979L124.266 292.485L168.784 272.559L156.687 243.399Z" fill="black" stroke="black" stroke-width="3.74652"/>
<path d="M190.922 271.448L170.789 239.14L224.314 206.335L245.92 239.14L190.922 271.448Z" fill="black" stroke="black" stroke-width="3.74652"/>
<path d="M263.613 224.362L237.906 199.133L286.354 144.223L314.039 174.399L263.613 224.362Z" fill="black" stroke="black" stroke-width="3.74652"/>
<path d="M321.049 157.245L299.011 139.102L331.067 87.123L360.117 108.209L321.049 157.245Z" fill="black" stroke="black" stroke-width="3.74652"/>
<path d="M324.056 117.178L481.831 198.319L535.424 251.912H599.536L637.101 179.787L654.131 322.034L668.155 251.912H730.764L760.816 198.319L787.363 425.715L799.884 251.912L859.488 240.893L875.015 154.743L889.04 367.614L906.069 276.956H986.209L1006.24 198.319L1031.29 322.034L1045.31 262.431L1132.96 240.893L1167.52 198.319L1192.57 339.565L1210.1 223.363L1289.74 276.956L1327.3 251.912L1411.95 262.431L1595.77 179.787" stroke="black" stroke-width="5.00872"/>
</g>
<defs>
<clipPath id="clip0_137_2">
<rect width="1596" height="424.601" fill="white"/>
</clipPath>
</defs>
</svg>
