<svg width="314" height="192" viewBox="0 0 314 192" fill="none" xmlns="http://www.w3.org/2000/svg">
<g clip-path="url(#clip0_202_157)">
<rect x="31.3909" y="2.99718" width="306.046" height="52.5365" transform="rotate(27.1721 31.3909 2.99718)" fill="white" stroke="black" stroke-width="4.16956"/>
<path d="M44.16 29.5472L52.5928 33.9538L51.833 35.4077L45.1268 31.9033L39.1056 43.4257L37.3791 42.5235L44.16 29.5472ZM52.5989 50.8469C51.569 50.3088 50.7613 49.6553 50.1759 48.8866C49.5967 48.1058 49.2112 47.2643 49.0195 46.362C48.8277 45.4597 48.8107 44.533 48.9683 43.582C49.1381 42.6372 49.4572 41.7166 49.9257 40.82C50.3879 39.9355 50.9583 39.1539 51.637 38.4751C52.3341 37.7905 53.1077 37.2693 53.958 36.9115C54.8082 36.5537 55.7191 36.3896 56.6908 36.4192C57.6625 36.4488 58.6633 36.7327 59.6932 37.2709C60.7231 37.809 61.5276 38.4685 62.1067 39.2493C62.6859 40.0301 63.0713 40.8717 63.2631 41.774C63.4548 42.6762 63.4627 43.6058 63.2866 44.5627C63.1289 45.5137 62.819 46.4315 62.3568 47.316C61.8883 48.2126 61.3087 48.9971 60.6179 49.6696C59.9393 50.3484 59.1748 50.8667 58.3246 51.2245C57.4744 51.5823 56.5634 51.7464 55.5917 51.7168C54.6264 51.675 53.6287 51.3851 52.5989 50.8469ZM53.3491 49.4112C54.1367 49.8227 54.8943 50.0258 55.6221 50.0205C56.3561 50.003 57.0379 49.8349 57.6673 49.5159C58.2967 49.197 58.8608 48.7668 59.3597 48.2254C59.8649 47.6719 60.2884 47.068 60.6303 46.4138C60.9722 45.7595 61.2229 45.073 61.3825 44.3543C61.5485 43.6236 61.5827 42.9087 61.4851 42.2099C61.3875 41.5111 61.1332 40.8615 60.722 40.261C60.3172 39.6484 59.721 39.1363 58.9334 38.7248C58.1459 38.3133 57.3851 38.1162 56.651 38.1337C55.9233 38.139 55.2447 38.3011 54.6153 38.62C53.9859 38.939 53.4186 39.3752 52.9134 39.9287C52.4146 40.4701 51.9942 41.0679 51.6523 41.7222C51.3104 42.3765 51.0565 43.069 50.8905 43.7998C50.7309 44.5185 50.6999 45.2272 50.7975 45.926C50.895 46.6248 51.1462 47.2806 51.5511 47.8931C51.9622 48.4936 52.5616 48.9996 53.3491 49.4112ZM67.8512 41.9273L72.5583 44.387C72.837 44.5326 73.1306 44.6938 73.4393 44.8705C73.7665 45.0415 74.078 45.2274 74.3741 45.4284C74.6764 45.6172 74.9511 45.8148 75.1981 46.021C75.4451 46.2272 75.6279 46.4383 75.7463 46.6545C76.0374 47.1305 76.2112 47.6686 76.2677 48.2689C76.3364 48.8755 76.1997 49.5059 75.8578 50.1602C75.497 50.8508 75.0139 51.3619 74.4088 51.6935C73.822 52.0193 73.1564 52.1419 72.4119 52.0613L72.3929 52.0977C73.1039 52.6852 73.5258 53.3684 73.6586 54.1473C73.7914 54.9263 73.6489 55.7156 73.2311 56.5152C72.9841 56.9877 72.6587 57.4038 72.2548 57.7635C71.851 58.1231 71.3876 58.39 70.8647 58.5641C70.3603 58.7324 69.8027 58.7958 69.192 58.7543C68.5997 58.707 67.9825 58.5156 67.3404 58.18L61.0703 54.9036L67.8512 41.9273ZM67.882 56.6122C68.6454 57.011 69.3467 57.1153 69.986 56.9249C70.6375 56.7409 71.1531 56.2854 71.533 55.5585C71.7546 55.1344 71.8595 54.7419 71.8476 54.3809C71.8357 54.0199 71.7376 53.6911 71.5534 53.3943C71.3876 53.0917 71.1509 52.8214 70.8433 52.5836C70.542 52.3336 70.2096 52.1137 69.8462 51.9237L65.9024 49.8629L63.5566 54.3519L67.882 56.6122ZM70.1152 50.2134C71.0966 50.7262 71.888 50.9238 72.4893 50.8062C73.1091 50.6827 73.5995 50.2757 73.9604 49.5851C74.1946 49.1368 74.3087 48.7414 74.3026 48.3988C74.3028 48.0442 74.2137 47.7277 74.0352 47.4493C73.8568 47.171 73.6074 46.925 73.2872 46.7114C72.9854 46.492 72.6467 46.2841 72.2711 46.0878L68.818 44.2834L66.6622 48.4089L70.1152 50.2134ZM78.8484 64.5639C77.8185 64.0257 77.0108 63.3723 76.4254 62.6036C75.8462 61.8228 75.4607 60.9812 75.269 60.0789C75.0772 59.1767 75.0602 58.25 75.2178 57.2989C75.3876 56.3542 75.7067 55.4335 76.1752 54.5369C76.6374 53.6525 77.2078 52.8708 77.8865 52.192C78.5836 51.5074 79.3572 50.9862 80.2075 50.6284C81.0577 50.2706 81.9686 50.1065 82.9403 50.1361C83.912 50.1658 84.9128 50.4496 85.9427 50.9878C86.9725 51.526 87.7771 52.1855 88.3562 52.9663C88.9354 53.7471 89.3208 54.5886 89.5126 55.4909C89.7043 56.3932 89.7122 57.3228 89.5361 58.2796C89.3784 59.2307 89.0685 60.1484 88.6063 61.0329C88.1378 61.9295 87.5582 62.714 86.8674 63.3865C86.1888 64.0654 85.4243 64.5837 84.5741 64.9414C83.7239 65.2992 82.8129 65.4633 81.8412 65.4337C80.8759 65.392 79.8782 65.102 78.8484 64.5639ZM79.5986 63.1281C80.3862 63.5396 81.1438 63.7428 81.8716 63.7374C82.6056 63.72 83.2874 63.5518 83.9168 63.2329C84.5462 62.9139 85.1103 62.4838 85.6092 61.9424C86.1144 61.3889 86.5379 60.785 86.8798 60.1307C87.2217 59.4764 87.4724 58.79 87.632 58.0713C87.798 57.3405 87.8322 56.6257 87.7346 55.9269C87.637 55.2281 87.3827 54.5784 86.9715 53.9779C86.5667 53.3653 85.9705 52.8533 85.1829 52.4417C84.3954 52.0302 83.6346 51.8332 82.9005 51.8506C82.1728 51.8559 81.4942 52.0181 80.8648 52.337C80.2354 52.6559 79.6681 53.0921 79.1629 53.6457C78.6641 54.1871 78.2437 54.7849 77.9018 55.4392C77.5599 56.0934 77.306 56.7859 77.14 57.5167C76.9804 58.2354 76.9494 58.9442 77.047 59.643C77.1445 60.3418 77.3957 60.9975 77.8006 61.6101C78.2117 62.2106 78.8111 62.7166 79.5986 63.1281ZM94.1007 55.6442L99.7892 58.6168C101.11 59.3069 101.926 60.1653 102.238 61.192C102.556 62.2067 102.399 63.3198 101.765 64.5314C101.132 65.743 100.305 66.5139 99.2843 66.8442C98.2697 67.1623 97.1021 66.9764 95.7814 66.2862L91.8195 64.2159L89.0463 69.5227L87.3198 68.6205L94.1007 55.6442ZM95.9596 64.5284C96.941 65.0413 97.7604 65.2149 98.4176 65.0493C99.0933 64.878 99.6337 64.4046 100.039 63.6291C100.444 62.8537 100.521 62.1458 100.27 61.5054C100.036 60.8592 99.4293 60.2796 98.4479 59.7668L95.0675 58.0003L92.5793 62.762L95.9596 64.5284ZM105.885 61.8024L107.612 62.7047L101.866 73.7L114.137 66.1141L116.317 67.2538L109.537 80.2301L107.81 79.3278L113.575 68.2962L101.267 75.9089L99.1046 74.7788L105.885 61.8024ZM126.404 74.3754L122.078 72.1151L122.838 70.6612L133.215 76.084L132.456 77.538L128.13 75.2777L122.109 86.8L120.383 85.8978L126.404 74.3754ZM133.211 92.9716C132.181 92.4334 131.373 91.78 130.788 91.0113C130.209 90.2305 129.823 89.3889 129.632 88.4867C129.44 87.5844 129.423 86.6577 129.58 85.7066C129.75 84.7619 130.069 83.8412 130.538 82.9446C131 82.0602 131.57 81.2785 132.249 80.5997C132.946 79.9151 133.72 79.3939 134.57 79.0361C135.42 78.6783 136.331 78.5142 137.303 78.5439C138.275 78.5735 139.275 78.8574 140.305 79.3955C141.335 79.9337 142.14 80.5932 142.719 81.374C143.298 82.1548 143.683 82.9963 143.875 83.8986C144.067 84.8009 144.075 85.7305 143.899 86.6873C143.741 87.6384 143.431 88.5562 142.969 89.4406C142.5 90.3372 141.921 91.1218 141.23 91.7942C140.551 92.4731 139.787 92.9914 138.937 93.3491C138.086 93.7069 137.175 93.871 136.204 93.8414C135.238 93.7997 134.241 93.5097 133.211 92.9716ZM133.961 91.5358C134.749 91.9474 135.506 92.1505 136.234 92.1451C136.968 92.1277 137.65 91.9595 138.279 91.6406C138.909 91.3216 139.473 90.8915 139.972 90.3501C140.477 89.7966 140.9 89.1927 141.242 88.5384C141.584 87.8841 141.835 87.1977 141.995 86.479C142.161 85.7482 142.195 85.0334 142.097 84.3346C142 83.6358 141.745 82.9861 141.334 82.3856C140.929 81.7731 140.333 81.261 139.545 80.8494C138.758 80.4379 137.997 80.2409 137.263 80.2583C136.535 80.2636 135.857 80.4258 135.227 80.7447C134.598 81.0636 134.031 81.4999 133.525 82.0534C133.027 82.5948 132.606 83.1926 132.264 83.8469C131.922 84.5011 131.669 85.1937 131.503 85.9244C131.343 86.6431 131.312 87.3519 131.41 88.0507C131.507 88.7495 131.758 89.4052 132.163 90.0178C132.574 90.6183 133.174 91.1243 133.961 91.5358ZM141.406 97.115C141.224 97.02 141.04 96.9005 140.853 96.7566C140.671 96.631 140.536 96.5063 140.447 96.3824L141.263 94.8194C141.455 95.0124 141.685 95.1786 141.951 95.3179C142.497 95.6028 143.066 95.5457 143.66 95.1466C144.273 94.7418 144.918 94.0685 145.595 93.1267C146.272 92.185 146.996 91.0208 147.767 89.6344C148.544 88.2358 149.376 86.6884 150.262 84.9921L158.404 89.2468L151.624 102.223L149.897 101.321L155.918 89.7985L151.193 87.3293C150.643 88.3528 150.093 89.3458 149.544 90.3082C149.013 91.2648 148.477 92.1571 147.937 92.9852C147.414 93.8074 146.885 94.5409 146.347 95.1855C145.81 95.8302 145.269 96.3494 144.723 96.7432C144.185 97.1249 143.639 97.3567 143.088 97.4386C142.536 97.5204 141.975 97.4126 141.406 97.115ZM161.242 90.7295L162.968 91.6317L160.205 96.9204L164.258 99.0383C165.542 99.7094 166.349 100.555 166.68 101.576C167.028 102.592 166.877 103.723 166.224 104.971C165.579 106.207 164.736 106.978 163.697 107.283C162.677 107.583 161.525 107.397 160.24 106.726L154.461 103.706L161.242 90.7295ZM160.419 104.968C162.309 105.956 163.668 105.656 164.498 104.069C165.34 102.457 164.816 101.158 162.926 100.17L159.455 98.3562L156.947 103.154L160.419 104.968ZM173.115 96.9341L174.842 97.8364L171.556 104.125L181.421 101.274L183.656 102.442L174.457 104.993L177.094 115.533L174.913 114.393L172.598 105.363L170.625 105.906L168.061 110.813L166.335 109.91L173.115 96.9341ZM183.793 119.404C182.763 118.866 181.956 118.212 181.37 117.444C180.791 116.663 180.405 115.821 180.214 114.919C180.022 114.017 180.005 113.09 180.163 112.139C180.332 111.194 180.651 110.273 181.12 109.377C181.582 108.492 182.153 107.711 182.831 107.032C183.528 106.347 184.302 105.826 185.152 105.468C186.002 105.111 186.913 104.946 187.885 104.976C188.857 105.006 189.858 105.29 190.887 105.828C191.917 106.366 192.722 107.025 193.301 107.806C193.88 108.587 194.266 109.429 194.457 110.331C194.649 111.233 194.657 112.163 194.481 113.12C194.323 114.071 194.013 114.988 193.551 115.873C193.083 116.769 192.503 117.554 191.812 118.226C191.134 118.905 190.369 119.424 189.519 119.781C188.669 120.139 187.758 120.303 186.786 120.274C185.821 120.232 184.823 119.942 183.793 119.404ZM184.543 117.968C185.331 118.38 186.089 118.583 186.816 118.577C187.55 118.56 188.232 118.392 188.862 118.073C189.491 117.754 190.055 117.324 190.554 116.782C191.059 116.229 191.483 115.625 191.825 114.971C192.166 114.316 192.417 113.63 192.577 112.911C192.743 112.18 192.777 111.466 192.679 110.767C192.582 110.068 192.327 109.418 191.916 108.818C191.511 108.205 190.915 107.693 190.128 107.282C189.34 106.87 188.579 106.673 187.845 106.691C187.118 106.696 186.439 106.858 185.81 107.177C185.18 107.496 184.613 107.932 184.108 108.486C183.609 109.027 183.188 109.625 182.847 110.279C182.505 110.933 182.251 111.626 182.085 112.357C181.925 113.075 181.894 113.784 181.992 114.483C182.089 115.182 182.34 115.837 182.745 116.45C183.156 117.051 183.756 117.557 184.543 117.968ZM204.104 113.127L214.208 118.408L207.428 131.384L205.701 130.482L211.722 118.959L205.07 115.484L199.049 127.006L197.323 126.104L204.104 113.127ZM217.042 119.888L222.731 122.861C224.051 123.551 224.867 124.41 225.179 125.436C225.497 126.451 225.34 127.564 224.707 128.776C224.074 129.987 223.247 130.758 222.226 131.088C221.211 131.407 220.043 131.221 218.723 130.531L214.761 128.46L211.988 133.767L210.261 132.865L217.042 119.888ZM218.901 128.773C219.882 129.286 220.702 129.459 221.359 129.294C222.035 129.122 222.575 128.649 222.98 127.873C223.385 127.098 223.462 126.39 223.211 125.75C222.978 125.103 222.371 124.524 221.389 124.011L218.009 122.245L215.521 127.006L218.901 128.773ZM232.353 127.889L234.261 128.886L232.551 144.512L230.642 143.515L231.267 138.867L225.778 135.999L222.282 139.146L220.519 138.225L232.353 127.889ZM231.481 137.128L232.481 129.946L232.445 129.927L227.083 134.83L231.481 137.128ZM240.612 132.205L245.319 134.665C245.597 134.81 245.891 134.971 246.2 135.148C246.527 135.319 246.838 135.505 247.134 135.706C247.437 135.895 247.712 136.092 247.959 136.299C248.206 136.505 248.388 136.716 248.507 136.932C248.798 137.408 248.972 137.946 249.028 138.547C249.097 139.153 248.96 139.784 248.618 140.438C248.257 141.128 247.774 141.64 247.169 141.971C246.582 142.297 245.917 142.42 245.172 142.339L245.153 142.375C245.864 142.963 246.286 143.646 246.419 144.425C246.552 145.204 246.409 145.993 245.991 146.793C245.745 147.265 245.419 147.682 245.015 148.041C244.611 148.401 244.148 148.668 243.625 148.842C243.121 149.01 242.563 149.074 241.952 149.032C241.36 148.985 240.743 148.793 240.101 148.458L233.831 145.181L240.612 132.205ZM240.642 146.89C241.406 147.289 242.107 147.393 242.746 147.203C243.398 147.019 243.914 146.563 244.293 145.836C244.515 145.412 244.62 145.02 244.608 144.659C244.596 144.298 244.498 143.969 244.314 143.672C244.148 143.369 243.911 143.099 243.604 142.861C243.302 142.611 242.97 142.391 242.607 142.201L238.663 140.141L236.317 144.63L240.642 146.89ZM242.876 140.491C243.857 141.004 244.648 141.202 245.25 141.084C245.87 140.96 246.36 140.553 246.721 139.863C246.955 139.414 247.069 139.019 247.063 138.677C247.063 138.322 246.974 138.005 246.796 137.727C246.617 137.449 246.368 137.203 246.048 136.989C245.746 136.77 245.407 136.562 245.031 136.366L241.578 134.561L239.423 138.687L242.876 140.491ZM245.778 149.573L247.05 150.238C247.52 149.929 248.029 149.501 248.577 148.954C249.125 148.407 249.674 147.784 250.225 147.085C250.794 146.38 251.349 145.613 251.89 144.785C252.437 143.945 252.944 143.076 253.413 142.18L254.761 139.599L263.122 143.968L257.1 155.49L258.536 156.24L256.095 160.911L254.442 160.047L256.123 156.83L246.672 151.892L244.991 155.108L243.337 154.244L245.778 149.573ZM255.374 154.588L260.635 144.519L255.674 141.927L254.695 143.799C254.278 144.598 253.814 145.382 253.305 146.149C252.815 146.911 252.307 147.617 251.781 148.268C251.275 148.914 250.772 149.492 250.274 150.002C249.787 150.52 249.343 150.927 248.94 151.226L255.374 154.588ZM261.298 159.789C261.092 159.681 260.899 159.55 260.718 159.393C260.543 159.256 260.405 159.122 260.303 158.992L261.11 157.447C261.23 157.602 261.356 157.745 261.488 157.875C261.639 158 261.817 158.117 262.023 158.224C262.35 158.395 262.719 158.442 263.13 158.363C263.541 158.285 263.976 158.073 264.435 157.726L264.89 157.386L264.894 144.894L266.766 145.872L266.682 156.171L274.163 149.737L275.998 150.697L266.394 158.449C265.823 158.922 265.3 159.289 264.824 159.549C264.349 159.81 263.908 159.989 263.503 160.085C263.098 160.182 262.712 160.196 262.347 160.129C261.987 160.08 261.637 159.966 261.298 159.789Z" fill="black"/>
</g>
<defs>
<clipPath id="clip0_202_157">
<rect width="314" height="192" fill="white"/>
</clipPath>
</defs>
</svg>
