<svg width="266" height="147" viewBox="0 0 266 147" fill="none" xmlns="http://www.w3.org/2000/svg">
<g clip-path="url(#clip0_208_163)">
<ellipse cx="132.148" cy="73.5068" rx="129.462" ry="33.7728" transform="rotate(-159.744 132.148 73.5068)" fill="black"/>
<path d="M53.9203 35.0292L56.4057 35.9929L56.2594 49.1322L65.0283 39.3363L67.5137 40.3001L62.2206 53.9509L60.4999 53.2837L64.9034 41.9271L64.8652 41.9123L56.1982 51.6157L54.6495 51.0152L54.7896 38.0055L54.7513 37.9906L50.3478 49.3472L48.6271 48.68L53.9203 35.0292ZM70.5363 41.4721L72.3526 42.1764L70.1953 47.7399L74.2676 49.319C75.6187 49.8428 76.5152 50.5937 76.9571 51.5715C77.4167 52.5414 77.392 53.6829 76.883 54.9957C76.3789 56.2958 75.6276 57.1555 74.6293 57.5748C73.6487 57.9863 72.4828 57.9301 71.1317 57.4062L65.2432 55.1229L70.5363 41.4721ZM71.113 55.6395C73.1014 56.4105 74.4193 55.9611 75.0667 54.2914C75.724 52.5962 75.0585 51.3631 73.0701 50.5921L69.6096 49.2503L67.6525 54.2977L71.113 55.6395ZM82.4091 46.0758L84.2253 46.78L78.9322 60.4309L77.1159 59.7266L82.4091 46.0758ZM92.5304 50.0003L97.4821 51.9204C97.7753 52.0341 98.0851 52.1615 98.4116 52.3028C98.7557 52.4362 99.086 52.5863 99.4026 52.753C99.7241 52.907 100.019 53.0727 100.288 53.2501C100.556 53.4275 100.761 53.617 100.903 53.8186C101.245 54.2592 101.478 54.7747 101.601 55.3649C101.737 55.96 101.671 56.6017 101.404 57.29C101.123 58.0165 100.699 58.5783 100.135 58.9752C99.5882 59.3644 98.9404 59.5604 98.1915 59.5632L98.1767 59.6015C98.9487 60.1061 99.4441 60.738 99.6629 61.4973C99.8816 62.2566 99.8279 63.0569 99.5017 63.8981C99.309 64.3952 99.032 64.8449 98.6707 65.2473C98.3094 65.6498 97.8786 65.9666 97.3784 66.1978C96.8959 66.4213 96.3488 66.5464 95.7373 66.5732C95.1435 66.5922 94.5088 66.4707 93.8332 66.2088L87.2372 63.6512L92.5304 50.0003ZM94.1969 64.5903C94.9999 64.9017 95.7084 64.9272 96.3226 64.6668C96.9495 64.4113 97.4112 63.9012 97.7077 63.1365C97.8807 62.6904 97.9412 62.2886 97.8891 61.9312C97.8371 61.5738 97.703 61.2579 97.4869 60.9835C97.2884 60.7012 97.0231 60.4591 96.6909 60.257C96.3637 60.0421 96.0089 59.8605 95.6265 59.7123L91.4777 58.1036L89.6466 62.8259L94.1969 64.5903ZM95.7033 57.9826C96.7358 58.3829 97.5442 58.4911 98.1287 58.3072C98.7309 58.1155 99.1728 57.6564 99.4545 56.9299C99.6374 56.4583 99.7067 56.0526 99.6625 55.7129C99.6232 55.3605 99.4994 55.0559 99.291 54.7991C99.0827 54.5424 98.8075 54.3257 98.4654 54.1491C98.141 53.9647 97.7813 53.7959 97.3862 53.6426L93.7536 52.2341L92.0708 56.5741L95.7033 57.9826ZM105.847 71.219C104.789 70.8088 103.934 70.272 103.282 69.6087C102.635 68.9326 102.174 68.1747 101.899 67.3347C101.623 66.4948 101.52 65.5896 101.588 64.6191C101.669 63.6535 101.902 62.6737 102.288 61.6795C102.673 60.6853 103.174 59.8092 103.791 59.0512C104.412 58.2805 105.117 57.6739 105.904 57.2314C106.704 56.7939 107.578 56.546 108.524 56.4877C109.475 56.4167 110.48 56.5863 111.538 56.9965C112.251 57.2733 112.89 57.6308 113.453 58.0691C114.016 58.5074 114.475 59.0078 114.828 59.5701C115.182 60.1325 115.416 60.7584 115.53 61.4477C115.649 62.1242 115.618 62.8456 115.439 63.6116L113.622 62.9073C113.794 61.8596 113.623 60.9576 113.11 60.2014C112.61 59.4502 111.881 58.8893 110.925 58.5186C110.11 58.2023 109.349 58.0834 108.644 58.162C107.952 58.2455 107.314 58.4744 106.729 58.8487C106.161 59.2152 105.66 59.6953 105.224 60.2889C104.789 60.8825 104.433 61.5361 104.156 62.2499C103.855 63.0274 103.657 63.8013 103.564 64.5715C103.475 65.3289 103.515 66.0406 103.682 66.7065C103.866 67.3646 104.193 67.9603 104.66 68.4936C105.128 69.0268 105.77 69.4516 106.585 69.7679C107.172 69.9952 107.738 70.1047 108.284 70.0964C108.834 70.0753 109.342 69.957 109.807 69.7413C110.289 69.5179 110.72 69.2011 111.099 68.7909C111.478 68.3806 111.795 67.9025 112.051 67.3566L113.867 68.0608C113.017 69.7251 111.903 70.8399 110.525 71.4054C109.165 71.9631 107.606 71.901 105.847 71.219ZM119.416 60.4254L128.842 64.0801L128.249 65.6096L120.639 62.6591L118.957 66.9991L126.05 69.7495L125.457 71.279L118.364 68.5286L116.532 73.2509L124.199 76.2237L123.606 77.7532L114.123 74.0762L119.416 60.4254ZM133.039 81.6528C132.822 81.5687 132.615 81.4592 132.418 81.3242C132.229 81.2069 132.077 81.0892 131.962 80.9711L132.592 79.346C132.728 79.4867 132.869 79.6147 133.015 79.73C133.178 79.8374 133.368 79.9331 133.585 80.0171C133.929 80.1506 134.301 80.1555 134.701 80.0319C135.101 79.9084 135.509 79.6489 135.927 79.2535L136.341 78.8645L134.953 66.4498L136.922 67.2134L137.987 77.4571L144.704 70.2306L146.635 70.9794L137.954 79.7537C137.439 80.2872 136.96 80.7099 136.517 81.0218C136.073 81.3337 135.655 81.5603 135.263 81.7015C134.871 81.8428 134.49 81.9001 134.119 81.8736C133.756 81.8647 133.396 81.7911 133.039 81.6528ZM147.557 87.3923C146.742 87.076 146.027 86.6889 145.413 86.2308C144.799 85.7727 144.313 85.2473 143.957 84.6545C143.613 84.0666 143.417 83.4188 143.369 82.711C143.32 82.0032 143.457 81.2351 143.778 80.4066L145.518 81.0812C145.294 81.6979 145.206 82.265 145.254 82.7824C145.321 83.292 145.48 83.7498 145.733 84.1558C146.004 84.5541 146.36 84.9044 146.799 85.2069C147.239 85.5095 147.733 85.767 148.281 85.9795C148.753 86.1624 149.217 86.2691 149.675 86.2998C150.137 86.3178 150.561 86.2625 150.949 86.134C151.353 85.9977 151.705 85.7896 152.004 85.5097C152.321 85.222 152.564 84.8615 152.732 84.4281C152.924 83.931 152.984 83.4925 152.912 83.1124C152.844 82.7197 152.683 82.3787 152.429 82.0894C152.192 81.7923 151.876 81.5304 151.48 81.3036C151.097 81.0817 150.676 80.8818 150.217 80.7039C150.026 80.6297 149.807 80.5521 149.559 80.4709C149.317 80.377 149.124 80.3093 148.979 80.2677L149.557 78.7764C149.7 78.8612 149.899 78.953 150.154 79.0519C150.409 79.1507 150.613 79.2298 150.766 79.2891C151.199 79.4571 151.609 79.5721 151.995 79.634C152.4 79.6881 152.766 79.669 153.095 79.5766C153.437 79.4892 153.737 79.3198 153.996 79.0682C154.273 78.8089 154.5 78.4498 154.678 77.991C154.841 77.5703 154.894 77.1877 154.837 76.843C154.793 76.5033 154.663 76.1963 154.446 75.9218C154.248 75.6396 153.985 75.3911 153.658 75.1762C153.343 74.9663 152.995 74.7872 152.613 74.6389C151.606 74.2485 150.729 74.1651 149.982 74.3888C149.241 74.5998 148.626 75.1826 148.139 76.1372L146.399 75.4626C146.706 74.746 147.097 74.1719 147.573 73.7404C148.066 73.301 148.608 72.9982 149.2 72.832C149.798 72.6531 150.437 72.593 151.118 72.6518C151.812 72.7155 152.522 72.8882 153.248 73.1699C153.898 73.422 154.474 73.7332 154.976 74.1036C155.495 74.4662 155.905 74.882 156.207 75.351C156.509 75.82 156.69 76.3372 156.749 76.9027C156.814 77.4555 156.722 78.0505 156.475 78.6878C156.332 79.0574 156.135 79.3769 155.884 79.6461C155.632 79.9153 155.349 80.1354 155.034 80.3063C154.731 80.4821 154.402 80.6113 154.048 80.6937C153.711 80.7684 153.385 80.796 153.07 80.7764L153.048 80.8338C153.459 81.096 153.795 81.4022 154.055 81.7523C154.32 82.0897 154.511 82.4494 154.626 82.8315C154.742 83.2136 154.788 83.6054 154.764 84.0067C154.741 84.4081 154.657 84.7936 154.514 85.1632C154.351 85.5838 154.077 86.0056 153.693 86.4286C153.31 86.8515 152.817 87.1957 152.215 87.461C151.627 87.7313 150.938 87.882 150.149 87.9132C149.377 87.9366 148.513 87.763 147.557 87.3923ZM160.622 76.4032L162.439 77.1074L160.163 82.9769L167.351 85.7643L169.627 79.8948L171.444 80.5991L166.151 94.2499L164.334 93.5457L166.758 87.2938L159.57 84.5064L157.146 90.7582L155.329 90.054L160.622 76.4032ZM178.129 83.1914L180.137 83.9698L180.178 99.689L178.17 98.9106L178.273 94.2218L172.499 91.9829L169.375 95.5004L167.521 94.7813L178.129 83.1914ZM178.292 92.4699L178.486 85.2211L178.448 85.2063L173.665 90.6758L178.292 92.4699ZM186.817 86.5603L196.243 90.2151L195.65 91.7446L188.041 88.7941L186.358 93.1341L193.451 95.8844L192.858 97.4139L185.765 94.6636L183.934 99.3859L191.6 102.359L191.007 103.888L181.524 100.211L186.817 86.5603ZM198.544 91.1071L201.029 92.0709L200.883 105.21L209.652 95.4143L212.137 96.378L206.844 110.029L205.123 109.362L209.527 98.0051L209.488 97.9903L200.821 107.694L199.273 107.093L199.413 94.0834L199.375 94.0686L194.971 105.425L193.25 104.758L198.544 91.1071Z" fill="white"/>
</g>
<defs>
<clipPath id="clip0_208_163">
<rect width="266" height="147" fill="white"/>
</clipPath>
</defs>
</svg>
