<svg width="222" height="215" viewBox="0 0 222 215" fill="none" xmlns="http://www.w3.org/2000/svg">
<g clip-path="url(#clip0_190_146)">
<circle cx="110.826" cy="106.827" r="96.4447" transform="rotate(-12.7975 110.826 106.827)" fill="white" stroke="black" stroke-width="4.03534"/>
<path d="M34.2465 126.331L32.5204 118.026L43.1845 115.81L43.4795 117.228L34.0102 119.197L35.1465 124.663L44.6158 122.695L44.9107 124.114L34.2465 126.331Z" fill="black"/>
<path d="M32.0771 114.401L31.8573 109.631C31.8063 108.524 32.0524 107.677 32.5956 107.092C33.1286 106.508 33.9031 106.192 34.919 106.145C35.935 106.099 36.7403 106.341 37.3349 106.874C37.9194 107.407 38.2372 108.227 38.2882 109.335L38.4412 112.657L42.891 112.452L42.9577 113.899L32.0771 114.401ZM37.0915 109.878C37.0536 109.056 36.8584 108.464 36.5058 108.103C36.1426 107.733 35.6359 107.563 34.9857 107.593C34.3355 107.623 33.8517 107.839 33.5342 108.24C33.2061 108.632 33.061 109.239 33.0989 110.062L33.2295 112.897L37.2221 112.713L37.0915 109.878Z" fill="black"/>
<path d="M32.1122 101.011L32.2785 99.4178L43.5537 96.3155L43.3873 97.9087L40.0017 98.7516L39.5234 103.334L42.6588 104.888L42.5051 106.36L32.1122 101.011ZM38.7404 99.0801L33.4994 100.358L33.4962 100.389L38.3571 102.752L38.7404 99.0801Z" fill="black"/>
<path d="M33.0587 93.6355L34.0665 89.8151C34.1261 89.5889 34.1946 89.3493 34.2719 89.0962C34.3419 88.8307 34.4254 88.574 34.5224 88.3261C34.6095 88.0756 34.7074 87.8438 34.8163 87.6306C34.9251 87.4174 35.0481 87.25 35.1854 87.1284C35.4827 86.8387 35.8444 86.6239 36.2705 86.4838C36.6992 86.334 37.179 86.3291 37.7101 86.4692C38.2706 86.617 38.721 86.8831 39.0614 87.2674C39.3946 87.6392 39.5933 88.1019 39.6577 88.6553L39.6872 88.6631C39.9961 88.0504 40.4221 87.6316 40.9652 87.4067C41.5084 87.1819 42.1044 87.155 42.7535 87.3262C43.137 87.4274 43.4925 87.5948 43.82 87.8285C44.1476 88.0621 44.4176 88.3542 44.6301 88.7048C44.8354 89.0429 44.9734 89.4369 45.0441 89.8868C45.1075 90.3243 45.0705 90.8036 44.933 91.3248L43.5906 96.4137L33.0587 93.6355ZM43.7062 91.1905C43.8697 90.571 43.8296 90.045 43.586 89.6126C43.3451 89.1704 42.9296 88.8715 42.3396 88.7159C41.9954 88.6251 41.6933 88.6138 41.4335 88.6819C41.1736 88.7501 40.9512 88.8755 40.7662 89.0581C40.5741 89.2283 40.4171 89.4446 40.2953 89.707C40.1637 89.9668 40.059 90.2442 39.9811 90.5392L39.1368 93.74L42.7802 94.7011L43.7062 91.1905ZM38.696 90.6262C38.9062 89.8296 38.9189 89.223 38.7344 88.8061C38.5426 88.3769 38.1664 88.0884 37.6059 87.9405C37.2421 87.8445 36.9364 87.827 36.6889 87.8879C36.4316 87.9463 36.2168 88.0631 36.0443 88.2385C35.8718 88.4139 35.7345 88.6354 35.6324 88.9029C35.523 89.1581 35.4281 89.438 35.3477 89.7429L34.6084 92.5455L37.9568 93.4288L38.696 90.6262Z" fill="black"/>
<path d="M44.5977 87.5082L45.0327 86.5329C44.7811 86.198 44.4398 85.8398 44.0087 85.4582C43.5775 85.0766 43.0896 84.6975 42.5448 84.321C41.9949 83.931 41.4001 83.5543 40.7604 83.1911C40.1113 82.8237 39.4431 82.4867 38.7558 82.1801L36.7774 81.2978L39.6357 74.889L48.4688 78.8284L48.9596 77.7277L52.5402 79.3246L51.9748 80.5924L49.5088 79.4926L46.2777 86.7374L48.7437 87.8372L48.1783 89.1051L44.5977 87.5082ZM47.8785 80.1519L40.16 76.7096L38.4637 80.5131L39.8987 81.1531C40.5117 81.4265 41.1149 81.7345 41.7082 82.0771C42.2964 82.4062 42.8442 82.7508 43.3518 83.1108C43.8543 83.4573 44.3066 83.8038 44.7089 84.1503C45.1153 84.4874 45.4386 84.7987 45.6789 85.084L47.8785 80.1519Z" fill="black"/>
<path d="M42.6966 69.608L43.5528 68.2542L55.0333 70.4795L54.1771 71.8332L50.7691 71.0856L48.3064 74.9792L50.426 77.7639L49.635 79.0145L42.6966 69.608ZM49.4931 70.82L44.2294 69.6388L44.2131 69.6646L47.5197 73.9401L49.4931 70.82Z" fill="black"/>
<path d="M49.7501 59.655L52.4495 56.7699C52.6093 56.5991 52.7833 56.4206 52.9714 56.2345C53.159 56.034 53.3543 55.8476 53.5572 55.6754C53.7527 55.4962 53.9489 55.3386 54.1459 55.2025C54.3428 55.0664 54.5305 54.9774 54.709 54.9355C55.1082 54.8215 55.5285 54.804 55.9701 54.8828C56.4185 54.9543 56.8433 55.1776 57.2443 55.5528C57.6676 55.9489 57.9379 56.3968 58.0553 56.8966C58.1721 57.3819 58.1277 57.8835 57.9218 58.4012L57.9441 58.4221C58.5067 58.0292 59.0803 57.8626 59.6651 57.9223C60.2499 57.982 60.7874 58.2412 61.2775 58.6998C61.5672 58.9708 61.8007 59.2868 61.9782 59.6479C62.1557 60.0089 62.2549 60.3942 62.2757 60.8036C62.296 61.1987 62.2306 61.611 62.0793 62.0405C61.9277 62.4557 61.6677 62.8601 61.2994 63.2537L57.7036 67.0968L49.7501 59.655ZM60.2832 62.5535C60.7209 62.0857 60.9352 61.6037 60.9259 61.1075C60.9235 60.6039 60.6996 60.1437 60.254 59.7268C59.9941 59.4836 59.7335 59.3303 59.4724 59.2671C59.2113 59.2038 58.956 59.2087 58.7066 59.2817C58.4567 59.3404 58.2159 59.4563 57.9842 59.6295C57.7451 59.7958 57.5213 59.9903 57.3129 60.2131L55.0512 62.6303L57.8026 65.2047L60.2832 62.5535ZM56.1403 59.68C56.7031 59.0785 57.0022 58.5505 57.0374 58.096C57.0722 57.6272 56.878 57.1947 56.4547 56.7987C56.1799 56.5416 55.9191 56.3811 55.6724 56.3174C55.4182 56.2467 55.1736 56.2476 54.9385 56.3202C54.7035 56.3928 54.4776 56.5226 54.2607 56.7097C54.0434 56.8824 53.8271 57.0839 53.6117 57.3141L51.6314 59.4306L54.16 61.7965L56.1403 59.68Z" fill="black"/>
<path d="M68.1973 57.1983C67.5438 57.7326 66.8828 58.089 66.2144 58.2676C65.5396 58.4384 64.8798 58.4588 64.2351 58.3291C63.5905 58.1993 62.9666 57.9343 62.3635 57.534C61.7684 57.1274 61.2197 56.6169 60.7176 56.0028C60.2156 55.3886 59.8323 54.743 59.5678 54.066C59.2969 53.3811 59.1626 52.7027 59.165 52.0308C59.1753 51.3524 59.3352 50.6963 59.6446 50.0625C59.9475 49.4207 60.4257 48.8327 61.0793 48.2985C61.5202 47.938 61.9858 47.6559 62.476 47.4522C62.9663 47.2484 63.4583 47.1352 63.952 47.1125C64.4458 47.0898 64.9366 47.168 65.4245 47.3471C65.906 47.5183 66.3617 47.8026 66.7916 48.1999L65.6696 49.1171C65.0544 48.6217 64.408 48.4014 63.7304 48.4562C63.0606 48.5046 62.4304 48.7702 61.8399 49.253C61.3359 49.6649 60.9801 50.1134 60.7724 50.5985C60.5726 51.0771 60.4865 51.5744 60.5142 52.0904C60.5434 52.592 60.6702 53.0926 60.8946 53.5921C61.1191 54.0917 61.4116 54.5619 61.7721 55.0028C62.1647 55.4832 62.5932 55.8948 63.0574 56.2377C63.5153 56.5728 63.9903 56.8084 64.4826 56.9446C64.9762 57.0664 65.4814 57.0738 65.9981 56.9666C66.5148 56.8595 67.0251 56.6 67.529 56.188C67.8912 55.8919 68.1697 55.5657 68.3645 55.2095C68.5528 54.8453 68.6624 54.4733 68.6934 54.0933C68.7257 53.699 68.6787 53.304 68.5522 52.9083C68.4257 52.5125 68.2326 52.1318 67.973 51.766L69.095 50.8487C69.8602 52.0097 70.1732 53.1397 70.0339 54.2387C69.8961 55.3235 69.2839 56.31 68.1973 57.1983Z" fill="black"/>
<path d="M66.7816 44.1993L73.1473 40.1944L73.7972 41.2273L68.6581 44.4605L70.5022 47.3916L75.2926 44.3778L75.9425 45.4107L71.1521 48.4246L73.1586 51.6139L78.3364 48.3563L78.9863 49.3893L72.5818 53.4186L66.7816 44.1993Z" fill="black"/>
<path d="M80.5531 36.344L84.973 34.5374C85.9991 34.118 86.8788 34.0661 87.6121 34.3816C88.3415 34.6878 88.8986 35.3115 89.2834 36.2529C89.6682 37.1943 89.7094 38.0344 89.4071 38.7733C89.101 39.5027 88.4348 40.0771 87.4087 40.4965L84.3303 41.7548L86.0157 45.8781L84.6742 46.4264L80.5531 36.344ZM86.4951 39.5515C87.2576 39.2398 87.7496 38.8575 87.9709 38.4044C88.1978 37.9381 88.1881 37.4037 87.9419 36.8013C87.6956 36.1988 87.3301 35.8153 86.8454 35.6508C86.3663 35.4731 85.7454 35.5401 84.9829 35.8518L82.3564 36.9254L83.8686 40.6251L86.4951 39.5515Z" fill="black"/>
<path d="M93.1549 31.7644L94.7002 31.3426L101.674 40.7297L100.129 41.1515L98.1174 38.3007L93.6729 39.5137L93.3592 42.9992L91.9316 43.3888L93.1549 31.7644ZM97.3545 37.2438L94.2656 32.8211L94.2362 32.8292L93.793 38.2159L97.3545 37.2438Z" fill="black"/>
<path d="M99.7452 30.053L103.658 29.5051C103.89 29.4727 104.137 29.4431 104.4 29.4165C104.672 29.3785 104.941 29.3562 105.207 29.3497C105.472 29.3332 105.724 29.3339 105.963 29.3518C106.201 29.3697 106.403 29.4185 106.568 29.4981C106.951 29.6602 107.289 29.9107 107.582 30.2495C107.886 30.5869 108.077 31.0275 108.153 31.5714C108.233 32.1455 108.162 32.6638 107.939 33.1263C107.725 33.5773 107.375 33.9395 106.89 34.2129L106.894 34.2431C107.578 34.291 108.129 34.5219 108.547 34.9359C108.964 35.3498 109.219 35.8891 109.313 36.5539C109.368 36.9467 109.351 37.3393 109.262 37.7317C109.173 38.1241 109.008 38.4861 108.767 38.8176C108.534 39.1377 108.224 39.4173 107.837 39.6565C107.458 39.8841 107.002 40.0353 106.468 40.11L101.256 40.8399L99.7452 30.053ZM106.117 38.9268C106.752 38.838 107.221 38.5976 107.526 38.2058C107.841 37.8126 107.956 37.3139 107.871 36.7095C107.822 36.357 107.715 36.0741 107.552 35.8608C107.388 35.6475 107.187 35.4909 106.947 35.391C106.716 35.2796 106.456 35.2185 106.166 35.2076C105.876 35.1867 105.58 35.1973 105.278 35.2396L101.999 35.6987L102.522 39.4303L106.117 38.9268ZM104.7 34.0882C105.516 33.9739 106.081 33.7511 106.394 33.4197C106.715 33.0769 106.836 32.6184 106.756 32.0443C106.703 31.6716 106.601 31.383 106.449 31.1783C106.296 30.9636 106.105 30.8106 105.877 30.7194C105.648 30.6281 105.391 30.5872 105.105 30.5964C104.827 30.5942 104.532 30.615 104.22 30.6587L101.35 31.0607L101.83 34.4901L104.7 34.0882Z" fill="black"/>
<path d="M110.892 28.6246L112.341 28.6398L112.292 33.3229L118.027 33.3832L118.076 28.7002L119.526 28.7154L119.411 39.607L117.962 39.5917L118.014 34.6036L112.279 34.5432L112.226 39.5313L110.777 39.5161L110.892 28.6246Z" fill="black"/>
<path d="M126.128 40.8233C125.279 40.6628 124.563 40.3723 123.98 39.9516C123.399 39.521 122.942 39.0053 122.611 38.4045C122.279 37.8037 122.067 37.1477 121.973 36.4366C121.89 35.7274 121.918 35.0031 122.058 34.2636C122.196 33.534 122.433 32.8543 122.769 32.2244C123.117 31.5864 123.555 31.0482 124.083 30.6097C124.611 30.1712 125.224 29.8575 125.922 29.6685C126.62 29.4796 127.394 29.4653 128.244 29.6258C129.093 29.7863 129.808 30.0818 130.389 30.5124C130.97 30.943 131.427 31.4587 131.758 32.0596C132.09 32.6604 132.296 33.3204 132.378 34.0396C132.471 34.7507 132.449 35.471 132.311 36.2005C132.171 36.94 131.928 37.6238 131.582 38.2518C131.246 38.8817 130.813 39.4159 130.286 39.8544C129.758 40.2928 129.145 40.6066 128.447 40.7955C127.75 40.9745 126.978 40.9838 126.128 40.8233ZM126.352 39.6391C127.001 39.7618 127.585 39.7426 128.102 39.5815C128.62 39.4104 129.069 39.1433 129.448 38.7802C129.827 38.4171 130.136 37.989 130.374 37.4958C130.614 36.9925 130.785 36.4711 130.887 35.9315C130.989 35.3918 131.019 34.849 130.977 34.3029C130.937 33.7468 130.807 33.2306 130.587 32.7543C130.366 32.2779 130.045 31.8704 129.622 31.5319C129.202 31.1833 128.667 30.9477 128.017 30.825C127.367 30.7023 126.783 30.7265 126.264 30.8976C125.748 31.0587 125.3 31.3208 124.921 31.6838C124.541 32.0469 124.232 32.4801 123.992 32.9833C123.754 33.4765 123.584 33.9929 123.482 34.5326C123.38 35.0722 123.349 35.6201 123.389 36.1761C123.43 36.7222 123.562 37.2334 123.782 37.7098C124.003 38.1862 124.323 38.5986 124.744 38.9472C125.166 39.2857 125.702 39.5164 126.352 39.6391Z" fill="black"/>
<path d="M139.863 32.978L143.462 34.6082C143.675 34.7048 143.9 34.8122 144.136 34.9306C144.386 35.0439 144.626 35.169 144.854 35.3059C145.086 35.4335 145.299 35.5687 145.491 35.7116C145.683 35.8544 145.827 36.0036 145.924 36.1592C146.16 36.5006 146.312 36.8931 146.379 37.3365C146.455 37.7842 146.38 38.2582 146.154 38.7584C145.914 39.2865 145.577 39.6863 145.141 39.9579C144.719 40.2244 144.23 40.3433 143.674 40.3146L143.661 40.3424C144.214 40.749 144.556 41.2388 144.687 41.8119C144.818 42.3849 144.745 42.9771 144.468 43.5885C144.304 43.9498 144.08 44.2725 143.795 44.5565C143.51 44.8405 143.177 45.0581 142.796 45.2092C142.429 45.3553 142.017 45.4257 141.562 45.4204C141.12 45.4101 140.653 45.2937 140.162 45.0713L135.368 42.8997L139.863 32.978ZM140.499 43.8841C141.083 44.1484 141.608 44.1966 142.075 44.0285C142.551 43.8646 142.915 43.5047 143.167 42.9488C143.314 42.6246 143.375 42.3287 143.351 42.061C143.327 41.7934 143.241 41.5532 143.092 41.3405C142.956 41.1227 142.769 40.9319 142.53 40.768C142.296 40.595 142.04 40.4455 141.762 40.3196L138.747 38.9537L137.192 42.386L140.499 43.8841ZM141.89 39.0379C142.641 39.3779 143.237 39.4915 143.679 39.379C144.134 39.2614 144.481 38.9386 144.72 38.4106C144.875 38.0678 144.944 37.7693 144.925 37.5152C144.91 37.2518 144.831 37.0204 144.687 36.8211C144.542 36.6218 144.347 36.4495 144.1 36.3042C143.867 36.1539 143.607 36.0137 143.319 35.8836L140.679 34.6876L139.25 37.842L141.89 39.0379Z" fill="black"/>
<path d="M147.625 49.5945C146.927 49.1208 146.396 48.5892 146.034 47.9997C145.678 47.4017 145.47 46.7753 145.41 46.1204C145.35 45.4655 145.426 44.792 145.637 44.0997C145.857 43.4132 146.189 42.7416 146.634 42.085C147.08 41.4284 147.589 40.8766 148.162 40.4298C148.741 39.9745 149.353 39.652 149.997 39.4624C150.65 39.2785 151.325 39.2443 152.021 39.3597C152.722 39.4667 153.422 39.757 154.121 40.2307C154.592 40.5503 154.996 40.9159 155.331 41.3275C155.666 41.7391 155.915 42.1782 156.078 42.6449C156.241 43.1116 156.306 43.6044 156.274 44.1231C156.247 44.6335 156.105 45.1514 155.847 45.6769L154.648 44.8636C154.947 44.1326 154.973 43.4501 154.727 42.8164C154.489 42.1883 154.055 41.6603 153.424 41.2323C152.885 40.867 152.353 40.6542 151.829 40.5937C151.313 40.5389 150.812 40.5985 150.326 40.7724C149.853 40.9436 149.41 41.2081 148.995 41.566C148.581 41.9238 148.213 42.3384 147.894 42.8098C147.546 43.3233 147.274 43.8515 147.078 44.3944C146.887 44.9288 146.797 45.4514 146.807 45.962C146.832 46.47 146.969 46.9562 147.219 47.4207C147.469 47.8853 147.864 48.3002 148.403 48.6654C148.79 48.9279 149.182 49.1016 149.579 49.1865C149.982 49.263 150.37 49.2618 150.743 49.1829C151.13 49.1013 151.495 48.9433 151.838 48.709C152.181 48.4748 152.491 48.181 152.767 47.8277L153.967 48.641C153.073 49.7059 152.079 50.3286 150.986 50.5091C149.907 50.6869 148.787 50.382 147.625 49.5945Z" fill="black"/>
<path d="M159.868 44.7259L160.922 45.7207L157.299 49.559L164.937 49.5114L166.302 50.7994L159.2 50.7668L158.958 58.8458L157.627 57.5892L157.794 50.6562L156.272 50.6462L153.445 53.6414L152.391 52.6466L159.868 44.7259Z" fill="black"/>
<path d="M167.943 52.6436L170.928 56.3699C171.621 57.235 171.921 58.0639 171.826 58.8565C171.739 59.6428 171.299 60.3539 170.505 60.9898C169.712 61.6257 168.918 61.9035 168.123 61.8231C167.337 61.7363 166.597 61.2604 165.904 60.3953L163.825 57.8L160.349 60.5853L159.442 59.4543L167.943 52.6436ZM166.551 59.2512C167.066 59.8941 167.573 60.2574 168.07 60.3412C168.581 60.4266 169.091 60.2658 169.599 59.8588C170.107 59.4518 170.371 58.9926 170.391 58.4812C170.426 57.9713 170.186 57.3949 169.671 56.7521L167.896 54.5377L164.777 57.0369L166.551 59.2512Z" fill="black"/>
<path d="M167.452 70.8842C167.004 70.1449 166.742 69.4179 166.666 68.7031C166.598 67.9831 166.677 67.299 166.903 66.6509C167.128 66.0029 167.475 65.4066 167.941 64.8621C168.413 64.3263 168.971 63.8634 169.615 63.4734C170.25 63.0886 170.914 62.811 171.607 62.6406C172.315 62.4735 173.008 62.44 173.687 62.5399C174.366 62.6398 175.009 62.8864 175.616 63.2797C176.223 63.673 176.75 64.2393 177.198 64.9786C177.646 65.7179 177.904 66.4476 177.972 67.1676C178.039 67.8877 177.96 68.5717 177.735 69.2198C177.509 69.8679 177.156 70.4624 176.675 71.0035C176.208 71.548 175.657 72.0126 175.023 72.3973C174.379 72.7873 173.708 73.0632 173.009 73.225C172.316 73.3955 171.629 73.4308 170.95 73.3308C170.272 73.2309 169.629 72.9843 169.022 72.591C168.423 72.1925 167.9 71.6236 167.452 70.8842ZM168.483 70.2597C168.826 70.825 169.229 71.2462 169.695 71.5233C170.168 71.795 170.667 71.9507 171.191 71.9903C171.714 72.0298 172.239 71.9735 172.765 71.8212C173.3 71.6636 173.802 71.4425 174.271 71.1579C174.741 70.8733 175.165 70.5331 175.544 70.1372C175.931 69.7361 176.228 69.2944 176.435 68.8121C176.643 68.3298 176.731 67.8184 176.701 67.2778C176.679 66.732 176.497 66.1764 176.154 65.611C175.812 65.0457 175.404 64.6271 174.93 64.3554C174.465 64.0783 173.97 63.92 173.447 63.8805C172.923 63.8409 172.394 63.8999 171.86 64.0575C171.334 64.2098 170.836 64.4282 170.366 64.7128C169.896 64.9974 169.468 65.3403 169.081 65.7414C168.702 66.1373 168.409 66.5763 168.202 67.0586C167.995 67.5409 167.902 68.055 167.924 68.6008C167.954 69.1414 168.14 69.6943 168.483 70.2597Z" fill="black"/>
<path d="M180.994 72.2342L184.136 79.0672L183.027 79.5771L180.491 74.0608L177.345 75.5075L179.709 80.6496L178.6 81.1594L176.236 76.0173L172.813 77.5915L175.368 83.1494L174.259 83.6592L171.098 76.7846L180.994 72.2342Z" fill="black"/>
<path d="M184.639 83.7744L183.387 80.3664L184.533 79.9456L187.536 88.122L186.39 88.5428L185.139 85.1348L176.06 88.4697L175.56 87.1093L184.639 83.7744Z" fill="black"/>
<path d="M178.148 98.2991C178.017 97.4654 178.042 96.7149 178.225 96.0476C178.418 95.3788 178.733 94.7988 179.171 94.3076C179.608 93.8164 180.151 93.4114 180.801 93.0925C181.453 92.7838 182.17 92.5675 182.954 92.4438C183.737 92.32 184.488 92.3147 185.206 92.4278C185.934 92.5394 186.587 92.7657 187.166 93.1067C187.747 93.4577 188.233 93.9267 188.624 94.5136C189.025 95.0988 189.292 95.8084 189.424 96.6421C189.512 97.2047 189.521 97.749 189.45 98.2751C189.378 98.8012 189.228 99.2831 188.999 99.7209C188.769 100.159 188.454 100.543 188.053 100.874C187.663 101.203 187.187 101.454 186.627 101.624L186.401 100.193C187.139 99.9115 187.656 99.4645 187.95 98.8517C188.246 98.2489 188.335 97.5709 188.216 96.8174C188.114 96.1745 187.906 95.6411 187.592 95.217C187.28 94.8031 186.894 94.4779 186.434 94.2416C185.987 94.0137 185.49 93.8707 184.946 93.8126C184.401 93.7544 183.848 93.7698 183.285 93.8586C182.672 93.9554 182.101 94.1177 181.57 94.3456C181.05 94.5719 180.607 94.8632 180.241 95.2196C179.887 95.5844 179.626 96.0169 179.458 96.5171C179.29 97.0172 179.256 97.5888 179.358 98.2317C179.431 98.6938 179.572 99.0988 179.781 99.4467C180.001 99.793 180.267 100.075 180.579 100.294C180.903 100.52 181.268 100.679 181.674 100.769C182.079 100.86 182.505 100.885 182.952 100.846L183.178 102.277C181.79 102.352 180.656 102.052 179.778 101.378C178.91 100.712 178.367 99.6854 178.148 98.2991Z" fill="black"/>
<path d="M183.897 106.169C183.972 105.402 184.267 104.762 184.782 104.248C185.297 103.734 186.016 103.455 186.941 103.41C187.977 103.36 188.773 103.622 189.331 104.196C189.888 104.78 190.193 105.61 190.245 106.687L190.471 111.35L179.591 111.876L179.522 110.443L184.002 110.227L183.885 107.804L179.242 104.653L179.155 102.855L183.897 106.169ZM185.221 110.168L189.182 109.976L189.05 107.234C189.012 106.441 188.83 105.839 188.504 105.427C188.179 105.015 187.681 104.826 187.011 104.858C186.34 104.89 185.842 105.123 185.517 105.556C185.192 106 185.049 106.623 185.088 107.425L185.221 110.168Z" fill="black"/>
<path d="M190.178 119.549L188.961 127.943L178.182 126.381L178.39 124.946L187.961 126.334L188.762 120.808L179.191 119.421L179.399 117.987L190.178 119.549Z" fill="black"/>
<path d="M188.162 131.348L186.752 135.91C186.424 136.969 185.906 137.682 185.196 138.048C184.497 138.417 183.661 138.451 182.689 138.151C181.718 137.85 181.043 137.348 180.664 136.646C180.295 135.946 180.274 135.067 180.601 134.008L181.584 130.831L177.328 129.514L177.757 128.13L188.162 131.348ZM181.912 133.902C181.668 134.689 181.651 135.312 181.861 135.77C182.077 136.242 182.496 136.574 183.118 136.766C183.739 136.958 184.268 136.919 184.702 136.649C185.144 136.392 185.486 135.87 185.73 135.083L186.568 132.372L182.75 131.191L181.912 133.902Z" fill="black"/>
<path d="M183.406 144.194L182.693 145.629L171.045 144.595L171.757 143.161L175.224 143.554L177.274 139.428L174.879 136.876L175.537 135.551L183.406 144.194ZM176.521 143.687L181.878 144.321L181.892 144.294L178.163 140.381L176.521 143.687Z" fill="black"/>
<path d="M179.685 151.043L177.355 154.234C177.217 154.423 177.066 154.621 176.902 154.829C176.74 155.051 176.569 155.259 176.389 155.455C176.216 155.657 176.041 155.837 175.862 155.996C175.683 156.155 175.507 156.266 175.335 156.329C174.953 156.491 174.538 156.559 174.09 156.535C173.636 156.518 173.187 156.348 172.744 156.024C172.275 155.682 171.953 155.271 171.776 154.789C171.601 154.321 171.584 153.818 171.725 153.279L171.701 153.261C171.19 153.719 170.641 153.954 170.053 153.966C169.465 153.978 168.9 153.786 168.358 153.39C168.038 153.156 167.768 152.871 167.548 152.534C167.328 152.197 167.182 151.827 167.112 151.423C167.044 151.033 167.059 150.616 167.157 150.171C167.257 149.741 167.466 149.308 167.784 148.872L170.887 144.621L179.685 151.043ZM168.877 149.444C168.5 149.962 168.346 150.466 168.415 150.957C168.479 151.457 168.757 151.887 169.25 152.246C169.537 152.456 169.814 152.577 170.081 152.608C170.348 152.639 170.601 152.603 170.84 152.5C171.08 152.412 171.305 152.267 171.514 152.067C171.732 151.873 171.93 151.653 172.11 151.407L174.062 148.733L171.018 146.511L168.877 149.444ZM173.338 151.793C172.853 152.459 172.62 153.019 172.64 153.475C172.663 153.944 172.908 154.35 173.376 154.692C173.68 154.914 173.958 155.041 174.211 155.074C174.472 155.114 174.715 155.083 174.939 154.983C175.164 154.882 175.372 154.726 175.565 154.514C175.759 154.316 175.95 154.09 176.136 153.835L177.844 151.494L175.047 149.452L173.338 151.793Z" fill="black"/>
<path d="M166.746 152.376L165.972 153.112C166.077 153.517 166.256 153.978 166.509 154.495C166.762 155.013 167.068 155.549 167.428 156.105C167.788 156.675 168.194 157.25 168.647 157.83C169.107 158.417 169.597 158.983 170.115 159.529L171.608 161.098L166.522 165.934L159.858 158.924L158.985 159.755L156.283 156.913L157.289 155.957L159.15 157.914L164.899 152.448L163.038 150.491L164.044 149.534L166.746 152.376ZM160.908 157.926L166.732 164.051L169.75 161.181L168.667 160.042C168.205 159.556 167.764 159.041 167.346 158.498C166.928 157.97 166.553 157.442 166.221 156.916C165.889 156.404 165.603 155.911 165.363 155.438C165.116 154.971 164.935 154.56 164.822 154.205L160.908 157.926Z" fill="black"/>
<path d="M161.212 169.777L159.882 170.671L150.271 164.009L151.6 163.115L154.418 165.172L158.241 162.601L157.423 159.198L158.651 158.372L161.212 169.777ZM155.479 165.929L159.821 169.131L159.846 169.114L158.542 163.869L155.479 165.929Z" fill="black"/>
<path d="M150.563 175.942L146.908 177.441C146.691 177.529 146.459 177.619 146.21 177.71C145.956 177.814 145.701 177.903 145.445 177.975C145.192 178.056 144.948 178.118 144.713 178.159C144.477 178.201 144.269 178.204 144.089 178.168C143.679 178.105 143.29 177.946 142.921 177.69C142.543 177.439 142.25 177.059 142.041 176.551C141.821 176.014 141.762 175.495 141.864 174.991C141.96 174.501 142.209 174.064 142.612 173.679L142.6 173.651C141.925 173.774 141.334 173.686 140.827 173.388C140.32 173.091 139.94 172.631 139.685 172.01C139.534 171.643 139.454 171.259 139.443 170.856C139.432 170.454 139.502 170.063 139.653 169.682C139.799 169.314 140.031 168.967 140.347 168.639C140.658 168.325 141.063 168.065 141.561 167.861L146.431 165.864L150.563 175.942ZM142.194 168.92C141.601 169.164 141.205 169.513 141.007 169.968C140.8 170.426 140.812 170.938 141.043 171.503C141.178 171.832 141.351 172.08 141.562 172.246C141.773 172.412 142.007 172.514 142.265 172.552C142.516 172.602 142.783 172.597 143.066 172.536C143.353 172.485 143.637 172.401 143.92 172.285L146.982 171.029L145.553 167.543L142.194 168.92ZM144.764 173.258C144.002 173.571 143.51 173.926 143.289 174.325C143.062 174.736 143.058 175.211 143.278 175.747C143.421 176.095 143.591 176.349 143.789 176.51C143.991 176.68 144.213 176.781 144.457 176.813C144.701 176.845 144.961 176.821 145.236 176.741C145.505 176.675 145.786 176.582 146.078 176.462L148.759 175.362L147.445 172.158L144.764 173.258Z" fill="black"/>
<path d="M132.964 170.315C133.781 170.106 134.531 170.061 135.212 170.181C135.896 170.31 136.503 170.569 137.033 170.958C137.563 171.348 138.018 171.851 138.396 172.468C138.765 173.087 139.047 173.781 139.244 174.55C139.441 175.318 139.516 176.065 139.471 176.791C139.428 177.526 139.264 178.198 138.979 178.806C138.684 179.417 138.263 179.945 137.715 180.39C137.17 180.844 136.489 181.176 135.671 181.385C135.119 181.526 134.578 181.586 134.048 181.564C133.517 181.543 133.023 181.438 132.566 181.251C132.109 181.064 131.696 180.786 131.329 180.418C130.965 180.06 130.671 179.61 130.448 179.069L131.852 178.709C132.202 179.418 132.695 179.89 133.333 180.125C133.961 180.364 134.644 180.388 135.383 180.199C136.014 180.038 136.525 179.781 136.918 179.428C137.301 179.078 137.588 178.664 137.78 178.184C137.965 177.717 138.061 177.209 138.068 176.662C138.075 176.114 138.008 175.564 137.866 175.013C137.713 174.412 137.497 173.858 137.221 173.351C136.947 172.855 136.615 172.441 136.226 172.11C135.829 171.792 135.374 171.572 134.861 171.452C134.347 171.331 133.775 171.352 133.144 171.513C132.691 171.629 132.301 171.808 131.974 172.049C131.65 172.3 131.394 172.591 131.206 172.922C131.01 173.266 130.887 173.645 130.835 174.057C130.783 174.469 130.798 174.896 130.879 175.337L129.475 175.696C129.27 174.321 129.462 173.164 130.051 172.226C130.633 171.3 131.604 170.663 132.964 170.315Z" fill="black"/>
<path d="M128.618 182.665L121.157 183.614L121.003 182.403L127.026 181.637L126.59 178.202L120.975 178.916L120.821 177.705L126.436 176.992L125.96 173.254L119.892 174.025L119.738 172.814L127.244 171.86L128.618 182.665Z" fill="black"/>
<path d="M113.622 183.943L108.85 183.778C107.742 183.74 106.918 183.427 106.379 182.838C105.839 182.26 105.587 181.462 105.622 180.446C105.657 179.43 105.964 178.646 106.543 178.097C107.121 177.557 107.964 177.306 109.072 177.344L112.396 177.459L112.55 173.008L113.998 173.058L113.622 183.943ZM109.518 178.581C108.695 178.553 108.089 178.7 107.701 179.022C107.303 179.354 107.093 179.846 107.07 180.496C107.048 181.147 107.224 181.646 107.599 181.995C107.963 182.353 108.557 182.547 109.38 182.575L112.216 182.674L112.354 178.679L109.518 178.581Z" fill="black"/>
<path d="M100.277 182.994L98.6914 182.768L96.0117 171.385L97.5975 171.611L98.3136 175.025L102.875 175.674L104.545 172.599L106.01 172.807L100.277 182.994ZM98.5948 176.298L99.6766 181.583L99.7068 181.587L102.25 176.818L98.5948 176.298Z" fill="black"/>
<path d="M92.8785 181.75L89.0566 180.747C88.8304 180.688 88.5907 180.62 88.3375 180.543C88.0719 180.473 87.815 180.39 87.567 180.293C87.3164 180.207 87.0844 180.109 86.8711 180.001C86.6577 179.892 86.4901 179.769 86.3684 179.632C86.0783 179.335 85.8629 178.974 85.7222 178.548C85.5718 178.119 85.5662 177.64 85.7055 177.108C85.8526 176.548 86.118 176.097 86.5018 175.756C86.8732 175.422 87.3356 175.223 87.8889 175.158L87.8966 175.128C87.2835 174.82 86.8641 174.395 86.6385 173.852C86.4128 173.309 86.3852 172.713 86.5554 172.064C86.6561 171.68 86.823 171.324 87.0561 170.996C87.2893 170.669 87.5811 170.398 87.9313 170.185C88.2692 169.979 88.663 169.841 89.1128 169.77C89.5501 169.705 90.0295 169.742 90.5509 169.879L95.6417 171.214L92.8785 181.75ZM90.4183 171.106C89.7986 170.943 89.2727 170.984 88.8407 171.228C88.3988 171.47 88.1005 171.885 87.9457 172.476C87.8553 172.82 87.8445 173.122 87.913 173.382C87.9816 173.642 88.1073 173.864 88.2902 174.049C88.4606 174.24 88.6771 174.397 88.9397 174.519C89.1996 174.65 89.4772 174.754 89.7723 174.832L92.9744 175.671L93.9303 172.027L90.4183 171.106ZM89.8611 176.116C89.0643 175.908 88.4576 175.896 88.041 176.081C87.6121 176.273 87.3241 176.65 87.177 177.21C87.0815 177.574 87.0644 177.88 87.1257 178.127C87.1844 178.385 87.3016 178.599 87.4772 178.772C87.6529 178.944 87.8745 179.081 88.1422 179.183C88.3975 179.292 88.6776 179.386 88.9826 179.466L91.7862 180.201L92.6648 176.852L89.8611 176.116Z" fill="black"/>
<path d="M82.0801 178.698L80.7397 178.147L82.52 173.815L77.2147 171.635L75.4344 175.967L74.094 175.416L78.2345 165.341L79.575 165.892L77.6786 170.506L82.984 172.686L84.8803 168.073L86.2207 168.623L82.0801 178.698Z" fill="black"/>
<path d="M72.9205 162.049C73.6619 162.494 74.2333 163.014 74.6347 163.611C75.0308 164.216 75.2804 164.858 75.3836 165.536C75.4867 166.214 75.459 166.903 75.3005 167.603C75.1333 168.297 74.8562 168.967 74.4692 169.612C74.0875 170.249 73.6298 170.805 73.0963 171.279C72.5488 171.757 71.9515 172.111 71.3045 172.34C70.6575 172.568 69.9738 172.65 69.2535 172.586C68.5331 172.522 67.8022 172.267 67.0608 171.823C66.3194 171.378 65.7506 170.854 65.3545 170.249C64.9584 169.643 64.7088 169.002 64.6056 168.323C64.5025 167.645 64.5372 166.954 64.7096 166.251C64.8681 165.552 65.1382 164.884 65.52 164.247C65.9069 163.601 66.3716 163.044 66.9138 162.575C67.4474 162.1 68.0377 161.748 68.6847 161.52C69.3317 161.291 70.0154 161.209 70.7357 161.273C71.4508 161.346 72.1791 161.605 72.9205 162.049ZM72.3008 163.083C71.7339 162.743 71.18 162.559 70.6393 162.531C70.0934 162.512 69.5798 162.608 69.0985 162.817C68.6172 163.027 68.1795 163.322 67.7854 163.702C67.3861 164.091 67.0453 164.521 66.7629 164.992C66.4805 165.463 66.2644 165.962 66.1146 166.489C65.9595 167.024 65.903 167.554 65.9451 168.077C65.9871 168.6 66.1477 169.094 66.4269 169.557C66.7009 170.03 67.1214 170.436 67.6884 170.776C68.2553 171.116 68.8118 171.296 69.3577 171.315C69.8984 171.342 70.4094 171.251 70.8907 171.042C71.372 170.833 71.8123 170.533 72.2116 170.144C72.6057 169.764 72.9439 169.338 73.2263 168.867C73.5087 168.396 73.7274 167.893 73.8825 167.357C74.0323 166.831 74.0862 166.306 74.0441 165.782C74.0021 165.259 73.8441 164.761 73.5701 164.289C73.2909 163.825 72.8678 163.423 72.3008 163.083Z" fill="black"/>
<path d="M57.0499 164.462L54.1813 161.745C54.0115 161.584 53.8341 161.409 53.6491 161.22C53.4498 161.031 53.2646 160.835 53.0936 160.631C52.9156 160.434 52.7592 160.237 52.6243 160.039C52.4895 159.841 52.4017 159.653 52.3608 159.474C52.2493 159.074 52.2343 158.654 52.3158 158.213C52.39 157.765 52.6159 157.342 52.9936 156.943C53.3922 156.522 53.8418 156.254 54.3423 156.14C54.8284 156.026 55.3297 156.074 55.8461 156.283L55.8671 156.261C55.4777 155.696 55.3146 155.121 55.3779 154.537C55.4412 153.952 55.7036 153.416 56.1652 152.929C56.438 152.641 56.7554 152.409 57.1175 152.234C57.4797 152.059 57.8655 151.962 58.2751 151.944C58.6703 151.926 59.0822 151.994 59.5108 152.148C59.925 152.302 60.3278 152.564 60.7191 152.935L64.5402 156.554L57.0499 164.462ZM60.0128 153.947C59.5476 153.506 59.0669 153.289 58.5707 153.295C58.0671 153.295 57.6055 153.516 57.1859 153.959C56.9411 154.217 56.7863 154.477 56.7214 154.738C56.6566 154.998 56.6599 155.254 56.7314 155.503C56.7885 155.754 56.903 155.995 57.0748 156.228C57.2396 156.468 57.4327 156.693 57.6542 156.903L60.0576 159.179L62.6488 156.444L60.0128 153.947ZM57.114 158.072C56.5159 157.506 55.9898 157.203 55.5355 157.165C55.0669 157.128 54.6332 157.319 54.2346 157.74C53.9758 158.013 53.8138 158.273 53.7486 158.519C53.6763 158.773 53.6757 159.018 53.7469 159.253C53.818 159.489 53.9465 159.715 54.1322 159.933C54.3036 160.152 54.5037 160.369 54.7326 160.586L56.837 162.579L59.2183 160.065L57.114 158.072Z" fill="black"/>
<path d="M55.1973 146.146C55.7014 146.823 56.0275 147.499 56.1757 148.175C56.3157 148.857 56.3062 149.517 56.1474 150.155C55.9885 150.793 55.6955 151.404 55.2684 151.989C54.8351 152.565 54.3004 153.09 53.6641 153.564C53.0278 154.037 52.3655 154.391 51.6772 154.624C50.9807 154.864 50.2969 154.967 49.6258 154.935C48.9486 154.894 48.3004 154.704 47.6812 154.366C47.0539 154.035 46.4882 153.53 45.9841 152.853C45.644 152.396 45.3832 151.919 45.2019 151.42C45.0206 150.921 44.9298 150.424 44.9295 149.93C44.9292 149.435 45.0296 148.949 45.2306 148.469C45.4234 147.996 45.7281 147.554 46.1444 147.142L47.0099 148.305C46.4871 148.897 46.2378 149.533 46.2618 150.212C46.2798 150.883 46.5166 151.525 46.9721 152.137C47.3608 152.659 47.7927 153.034 48.2679 153.264C48.7369 153.485 49.2298 153.594 49.7465 153.59C50.2489 153.583 50.7547 153.479 51.2639 153.278C51.7731 153.076 52.2562 152.805 52.713 152.465C53.2106 152.094 53.6412 151.685 54.0048 151.237C54.3603 150.795 54.6172 150.331 54.7755 149.845C54.9196 149.358 54.9498 148.853 54.8662 148.332C54.7826 147.811 54.5465 147.29 54.1578 146.768C53.8784 146.392 53.5652 146.099 53.2181 145.889C52.8629 145.684 52.4962 145.558 52.118 145.51C51.7256 145.459 51.3289 145.488 50.9278 145.597C50.5267 145.705 50.1376 145.881 49.7604 146.124L48.895 144.961C50.0894 144.249 51.2324 143.988 52.324 144.177C53.4014 144.364 54.3592 145.02 55.1973 146.146Z" fill="black"/>
<path d="M42.1279 146.717L41.4748 145.423L46.1866 143.044L38.986 140.493L38.1404 138.818L44.8084 141.262L47.7812 133.746L48.6062 135.38L46.0933 141.844L47.5212 142.371L51.1981 140.514L51.8512 141.808L42.1279 146.717Z" fill="black"/>
<path d="M37.2007 136.231L35.784 131.671C35.455 130.612 35.4795 129.731 35.8575 129.028C36.2257 128.328 36.8954 127.827 37.8666 127.525C38.8378 127.224 39.6783 127.255 40.3881 127.621C41.0883 127.989 41.6028 128.702 41.9317 129.761L42.9184 132.937L47.1723 131.615L47.6023 132.999L37.2007 136.231ZM40.9111 130.589C40.6667 129.802 40.3284 129.279 39.8962 129.019C39.4514 128.753 38.9181 128.716 38.2966 128.909C37.675 129.103 37.2613 129.433 37.0555 129.902C36.8369 130.364 36.8498 130.988 37.0942 131.775L37.9361 134.485L41.753 133.299L40.9111 130.589Z" fill="black"/>
</g>
<defs>
<clipPath id="clip0_190_146">
<rect width="221.515" height="215" fill="white"/>
</clipPath>
</defs>
</svg>
