<svg width="667" height="498" viewBox="0 0 667 498" fill="none" xmlns="http://www.w3.org/2000/svg">
<g clip-path="url(#clip0_172_94)">
<path d="M626.266 0L643.362 17.5122L649.616 295.205L536.204 331.897L523.695 318.971V295.205L608.754 268.103V193.54L535.37 213.065L523.695 205.976V178.04L608.754 155.525V52.9534L569.56 64.2112L555.801 48.3669V21.2648L626.266 0Z" fill="black"/>
<path d="M555.801 21.2648L569.56 37.943M555.801 21.2648L626.266 0L643.362 17.5122M555.801 21.2648V48.3669L569.56 64.2112M569.56 37.943L643.362 17.5122M569.56 37.943V64.2112M643.362 17.5122L649.616 295.205L536.204 331.897M536.204 331.897V306.463M536.204 331.897L523.695 318.971V295.205M536.204 306.463L626.266 278.944M536.204 306.463L523.695 295.205M626.266 278.944V188.881L608.754 193.54M626.266 278.944L608.754 268.103M535.37 213.065V186.796M535.37 213.065L608.754 193.54M535.37 213.065L523.695 205.976V178.04M535.37 186.796L608.754 168.041L626.266 163.864M535.37 186.796L523.695 178.04M626.266 163.864V48.3669L608.754 52.9534M626.266 163.864L608.754 155.525M569.56 64.2112L608.754 52.9534M523.695 295.205L608.754 268.103M608.754 268.103V193.54M608.754 52.9534V155.525M523.695 178.04L608.754 155.525" stroke="white" stroke-width="3.35302"/>
<path d="M517.859 338.569L477.831 352.328L462.403 343.344V173.427L432.8 180.542L418.623 160.112V64.6287L547.879 23.3501L563.724 43.364V143.85L514.94 159.278L517.859 338.569Z" fill="black"/>
<path d="M418.623 64.6287L432.8 85.0596M418.623 64.6287V160.112L432.8 180.542M418.623 64.6287L547.879 23.3501L563.724 43.364M432.8 85.0596V180.542M432.8 85.0596L563.724 43.364M432.8 180.542L462.403 173.427M477.831 352.328V169.285L462.403 173.427M477.831 352.328L517.859 338.569L514.94 159.278L563.724 143.85V43.364M477.831 352.328L462.403 343.344V173.427M477.831 150.522L443.223 160.112V144.684M477.831 150.522V85.0596L465.739 88.8473M477.831 150.522L465.739 138.013M465.739 138.013V88.8473M465.739 138.013L443.223 144.684M465.739 88.8473L443.223 95.9004V144.684M554.134 128.84L514.94 140.515V124.253M554.134 128.84V59.2083L543.71 62.646M554.134 128.84L543.71 116.748M543.71 116.748V62.646M543.71 116.748L514.94 124.253M543.71 62.646L514.94 72.134V124.253" stroke="white" stroke-width="3.35302"/>
<path d="M445.692 236.414V259.847L380.308 275.606V289.354L415.85 280.971L435.298 291.366V314.166L383.997 326.572V340.655L429.047 328.979L445.692 340.655V363.169L355.663 390.688L339.401 371.168V247.441L422.892 227.658L445.692 236.414Z" fill="black"/>
<path d="M353.161 258.93L445.692 236.414M353.161 258.93L355.663 390.688M353.161 258.93L339.401 247.441M445.692 236.414V259.847L380.308 275.606V289.354M445.692 236.414L422.892 227.658L339.401 247.441M435.298 291.366L380.308 303.772V289.354M435.298 291.366V314.166L383.997 326.572V340.655M435.298 291.366L415.85 280.971L380.308 289.354M445.692 340.655L383.997 358.426V340.655M445.692 340.655V363.169L355.663 390.688M445.692 340.655L429.047 328.979L383.997 340.655M355.663 390.688L339.401 371.168V247.441" stroke="white" stroke-width="3.35302"/>
<path d="M306.045 100.487L407.782 68.3813L421.959 87.1444L424.043 180.543L343.571 205.977L346.49 394.858L328.144 400.278L312.716 383.6L306.045 100.487Z" fill="black"/>
<path d="M328.144 400.278L322.306 117.582M328.144 400.278L346.49 394.858L343.571 205.977L424.043 180.543L421.959 87.1444M328.144 400.278L312.716 383.6L306.045 100.487M322.306 117.582L306.045 100.487M322.306 117.582L421.959 87.1444M306.045 100.487L407.782 68.3813L421.959 87.1444M407.782 164.698L343.571 183.461L343.058 166.783M407.782 164.698V108.409L392.772 113.08M407.782 164.698L392.772 151.773M392.772 151.773V113.08M392.772 151.773L343.058 166.783M392.772 113.08L341.903 129.257L343.058 166.783" stroke="white" stroke-width="3.35302"/>
<path d="M177.622 141.348L209.311 131.421L229.325 148.02V229.326L264.766 114.202L298.539 104.656L314.801 118.416L256.427 282.696L322.723 402.964L284.363 415.033L256.427 393.19L229.325 341.07L229.742 432.218L195.551 442.808L177.622 416.956V141.348Z" fill="black"/>
<path d="M177.622 141.348L195.551 159.764M177.622 141.348L209.311 131.421L229.325 148.02M177.622 141.348V416.956L195.551 442.808M195.551 159.764L229.325 148.02M195.551 159.764V442.808M229.325 148.02V229.326M195.551 442.808L229.742 432.218L229.325 341.07M284.363 415.033L229.325 304.378V341.07M284.363 415.033L322.723 402.964L256.427 282.696L314.801 118.416M284.363 415.033L256.427 393.19L229.325 341.07M314.801 118.416L278.525 129.674M314.801 118.416L298.539 104.656L264.766 114.202M278.525 129.674L264.766 114.202M278.525 129.674L229.325 269.354V229.326M264.766 114.202L229.325 229.326" stroke="white" stroke-width="3.35302"/>
<path d="M188.881 446.56L30.4378 497.846L0 475.747V194.719L145.935 149.688L172.62 170.535V220.987L66.296 256.845V410.285L160.945 382.766L188.881 401.529V446.56Z" fill="black"/>
<path d="M30.4378 213.065V497.846M30.4378 213.065L172.62 170.535M30.4378 213.065L0 194.719M30.4378 497.846L188.881 446.56V401.529M30.4378 497.846L0 475.747V194.719M188.881 401.529L66.296 438.638V410.285M188.881 401.529L160.945 382.766L66.296 410.285M172.62 170.535V220.987L66.296 256.845V410.285M172.62 170.535L145.935 149.688L0 194.719" stroke="white" stroke-width="4.16956"/>
<path d="M173.838 241.887V264.017L108.454 287.281V298.958L143.433 287.281L163.443 296.039V318.336L112.142 338.247V351.494L157.192 333.148L173.838 344.824V367.338L83.9767 400.278L67.5469 382.842V259.116L151.037 231.828L173.838 241.887Z" fill="black"/>
<path d="M83.9767 271.522L173.838 241.887M83.9767 271.522V400.278M83.9767 271.522L67.5469 259.116M173.838 241.887V264.017L108.454 287.281V298.958M173.838 241.887L151.037 231.828L67.5469 259.116M163.443 296.039L108.454 318.336V298.958M163.443 296.039V318.336L112.142 338.247V351.494M163.443 296.039L143.433 287.281L108.454 298.958M173.838 344.824L112.142 370.101V351.494M173.838 344.824V367.338L83.9767 400.278M173.838 344.824L157.192 333.148L112.142 351.494M83.9767 400.278L67.5469 382.842V259.116" stroke="white" stroke-width="3.35302"/>
<path d="M163.31 490.086C162.229 490.429 161.206 490.551 160.244 490.455C159.277 490.345 158.397 490.057 157.604 489.591C156.811 489.126 156.12 488.506 155.531 487.731C154.938 486.944 154.48 486.042 154.158 485.026C153.832 483.996 153.683 482.982 153.711 481.984C153.739 480.986 153.941 480.061 154.317 479.211C154.693 478.361 155.244 477.612 155.972 476.966C156.699 476.32 157.604 475.826 158.686 475.483C159.441 475.244 160.2 475.125 160.961 475.128C161.722 475.131 162.437 475.263 163.108 475.524C163.787 475.767 164.402 476.146 164.952 476.66C165.502 477.174 165.951 477.821 166.298 478.6L163.326 479.541C163.163 479.206 162.944 478.924 162.671 478.695C162.394 478.453 162.083 478.264 161.739 478.129C161.395 477.995 161.029 477.924 160.64 477.918C160.26 477.895 159.881 477.944 159.503 478.063C158.812 478.282 158.269 478.605 157.873 479.031C157.474 479.444 157.196 479.927 157.041 480.478C156.882 481.016 156.821 481.594 156.859 482.213C156.91 482.828 157.033 483.441 157.227 484.054C157.413 484.64 157.66 485.193 157.967 485.712C158.284 486.214 158.662 486.639 159.103 486.988C159.543 487.336 160.047 487.57 160.616 487.691C161.181 487.799 161.808 487.744 162.499 487.525C163.438 487.228 164.077 486.71 164.416 485.971C164.769 485.229 164.855 484.37 164.676 483.394L167.647 482.453C167.849 483.364 167.899 484.223 167.796 485.03C167.689 485.824 167.447 486.553 167.069 487.218C166.692 487.882 166.186 488.458 165.552 488.946C164.918 489.434 164.17 489.814 163.31 490.086ZM167.025 473.208L171.345 471.839L177.65 480.404L177.689 480.392L177.738 469.815L182.058 468.447L186.478 482.405L183.605 483.315L180.472 473.423L180.433 473.435L180.145 484.41L177.779 485.16L171.256 476.449L171.217 476.461L174.319 486.255L171.445 487.165L167.025 473.208ZM195.535 479.88C194.454 480.223 193.431 480.346 192.469 480.249C191.502 480.14 190.622 479.852 189.829 479.386C189.036 478.92 188.345 478.3 187.756 477.526C187.163 476.739 186.705 475.837 186.383 474.82C186.057 473.791 185.908 472.777 185.936 471.779C185.964 470.78 186.166 469.856 186.542 469.006C186.918 468.155 187.47 467.407 188.197 466.761C188.924 466.114 189.829 465.62 190.911 465.277C191.979 464.939 192.997 464.825 193.964 464.934C194.944 465.04 195.832 465.332 196.629 465.811C197.426 466.29 198.123 466.93 198.721 467.73C199.318 468.53 199.78 469.445 200.106 470.474C200.428 471.491 200.573 472.492 200.541 473.477C200.505 474.449 200.297 475.354 199.916 476.191C199.536 477.029 198.976 477.773 198.236 478.423C197.504 479.056 196.604 479.542 195.535 479.88ZM194.724 477.32C195.415 477.101 195.96 476.785 196.36 476.371C196.755 475.945 197.033 475.463 197.192 474.925C197.352 474.387 197.41 473.823 197.367 473.235C197.333 472.629 197.223 472.033 197.037 471.446C196.843 470.834 196.584 470.264 196.259 469.736C195.947 469.203 195.571 468.763 195.131 468.415C194.686 468.054 194.182 467.819 193.617 467.711C193.048 467.59 192.419 467.639 191.728 467.858C191.037 468.077 190.494 468.399 190.098 468.826C189.699 469.239 189.421 469.721 189.266 470.272C189.107 470.81 189.046 471.389 189.084 472.008C189.136 472.622 189.258 473.236 189.452 473.848C189.638 474.435 189.885 474.988 190.192 475.507C190.509 476.009 190.888 476.434 191.328 476.782C191.768 477.13 192.272 477.365 192.841 477.486C193.406 477.594 194.034 477.538 194.724 477.32ZM206.298 467.524L199.018 463.076L202.634 461.93L209.342 466.13L207.521 460.383L210.473 459.448L212.287 465.176L215.36 457.9L218.977 456.755L215.501 464.524L223.906 470.552L220.113 471.753L213.744 467.059L213.253 468.225L214.894 473.406L211.942 474.341L210.301 469.16L209.058 468.564L206.703 476L202.93 477.195L206.298 467.524ZM220.708 456.207L231.147 452.901L231.964 455.481L224.594 457.815L225.542 460.806L232.306 458.664L233.061 461.049L226.297 463.191L227.38 466.612L234.907 464.228L235.724 466.809L225.128 470.164L220.708 456.207ZM233.384 452.192L236.453 451.22L240.057 462.598L244.279 461.26L240.676 449.883L243.745 448.911L247.348 460.288L251.571 458.951L247.968 447.574L251.037 446.602L255.457 460.56L237.805 466.15L233.384 452.192ZM253.735 445.747L256.804 444.775L258.401 449.819L261.686 448.779C262.389 448.556 263.07 448.441 263.727 448.433C264.38 448.413 264.986 448.515 265.545 448.74C266.104 448.964 266.595 449.317 267.02 449.799C267.459 450.277 267.797 450.894 268.037 451.65C268.28 452.419 268.367 453.123 268.297 453.762C268.227 454.4 268.023 454.981 267.687 455.503C267.359 456.009 266.912 456.452 266.344 456.832C265.772 457.2 265.108 457.503 264.352 457.743L258.155 459.705L253.735 445.747ZM263.325 455.315C264.068 455.079 264.601 454.746 264.923 454.314C265.245 453.882 265.288 453.295 265.053 452.552C264.937 452.187 264.782 451.899 264.586 451.689C264.386 451.465 264.151 451.31 263.88 451.224C263.622 451.134 263.332 451.104 263.012 451.133C262.701 451.146 262.375 451.206 262.037 451.313L259.163 452.223L260.432 456.231L263.325 455.315ZM277.091 453.88C276.608 454.033 276.14 454.095 275.687 454.067L274.894 451.565C274.955 451.574 275.033 451.571 275.128 451.555C275.236 451.535 275.323 451.515 275.388 451.494C275.884 451.337 276.236 451.047 276.446 450.622C276.668 450.193 276.755 449.606 276.706 448.862C276.669 448.113 276.51 447.181 276.229 446.066C275.947 444.95 275.563 443.624 275.076 442.086L274.185 439.271L284.233 436.089L288.653 450.047L285.603 451.012L282 439.635L277.915 440.929C278.387 442.557 278.807 444.088 279.175 445.52C279.555 446.948 279.774 448.227 279.831 449.356C279.883 450.472 279.711 451.423 279.314 452.208C278.913 452.981 278.172 453.538 277.091 453.88ZM286.934 435.233L289.983 434.268L293.048 443.944L293.106 443.926L295.359 432.565L298.8 431.475L303.22 445.433L300.17 446.399L297.1 436.703L297.041 436.721L294.795 448.102L291.354 449.191L286.934 435.233ZM310.847 430.5L306.663 431.824L305.846 429.244L317.282 425.622L318.099 428.203L313.916 429.528L317.519 440.905L314.45 441.877L310.847 430.5ZM318.891 425.113L321.961 424.141L323.558 429.184L326.451 428.268C327.155 428.045 327.835 427.93 328.493 427.923C329.146 427.902 329.752 428.004 330.31 428.229C330.869 428.453 331.361 428.807 331.786 429.289C332.224 429.766 332.563 430.383 332.802 431.139C333.046 431.908 333.133 432.612 333.062 433.251C332.992 433.89 332.789 434.47 332.452 434.993C332.125 435.498 331.677 435.941 331.109 436.321C330.538 436.689 329.874 436.992 329.118 437.232L323.312 439.07L318.891 425.113ZM328.091 434.804C328.834 434.569 329.366 434.235 329.688 433.803C330.01 433.371 330.054 432.784 329.818 432.041C329.703 431.676 329.547 431.389 329.352 431.178C329.152 430.955 328.916 430.8 328.645 430.713C328.387 430.623 328.098 430.593 327.778 430.623C327.466 430.635 327.141 430.695 326.802 430.802L324.319 431.589L325.588 435.596L328.091 434.804ZM331.285 421.188L334.355 420.216L338.775 434.173L335.706 435.145L331.285 421.188ZM342.487 417.64L354.1 413.962L358.52 427.92L355.451 428.892L351.848 417.515L346.374 419.248L349.977 430.626L346.908 431.598L342.487 417.64ZM356.806 413.105L363.1 411.112C363.973 410.835 364.758 410.731 365.453 410.797C366.144 410.851 366.744 411.026 367.254 411.324C367.777 411.617 368.21 412.01 368.553 412.504C368.905 412.981 369.169 413.499 369.347 414.06C369.528 414.633 369.612 415.216 369.599 415.808C369.599 416.396 369.469 416.96 369.21 417.501C368.965 418.038 368.577 418.534 368.047 418.988C367.513 419.43 366.809 419.789 365.936 420.065L362.71 421.087L364.295 426.091L361.226 427.063L356.806 413.105ZM364.34 417.947C364.692 417.835 365.022 417.702 365.332 417.546C365.641 417.391 365.897 417.203 366.099 416.981C366.297 416.746 366.424 416.469 366.481 416.15C366.551 415.827 366.515 415.444 366.375 415.001C366.235 414.557 366.043 414.224 365.8 414C365.57 413.771 365.308 413.625 365.015 413.56C364.718 413.482 364.399 413.468 364.056 413.519C363.714 413.57 363.367 413.652 363.015 413.763L360.63 414.518L361.955 418.702L364.34 417.947ZM380.62 421.266C379.538 421.608 378.516 421.731 377.553 421.635C376.586 421.525 375.706 421.237 374.913 420.771C374.121 420.305 373.43 419.685 372.84 418.911C372.247 418.124 371.789 417.222 371.467 416.206C371.141 415.176 370.992 414.162 371.02 413.164C371.048 412.166 371.25 411.241 371.626 410.391C372.002 409.54 372.554 408.792 373.281 408.146C374.009 407.5 374.913 407.005 375.995 406.663C377.064 406.324 378.081 406.21 379.048 406.32C380.028 406.425 380.916 406.717 381.713 407.196C382.51 407.675 383.207 408.315 383.805 409.115C384.403 409.915 384.864 410.83 385.19 411.86C385.512 412.876 385.657 413.877 385.625 414.862C385.589 415.835 385.381 416.739 385.001 417.577C384.621 418.414 384.06 419.158 383.32 419.808C382.588 420.441 381.688 420.927 380.62 421.266ZM379.808 418.705C380.499 418.486 381.044 418.17 381.444 417.757C381.84 417.33 382.117 416.848 382.276 416.31C382.436 415.772 382.494 415.209 382.451 414.62C382.417 414.014 382.307 413.418 382.121 412.832C381.927 412.219 381.668 411.649 381.343 411.121C381.031 410.589 380.655 410.148 380.215 409.8C379.771 409.439 379.266 409.204 378.701 409.096C378.133 408.976 377.503 409.024 376.812 409.243C376.121 409.462 375.578 409.784 375.183 410.211C374.783 410.624 374.506 411.106 374.35 411.658C374.191 412.196 374.13 412.774 374.168 413.393C374.22 414.008 374.342 414.621 374.536 415.234C374.722 415.82 374.969 416.373 375.277 416.892C375.593 417.394 375.972 417.819 376.412 418.167C376.852 418.515 377.356 418.75 377.925 418.871C378.49 418.979 379.118 418.924 379.808 418.705ZM385.06 404.158L388.109 403.192L391.174 412.868L391.233 412.85L393.485 401.489L396.926 400.4L401.346 414.358L398.297 415.323L395.226 405.627L395.167 405.646L392.921 417.026L389.48 418.115L385.06 404.158ZM390.801 401.027C388.286 401.824 386.71 401.219 386.075 399.212L388.342 398.494C388.483 398.893 388.706 399.189 389.01 399.379C389.314 399.57 389.74 399.578 390.287 399.405C390.834 399.231 391.186 398.984 391.342 398.662C391.494 398.327 391.498 397.953 391.353 397.54L393.62 396.822C394.256 398.829 393.316 400.231 390.801 401.027ZM403.532 401.147L399.348 402.472L398.531 399.891L409.967 396.27L410.784 398.85L406.601 400.175L410.204 411.552L407.135 412.524L403.532 401.147ZM411.577 395.76L414.626 394.794L417.691 404.471L417.75 404.452L420.002 393.092L423.443 392.002L427.863 405.96L424.814 406.926L421.743 397.229L421.684 397.248L419.438 408.628L415.997 409.718L411.577 395.76ZM433.994 401.179L435.167 400.807C435.398 400.132 435.536 399.436 435.581 398.719C435.64 397.998 435.614 397.239 435.505 396.441C435.409 395.64 435.241 394.79 434.999 393.892C434.771 392.989 434.493 392.023 434.167 390.993L433.48 388.823L443.606 385.616L447.209 396.994L448.734 396.511L450.561 402.278L447.785 403.157L446.776 399.97L437.588 402.88L438.597 406.067L435.821 406.946L433.994 401.179ZM444.14 397.966L441.336 389.11L437.211 390.416L437.291 390.671C437.593 391.622 437.845 392.51 438.049 393.334C438.266 394.155 438.427 394.935 438.533 395.676C438.647 396.4 438.697 397.101 438.682 397.78C438.677 398.441 438.606 399.102 438.471 399.761L444.14 397.966ZM446.684 384.641L457.124 381.335L457.941 383.916L450.571 386.25L451.518 389.241L458.282 387.099L459.037 389.484L452.273 391.626L453.357 395.047L460.883 392.663L461.7 395.244L451.105 398.599L446.684 384.641ZM463.267 382.229L459.083 383.554L458.266 380.974L469.702 377.352L470.519 379.932L466.336 381.257L469.939 392.635L466.87 393.607L463.267 382.229ZM471.311 376.842L481.751 373.536L482.568 376.117L475.198 378.451L476.145 381.442L482.909 379.3L483.664 381.685L476.9 383.827L477.984 387.248L485.51 384.864L486.327 387.445L475.732 390.8L471.311 376.842ZM483.988 372.828L487.057 371.856L488.827 377.447L492.511 370.129L496.343 368.915L492.173 376.667L501.291 382.706L497.44 383.925L490.551 379.289L489.868 380.731L491.477 385.814L488.408 386.786L483.988 372.828ZM502.002 369.962L497.818 371.287L497.001 368.707L508.437 365.085L509.254 367.665L505.071 368.99L508.674 380.368L505.605 381.34L502.002 369.962ZM520.822 376.865C519.74 377.207 518.718 377.33 517.755 377.234C516.788 377.124 515.908 376.836 515.115 376.37C514.323 375.904 513.632 375.284 513.042 374.51C512.449 373.723 511.991 372.821 511.669 371.805C511.343 370.775 511.194 369.761 511.222 368.763C511.25 367.765 511.452 366.84 511.828 365.99C512.204 365.139 512.756 364.391 513.483 363.745C514.211 363.099 515.115 362.604 516.197 362.262C517.266 361.923 518.283 361.809 519.25 361.919C520.23 362.024 521.118 362.316 521.915 362.795C522.712 363.274 523.409 363.914 524.007 364.714C524.605 365.514 525.066 366.429 525.393 367.459C525.714 368.475 525.859 369.476 525.827 370.461C525.791 371.434 525.583 372.338 525.203 373.176C524.823 374.013 524.262 374.757 523.522 375.407C522.79 376.041 521.89 376.526 520.822 376.865ZM520.01 374.304C520.701 374.085 521.246 373.769 521.646 373.356C522.042 372.929 522.319 372.447 522.479 371.909C522.638 371.371 522.696 370.808 522.653 370.219C522.619 369.613 522.509 369.017 522.323 368.431C522.129 367.818 521.87 367.248 521.545 366.72C521.233 366.188 520.857 365.747 520.417 365.399C519.973 365.038 519.468 364.803 518.903 364.696C518.335 364.575 517.705 364.623 517.014 364.842C516.323 365.061 515.78 365.384 515.385 365.81C514.985 366.223 514.708 366.706 514.552 367.257C514.393 367.795 514.332 368.373 514.37 368.992C514.422 369.607 514.544 370.22 514.738 370.833C514.924 371.419 515.171 371.972 515.479 372.491C515.795 372.993 516.174 373.418 516.614 373.766C517.054 374.115 517.558 374.349 518.127 374.47C518.692 374.578 519.32 374.523 520.01 374.304ZM525.262 359.757L531.556 357.763C532.43 357.487 533.214 357.382 533.909 357.448C534.6 357.502 535.2 357.677 535.71 357.975C536.233 358.268 536.666 358.662 537.009 359.155C537.361 359.632 537.625 360.15 537.803 360.711C537.984 361.284 538.069 361.867 538.055 362.459C538.055 363.047 537.926 363.611 537.667 364.152C537.421 364.689 537.033 365.185 536.503 365.639C535.969 366.081 535.265 366.44 534.392 366.717L531.166 367.738L532.751 372.743L529.682 373.715L525.262 359.757ZM532.796 364.598C533.148 364.486 533.479 364.353 533.788 364.198C534.097 364.042 534.353 363.854 534.555 363.632C534.753 363.397 534.881 363.12 534.937 362.801C535.007 362.478 534.972 362.095 534.831 361.652C534.691 361.209 534.499 360.875 534.256 360.651C534.026 360.423 533.765 360.276 533.472 360.211C533.175 360.133 532.855 360.12 532.512 360.171C532.17 360.222 531.823 360.303 531.471 360.414L529.086 361.17L530.411 365.353L532.796 364.598ZM548.426 367.95C547.944 368.103 547.476 368.165 547.023 368.137L546.23 365.635C546.291 365.644 546.369 365.641 546.464 365.625C546.572 365.605 546.659 365.585 546.724 365.564C547.22 365.407 547.572 365.116 547.782 364.692C548.004 364.263 548.091 363.676 548.042 362.932C548.005 362.183 547.846 361.251 547.565 360.136C547.283 359.02 546.899 357.694 546.412 356.156L545.52 353.341L555.569 350.159L559.989 364.117L556.939 365.082L553.336 353.705L549.25 354.999C549.723 356.627 550.143 358.158 550.511 359.59C550.891 361.018 551.11 362.297 551.166 363.426C551.219 364.542 551.047 365.493 550.65 366.278C550.249 367.05 549.508 367.608 548.426 367.95ZM564.592 354.055L557.312 349.607L560.928 348.461L567.636 352.661L565.815 346.914L568.767 345.979L570.581 351.707L573.655 344.431L577.271 343.286L573.795 351.055L582.2 357.083L578.407 358.284L572.038 353.59L571.547 354.756L573.188 359.937L570.236 360.871L568.595 355.691L567.352 355.095L564.997 362.531L561.224 363.726L564.592 354.055ZM579.002 342.737L582.052 341.772L585.116 351.448L585.175 351.43L587.428 340.069L590.868 338.98L595.289 352.937L592.239 353.903L589.168 344.207L589.11 344.226L586.863 355.606L583.422 356.695L579.002 342.737ZM602.528 347.332L603.482 350.343L600.413 351.315L599.459 348.304L602.528 347.332ZM594.269 342.85C594.059 342.142 593.972 341.46 594.008 340.803C594.057 340.142 594.215 339.533 594.483 338.975C594.764 338.413 595.154 337.924 595.653 337.507C596.161 337.074 596.773 336.744 597.49 336.517C598.415 336.224 599.226 336.111 599.921 336.177C600.625 336.227 601.225 336.381 601.723 336.639C602.221 336.897 602.618 337.223 602.915 337.617C603.22 337.993 603.433 338.37 603.553 338.748C603.751 339.374 603.829 339.915 603.788 340.373C603.759 340.827 603.666 341.236 603.51 341.601C603.366 341.962 603.177 342.294 602.943 342.598C602.719 342.884 602.509 343.173 602.314 343.464C602.116 343.742 601.953 344.044 601.827 344.371C601.714 344.693 601.694 345.058 601.765 345.466L602.001 346.209L599.361 347.045L599.083 346.165C598.944 345.592 598.9 345.09 598.95 344.658C599.013 344.223 599.12 343.837 599.272 343.502C599.42 343.154 599.593 342.841 599.792 342.563C599.991 342.285 600.17 342.013 600.33 341.748C600.489 341.482 600.597 341.211 600.653 340.935C600.722 340.655 600.695 340.342 600.57 339.994C600.38 339.394 600.09 338.999 599.699 338.807C599.322 338.611 598.873 338.596 598.351 338.761C597.999 338.872 597.716 339.041 597.501 339.267C597.294 339.475 597.143 339.724 597.048 340.012C596.962 340.283 596.929 340.588 596.95 340.925C596.967 341.25 597.031 341.588 597.143 341.94L594.269 342.85Z" fill="black"/>
</g>
<defs>
<clipPath id="clip0_172_94">
<rect width="667" height="498" fill="white"/>
</clipPath>
</defs>
</svg>
